<svg id="레이어_1" data-name="레이어 1" xmlns="http://www.w3.org/2000/svg" viewBox="0 0 39.22 39.81">
  <defs>
    <style>
      .cls-1 {
        fill: #781723;
      }
    </style>
  </defs>
  <title>unicef_logo</title>
  <g>
    <path class="cls-1" d="M24.84,2.24c.25,0,.5,0,.75,0a7.59,7.59,0,0,1,1.63.26c.36.1.73.17,1.09.3a11.36,11.36,0,0,1,2.27,1.11,10.79,10.79,0,0,1,2.29,2A9.3,9.3,0,0,1,34.4,8.35a8.85,8.85,0,0,1,.72,2A4.3,4.3,0,0,1,35.33,12c0,.21.14.39.1.61s0,.44,0,.66-.06.44-.09.66.08.44-.09.62A5.79,5.79,0,0,1,35,16a4,4,0,0,1-.29.86c-.13.31-.28.6-.43.9a9.78,9.78,0,0,1-1,1.56,9.09,9.09,0,0,1-1.33,1.5,6.17,6.17,0,0,1-1.59,1.14,3.88,3.88,0,0,1-1,.56,10.19,10.19,0,0,1-1.74.66c-.3.1-.62.1-.9.2s-.71.05-1.06.15a3.5,3.5,0,0,1-1.12,0,2.32,2.32,0,0,1-.64,0c-.21-.07-.5,0-.67-.07s-.45,0-.59-.17A2.44,2.44,0,0,1,21.54,23a5.44,5.44,0,0,1-1-.4c-.31-.18-.66-.29-1-.48A7.69,7.69,0,0,1,18,21c-.2-.21-.45-.37-.65-.57a11,11,0,0,1-1.68-2.21c-.15-.3-.35-.58-.47-.89a4.77,4.77,0,0,1-.54-1.55,2.24,2.24,0,0,1-.27-1,8.22,8.22,0,0,1-.13-1,6.82,6.82,0,0,1-.07-1,2.13,2.13,0,0,1,.08-.86c.1-.25-.07-.58.1-.84A9.14,9.14,0,0,1,15,8.86a7.53,7.53,0,0,1,.61-1.2,9.66,9.66,0,0,1,1-1.43,11.42,11.42,0,0,1,1-1.08,9.33,9.33,0,0,1,2.65-1.88,7.48,7.48,0,0,1,1.53-.6c.32-.08.64-.19,1-.26A9.57,9.57,0,0,1,24.84,2.24ZM32,9.09c-.47,0-.65-.17-.74-.59a1.35,1.35,0,0,0-.37.13c-.13.09-.22.12-.36,0a.59.59,0,0,0-.27,0H29.7A3.3,3.3,0,0,1,30,8.43l.73-.28c.22-.1.23-.17.12-.39s-.17-.3-.26-.45a5.28,5.28,0,0,0-.87-1.15,5.83,5.83,0,0,1-.95.44,3,3,0,0,0-.56.24C28,7,28,7,28.06,7.21s.15.32.2.48a2.87,2.87,0,0,1,.22,1.09.61.61,0,0,0-.13,0c-.23.1-.26.09-.33-.13a.78.78,0,0,1-.09-.24,3.26,3.26,0,0,0-.39-1.11c-.07-.21-.23-.3-.38-.2s-.43,0-.64.16-.4,0-.62.09a1.76,1.76,0,0,1-.69,0,.26.26,0,0,0-.1,0c0,.64,0,1.28,0,2,.44,0,.85-.1,1.25-.11a5.65,5.65,0,0,1,1-.1s.07-.07.11-.07a1.09,1.09,0,0,1,.26,0L27,9.74c-.46,0-.94.16-1.43.1a3.68,3.68,0,0,0-.47,0,2.24,2.24,0,0,0,0,.26c0,.43,0,.52-.48.49,0,0-.05,0-.1-.05V7.4h-.61a.74.74,0,0,1-.76-.63l.66.07.71.07V5.31c-.23-.32-.61,0-.89-.25-.08-.06-.24,0-.37,0a5.85,5.85,0,0,0-.66,1.13c-.41-.08-.53-.27-.31-.58s.29-.53.45-.78l-.95-.54c-.31.28-.62.53-.9.82a.51.51,0,0,1-.46.14,2.68,2.68,0,0,1-.33-.14L21.37,4,21,3.56a12.45,12.45,0,0,0-1.37.68,12.17,12.17,0,0,0-1.87,1.48c-.15.14-.23.32-.37.46a7.4,7.4,0,0,0-.83,1,9.74,9.74,0,0,0-.7,1.21,5.46,5.46,0,0,0-.45,1.08,6.28,6.28,0,0,0-.33,1.22,2.76,2.76,0,0,1-.1.66c-.13.31,0,.6-.09.89.08,0,.12,0,.13,0,.19-.15.37-.32.57-.45a2.88,2.88,0,0,1,.57-.32.93.93,0,0,0,.72-.66.34.34,0,0,1,.09-.19.45.45,0,0,0,0-.46,3.93,3.93,0,0,1-.23-1.36c0-.2,0-.41,0-.61a2.27,2.27,0,0,1,.7-1.68c.15-.14.3-.28.44-.43a2,2,0,0,1,1.25-.58A3.77,3.77,0,0,1,21.4,6a4.55,4.55,0,0,1,1.67,1.29,2.2,2.2,0,0,1,.43,1,2.05,2.05,0,0,1-.56,1.78.87.87,0,0,0-.27.82,3.85,3.85,0,0,0,.19.47c-.05.06-.1.14-.14.14-.28,0-.35.13-.33.37s0,.2-.15.22-.06.19-.11.27-.09.07-.15.08a.81.81,0,0,1-.22,0,.62.62,0,0,1-.61.56,3.23,3.23,0,0,1-1.3-.24.45.45,0,0,0-.65.41,1.77,1.77,0,0,0,.11.8c.21.44.09.92.26,1.35-.07.54.15,1,.1,1.54l.31.25a.84.84,0,0,0,.53.21,3.34,3.34,0,0,1,1,.07.76.76,0,0,0,.69-.13c.27-.18.58-.44,1-.3a.27.27,0,0,0,.31.26c.14,0,.28,0,.42,0s.18.26.14.42-.11.52-.2.77a.93.93,0,0,1-.41.57,1.37,1.37,0,0,1-1,.06,1.5,1.5,0,0,0-.88-.12c-.26.1-.53.15-.79.26a3.66,3.66,0,0,1-.81.18,2.55,2.55,0,0,1-.91,0,6.41,6.41,0,0,1-.86-.34c-.16.36-.45.68-.3,1.15.28.24.57.51.88.76a.9.9,0,0,0,.36.16c.12,0,.25,0,.38.09a.41.41,0,0,0,.36,0c.13-.11.27-.05.4-.08s.16-.06.24-.07c.67-.12,1.25-.47,1.91-.62.35-.08.7-.19,1.05-.28a10.14,10.14,0,0,1,1.12-.26.65.65,0,0,0,.51-.24.79.79,0,0,0,.17-.54c0-.22-.06-.44-.08-.66,0-.44-.13-.87-.13-1.32a1.11,1.11,0,0,0-.53-1,3.87,3.87,0,0,1-1.17-1,.75.75,0,0,1,0-1.1,3.09,3.09,0,0,1,.32-.29,2.78,2.78,0,0,1-.12-.26.24.24,0,0,1,.23-.35h.33c-.16-.58-.22-.73.37-.78a1.62,1.62,0,0,0,0-.22s-.05-.1-.07-.16a.74.74,0,0,1-.09-.6.82.82,0,0,1,.28-.11,10.66,10.66,0,0,0,1.28-.18.94.94,0,0,0,.63-.3l1.1-1.1a.72.72,0,0,1,.2-.19,5.11,5.11,0,0,1,1.87-.59c.19,0,.34.11.52.1a1.34,1.34,0,0,1,.53.09,4.45,4.45,0,0,1,1.78,1,5.9,5.9,0,0,1,1,1.3,8.51,8.51,0,0,1,.62,1.49c.06.22,0,.45.09.66a1.23,1.23,0,0,1,.08.53c0,.13-.08.25-.08.38s-.07.29-.09.43a4.58,4.58,0,0,1-1.08,2,7,7,0,0,1-.66.67,2.76,2.76,0,0,1-1.85.75h-1c-.23.3-.11.65-.14,1a3.46,3.46,0,0,0,.66.94c.24.19.51.35.76.53.18-.14.36-.26.51-.4a11.8,11.8,0,0,0,1.23-1.32,12.63,12.63,0,0,0,1-1.52,9.74,9.74,0,0,0,.86-2.27,8,8,0,0,0,.26-1.54,1.82,1.82,0,0,1,.08-.76.49.49,0,0,0-.05-.49s0-.14,0-.22a6.84,6.84,0,0,0-.17-1.56c-.07-.35-.17-.69-.27-1a11.32,11.32,0,0,0-1.12-2.36,5.41,5.41,0,0,1-1,.6,1.31,1.31,0,0,0-.33.21.25.25,0,0,0-.09.32C31.86,8.69,31.92,8.88,32,9.09ZM30.24,5.85l1.24,1.92a.37.37,0,0,0,.17,0c.32-.18.63-.36.93-.56.11-.08.32-.07.31-.3a6.77,6.77,0,0,0-1.71-1.75ZM25.12,6.93a13.69,13.69,0,0,0,2.05-.33.49.49,0,0,0,0-.17c-.18-.38-.37-.76-.56-1.13A.46.46,0,0,0,26,5.09a1.61,1.61,0,0,1-.35.06l-.52.08Zm4.26-1.22-.67-.66a5.1,5.1,0,0,0-.65-.57c-.27-.18-.25-.2-.52,0-.1.06-.22.08-.32.14a4.15,4.15,0,0,0-.34.24l.34.6.42.8.15.25A7.07,7.07,0,0,0,29.38,5.71ZM28.29,4l1.25,1.16.32.34a2.45,2.45,0,0,0,.91-.72,10,10,0,0,0-2.1-1.18Zm-3.76.75V3.21a8.46,8.46,0,0,0-1,1.37Zm.59-1.51V4.66a1.69,1.69,0,0,0,1-.14Zm.59-.06.77,1.08a.27.27,0,0,0,.37.06c.17-.09.37-.15.42-.39A6.65,6.65,0,0,0,25.71,3.14Zm-3.35.75a.73.73,0,0,0,.42.38.32.32,0,0,0,.45-.14c.05-.07.11-.14.16-.22L24,3.14A7.08,7.08,0,0,0,22.36,3.89Zm.5-.85,0-.06a4.27,4.27,0,0,0-.64.11,5.91,5.91,0,0,0-.6.25l.31.31Zm5.21.28a3.11,3.11,0,0,0-.65-.22c-.2,0-.4-.22-.63-.05l1,.6Z" transform="translate(-5.39 -2.24)"/>
    <path class="cls-1" d="M37.71,39.2h1.52a1.1,1.1,0,0,1-.14.89,2.91,2.91,0,0,1-.6,1,3.73,3.73,0,0,1-1.32.77,5.25,5.25,0,0,1-1.71.18,4.93,4.93,0,0,1-1.15-.18,2.49,2.49,0,0,1-.88-.47,3.23,3.23,0,0,1-1.13-1.69c-.06-.22-.12-.45-.17-.68A11.71,11.71,0,0,1,32,37.68a8.82,8.82,0,0,1,.11-1.27,4.83,4.83,0,0,1,.24-.7,3.83,3.83,0,0,1,1.2-1.66,5.64,5.64,0,0,1,1.22-.57c.2,0,.41-.08.61-.09a2.49,2.49,0,0,1,.61,0A4.21,4.21,0,0,1,38,34a3.61,3.61,0,0,1,1.25,1.83,2.68,2.68,0,0,1,.1.85,4,4,0,0,0,.09.48c0,.17,0,.34,0,.51,0,.33,0,.37-.36.37H33.94c-.24,0-.37.13-.29.34.14.38.11.78.26,1.16a2,2,0,0,0,1.24,1.22,2.8,2.8,0,0,0,1.62-.1c.2-.19.47-.28.6-.57S37.57,39.52,37.71,39.2Zm0-2.26a2.16,2.16,0,0,0-.17-1.17,1.64,1.64,0,0,0-.79-1,2.37,2.37,0,0,0-1.3-.19,1.8,1.8,0,0,0-.41,0,2,2,0,0,0-1.14,1.09,1.71,1.71,0,0,0-.17,1.22Z" transform="translate(-5.39 -2.24)"/>
    <path class="cls-1" d="M13.76,33.68h1.59v1a3,3,0,0,1,1.81-1.26,2.07,2.07,0,0,1,1.28,0,2.44,2.44,0,0,1,1.5.56,2.13,2.13,0,0,1,.85,1.26,1.86,1.86,0,0,1,.09.47,3.73,3.73,0,0,1,0,.47v5.58h-1.6v-.41c0-1.69,0-3.38,0-5.06A1.7,1.7,0,0,0,18.73,35a1.36,1.36,0,0,0-.7-.34,1.58,1.58,0,0,0-.57-.08,2,2,0,0,0-2,1.53,3.31,3.31,0,0,0-.11.94c0,1.44,0,2.87,0,4.31v.44H14c-.2,0-.27-.08-.27-.28a2.81,2.81,0,0,1,0-.29V33.68Z" transform="translate(-5.39 -2.24)"/>
    <path class="cls-1" d="M5.41,33.67H7v.47c0,1.65,0,3.31,0,5a1.7,1.7,0,0,0,.73,1.52,1.45,1.45,0,0,0,.68.26,2.23,2.23,0,0,0,1.44-.36,1.9,1.9,0,0,0,.8-1.26c.06-.24.07-.5.11-.75a14.87,14.87,0,0,0,.08-2.31c0-.76,0-1.53,0-2.29v-.23h1.59v7.58a2.62,2.62,0,0,1,0,.28c0,.2-.07.28-.26.29H10.84V40.65a6.22,6.22,0,0,1-.4.5A2.91,2.91,0,0,1,9,41.94,9.6,9.6,0,0,1,7.48,42c-.34-.17-.76-.16-1-.49-.35-.11-.46-.46-.67-.7a4.12,4.12,0,0,1-.37-.92.91.91,0,0,1,0-.37Z" transform="translate(-5.39 -2.24)"/>
    <path class="cls-1" d="M27.21,25.31a4,4,0,0,0-1.65.49c.44.33.88.59,1.28.91.65.51,1.18,1.14,1.78,1.7.23.22.23.26,0,.48a5.88,5.88,0,0,1-.52.4l-.5-.69a4.35,4.35,0,0,0-.33-.42c-.2-.22-.42-.42-.62-.63A8.19,8.19,0,0,0,25,26.35c-.19-.12-.39-.19-.56,0a8.23,8.23,0,0,0-2.2,1.83,6.86,6.86,0,0,0-.53.76,2.65,2.65,0,0,1-.17.22c-.21-.17-.41-.31-.58-.47a.22.22,0,0,1,0-.35c.53-.53,1-1.08,1.6-1.58s.88-.65,1.37-1a3.71,3.71,0,0,0-1.5-.39,3,3,0,0,1-1,.76c-.21.08-.42.13-.63.19a7,7,0,0,1-1.65.08,8.17,8.17,0,0,1-.85-.09c-.28,0-.55-.14-.82-.16a4.88,4.88,0,0,1-.95-.23,1.56,1.56,0,0,1-1-.54c.09-.26.37-.28.56-.37a2.7,2.7,0,0,1,.71-.11l.52-.09c.18,0,.38.08.53-.09s.06,0,.09,0a14.17,14.17,0,0,0,1.6-.09c.53,0,1.07-.05,1.6,0a14.71,14.71,0,0,1,1.61.19c.31.07.63.11.94.21s.58.19.86.3a.33.33,0,0,0,.29,0c.5-.18,1-.34,1.53-.5a6.16,6.16,0,0,1,.75-.11c.19,0,.38-.07.57-.09a2.08,2.08,0,0,0,.56,0,3.35,3.35,0,0,1,1.09-.08,5.56,5.56,0,0,1,1.08,0c.43.08.85,0,1.27.09s.93.09,1.38.19a1.85,1.85,0,0,1,1.06.43.71.71,0,0,1-.34.32,6.39,6.39,0,0,1-1.5.47,5.27,5.27,0,0,0-.64.14c-.21.06-.46,0-.68.06a1.46,1.46,0,0,1-.3.07,9.88,9.88,0,0,1-1.54,0,2.83,2.83,0,0,1-1-.31A4.35,4.35,0,0,1,27.21,25.31Z" transform="translate(-5.39 -2.24)"/>
    <path class="cls-1" d="M31.48,36.28H29.89a1.65,1.65,0,0,0-.09-.7,1.27,1.27,0,0,0-1.23-1c-.13,0-.23-.22-.4,0s-.28,0-.41,0a1.54,1.54,0,0,0-.47.21,2.59,2.59,0,0,0-.88,1.56,9.34,9.34,0,0,0-.06,2.3,2.32,2.32,0,0,0,1,2,1.57,1.57,0,0,0,1.29.22,2,2,0,0,0,.78-.39A2,2,0,0,0,30,39h1.58a3,3,0,0,1-.41,1.45,2.92,2.92,0,0,1-2,1.44,4.12,4.12,0,0,1-1.6.06,2.94,2.94,0,0,1-1.81-.83,3.73,3.73,0,0,1-.92-1.49c-.06-.21-.08-.44-.14-.65a6.15,6.15,0,0,1-.09-1.6,1,1,0,0,1,.06-.59c.11-.17,0-.38.1-.57a2.34,2.34,0,0,0,.17-.53A3.39,3.39,0,0,1,29,33.48,2.53,2.53,0,0,1,30.4,34a2.11,2.11,0,0,1,.7.79A2.2,2.2,0,0,1,31.48,36.28Z" transform="translate(-5.39 -2.24)"/>
    <path class="cls-1" d="M41,41.83v-7H39.38c0-.2,0-.38,0-.56v-.57H41V32a1.91,1.91,0,0,1,.69-1.54,1.94,1.94,0,0,1,1.15-.5c.11,0,.22-.08.34-.09a3.53,3.53,0,0,1,1.47.21v1.29c-.41,0-.83,0-1.25,0s-.61.08-.75.44a.82.82,0,0,0,0,.3c0,.52,0,1,0,1.58h1.87c0,.31,0,.59,0,.87s-.07.27-.27.27h-1.6v6.49a1.82,1.82,0,0,1,0,.33.21.21,0,0,1-.23.22H41Z" transform="translate(-5.39 -2.24)"/>
    <path class="cls-1" d="M23.69,41.82H22.12V33.67c.24,0,.5,0,.76,0s.53,0,.81,0Z" transform="translate(-5.39 -2.24)"/>
    <path class="cls-1" d="M11.76,21.27a4.09,4.09,0,0,1,1.15.35,14.09,14.09,0,0,1,1.53.7c.65.36,1.29.75,1.91,1.15A3.84,3.84,0,0,1,17,24a3.68,3.68,0,0,1,.34.44.74.74,0,0,1-.61.28,6.49,6.49,0,0,1-1.08,0,3.49,3.49,0,0,1-.88-.24,5.24,5.24,0,0,1-1.73-1.15,7.26,7.26,0,0,1-1.2-1.61C11.77,21.64,11.79,21.47,11.76,21.27Z" transform="translate(-5.39 -2.24)"/>
    <path class="cls-1" d="M37.86,21.16c0,.25.07.47-.16.62a6.07,6.07,0,0,1-1.52,1.89,6.47,6.47,0,0,1-1,.62,5.58,5.58,0,0,1-.94.34.83.83,0,0,1-.22,0c-.34,0-.69,0-1,0a.81.81,0,0,1-.61-.24,1,1,0,0,1,.43-.6,15,15,0,0,1,1.9-1.27c.46-.25.92-.5,1.39-.72a5.31,5.31,0,0,1,1.55-.55A1.14,1.14,0,0,0,37.86,21.16Z" transform="translate(-5.39 -2.24)"/>
    <path class="cls-1" d="M35.58,16.88a3.31,3.31,0,0,1,.32,1.47,7.12,7.12,0,0,0,0,.8,3.7,3.7,0,0,1-.6,2,3.61,3.61,0,0,1-1.46,1.36c-.14-.06-.22-.15-.2-.29s-.07-.46.07-.68-.07-.43.12-.6a10.18,10.18,0,0,1,.47-2,7.64,7.64,0,0,1,.85-1.85C35.24,17,35.34,16.84,35.58,16.88Z" transform="translate(-5.39 -2.24)"/>
    <path class="cls-1" d="M15.85,22.62A4.17,4.17,0,0,1,14,20.51a9.74,9.74,0,0,1-.21-1.18,5.9,5.9,0,0,0,0-.94A3.15,3.15,0,0,1,14.08,17c.21-.07.33.08.41.22a6.79,6.79,0,0,1,.67,1.35c.15.44.31.88.42,1.33a5.93,5.93,0,0,1,.24,1c0,.16.07.31.09.47a2.26,2.26,0,0,0,.08.44,1.53,1.53,0,0,1,0,.64C16,22.51,15.91,22.55,15.85,22.62Z" transform="translate(-5.39 -2.24)"/>
    <path class="cls-1" d="M29.72,24.28a.74.74,0,0,1,.16-.61c.17-.25.35-.48.54-.72a5.51,5.51,0,0,1,.6-.68l.62-.53c.2-.17.38-.35.58-.51s.68-.56,1-.81a3.19,3.19,0,0,1,.39-.22c0,.19.06.37,0,.45s0,.35-.1.52-.11.36-.17.54-.13.32-.18.49a2.78,2.78,0,0,1-2,2,5.63,5.63,0,0,1-.91.18A2.33,2.33,0,0,1,29.72,24.28Z" transform="translate(-5.39 -2.24)"/>
    <path class="cls-1" d="M19.93,24.35c-.14,0-.29.14-.42.11a5.7,5.7,0,0,1-1.42-.3,2.82,2.82,0,0,1-1.07-.8,4.24,4.24,0,0,1-.63-1.19,6.49,6.49,0,0,1-.19-.76c-.06-.24-.14-.48-.19-.72a2.14,2.14,0,0,1,0-.36,1.82,1.82,0,0,1,.73.42c.51.39,1,.81,1.46,1.25a5.32,5.32,0,0,1,.7.64,5.58,5.58,0,0,1,1,1.33A.73.73,0,0,1,19.93,24.35Z" transform="translate(-5.39 -2.24)"/>
    <path class="cls-1" d="M9.82,16.52c.35.29.65.51.92.77.45.43.89.88,1.33,1.32a13.12,13.12,0,0,1,1,1.29c.3.39.49.84.79,1.23a2.5,2.5,0,0,1,.24.59.8.8,0,0,1-.55,0,9.92,9.92,0,0,1-1.43-.87,8.19,8.19,0,0,1-1-.95,2.74,2.74,0,0,1-.5-.72,9.36,9.36,0,0,1-.5-1.06A9.56,9.56,0,0,0,9.82,17,1.86,1.86,0,0,1,9.82,16.52Z" transform="translate(-5.39 -2.24)"/>
    <path class="cls-1" d="M39.83,16.48a2.88,2.88,0,0,1-.23,1.15,6.19,6.19,0,0,1-1,2,8.11,8.11,0,0,1-1,1,3.85,3.85,0,0,1-.65.47c-.24.15-.52.26-.76.42a.87.87,0,0,1-.68.13,3,3,0,0,1,.2-.55A21.36,21.36,0,0,1,37,19.15c.64-.79,1.41-1.45,2.1-2.17A5.05,5.05,0,0,1,39.83,16.48Z" transform="translate(-5.39 -2.24)"/>
    <path class="cls-1" d="M11.79,17.51c-.29.09-.44-.12-.57-.24a5.25,5.25,0,0,1-1-1.25,9.79,9.79,0,0,1-.74-1.85c.07-.34-.11-.66-.1-1s0-.69,0-1a1.42,1.42,0,0,1,.15-.31c.11.11.21.16.26.25a15.26,15.26,0,0,1,.9,1.5,17,17,0,0,1,.76,1.94c.16.44.24.9.36,1.35A2.62,2.62,0,0,1,11.79,17.51Z" transform="translate(-5.39 -2.24)"/>
    <path class="cls-1" d="M40.09,11.79a.28.28,0,0,1,.22.29c0,.4,0,.81,0,1.22a3.17,3.17,0,0,1-.12.74,7.14,7.14,0,0,1-.18.77,1.85,1.85,0,0,0-.25.69c-.26.32-.41.72-.66,1a4.09,4.09,0,0,1-.95.86.73.73,0,0,1-.25.05c0-.28-.11-.55.07-.8a5.46,5.46,0,0,1,.3-1.33,4.38,4.38,0,0,1,.3-.86,12.57,12.57,0,0,1,.54-1.18c.25-.45.54-.87.82-1.3A.81.81,0,0,1,40.09,11.79Z" transform="translate(-5.39 -2.24)"/>
    <path class="cls-1" d="M13.59,13.61a2.7,2.7,0,0,0,.08.56,4.54,4.54,0,0,1,.07,1.6c0,.46-.1.91-.08,1.37a.94.94,0,0,0-.09.57c0,.18-.11.33-.11.52a2.6,2.6,0,0,1-.17.72.23.23,0,0,1-.4.11,2.06,2.06,0,0,1-.54-.95,2.73,2.73,0,0,1-.1-.81c0-.16-.09-.32-.08-.47a4.78,4.78,0,0,1,.52-2.13c.18-.31.33-.64.51-1C13.26,13.63,13.36,13.55,13.59,13.61Z" transform="translate(-5.39 -2.24)"/>
    <path class="cls-1" d="M36.17,13.48c.06,0,.2,0,.24.12a6.67,6.67,0,0,1,.91,2,4.34,4.34,0,0,1,.08.52c0,.12,0,.25.07.35a.26.26,0,0,1,0,.18c0,.17-.07.34-.09.52s.05.37,0,.51a5.28,5.28,0,0,1-.34.94,1.91,1.91,0,0,1-.27.35c-.17.16-.33.11-.42-.1s-.1-.43-.17-.63,0-.54-.11-.8,0-.8-.11-1.18a4.61,4.61,0,0,1-.07-.9,3,3,0,0,1,0-.94C36,14.1,35.89,13.76,36.17,13.48Z" transform="translate(-5.39 -2.24)"/>
    <path class="cls-1" d="M11.05,13.44a2.75,2.75,0,0,1-1-1.74A8.31,8.31,0,0,1,10,9.59a7.85,7.85,0,0,1,.36-1.91.78.78,0,0,1,.16-.21c.28.12.25.41.4.58,0,.37.18.71.21,1.09a5.16,5.16,0,0,0,.08.8,10.25,10.25,0,0,1,.08,2.21c0,.33-.12.66-.09,1C11.22,13.23,11.12,13.32,11.05,13.44Z" transform="translate(-5.39 -2.24)"/>
    <path class="cls-1" d="M38.57,13.34a1.17,1.17,0,0,1-.13-.37,14.39,14.39,0,0,1-.11-1.74,4.17,4.17,0,0,0,0-.79,9.25,9.25,0,0,1,.12-1.18,2.37,2.37,0,0,1,.26-1.06,1.06,1.06,0,0,1,.19-.62,1.49,1.49,0,0,1,.18-.24,2.38,2.38,0,0,1,.38,1c.06.29,0,.61.11.89a6.59,6.59,0,0,1,.06,2,2.78,2.78,0,0,1-.92,2Z" transform="translate(-5.39 -2.24)"/>
    <path class="cls-1" d="M37.88,15.53a6.47,6.47,0,0,1-1-1.73,6.67,6.67,0,0,1-.71-3.51A2.18,2.18,0,0,1,37,11a6.23,6.23,0,0,1,.54.8,6.78,6.78,0,0,1,.41.86,6.31,6.31,0,0,1,.23.93,3.17,3.17,0,0,1,0,1A2.27,2.27,0,0,1,37.88,15.53Z" transform="translate(-5.39 -2.24)"/>
    <path class="cls-1" d="M13.48,10.35c0,.29,0,.54,0,.78s.07.46-.09.66a3,3,0,0,1-.23,1,8.7,8.7,0,0,1-.38,1c-.13.39-.35.73-.5,1.1a2.07,2.07,0,0,1-.48.64,1,1,0,0,1-.18-.26,5,5,0,0,1-.1-.66,4.85,4.85,0,0,1,0-.66,4.45,4.45,0,0,1,.71-2.23,5,5,0,0,1,1-1.24A1.07,1.07,0,0,1,13.48,10.35Z" transform="translate(-5.39 -2.24)"/>
    <path class="cls-1" d="M11.75,11.58a1.26,1.26,0,0,1-.08-.95c.09-.28.08-.6.2-.9a4.16,4.16,0,0,1,.65-1.14c.07-.09.13-.2.21-.29a4.27,4.27,0,0,1,1.33-1.06.5.5,0,0,1,.13,0h.18c.14.27,0,.5-.09.73s-.22.47-.32.71A7.32,7.32,0,0,1,13.15,10a7.55,7.55,0,0,1-1.25,1.46Z" transform="translate(-5.39 -2.24)"/>
    <path class="cls-1" d="M35.23,7.15c.39-.13.61.14.84.3a4.18,4.18,0,0,1,1.35,1.44A2.88,2.88,0,0,1,38,10.4a3.89,3.89,0,0,0,.09.47.78.78,0,0,1-.15.58l-.21-.14A10.78,10.78,0,0,1,36,9.06a12.76,12.76,0,0,1-.68-1.45C35.22,7.45,35.27,7.31,35.23,7.15Z" transform="translate(-5.39 -2.24)"/>
    <path class="cls-1" d="M38.33,9H38a7,7,0,0,1-1.92-4.17c.29-.17.37.18.58.19a5.9,5.9,0,0,1,1,1.3c.13.24.25.49.37.74a2.55,2.55,0,0,1,.29,1.15C38.33,8.45,38.33,8.7,38.33,9Z" transform="translate(-5.39 -2.24)"/>
    <path class="cls-1" d="M13.57,4.82a3.45,3.45,0,0,1-.19,1.12,7.64,7.64,0,0,1-.65,1.7,7.9,7.9,0,0,1-.93,1.3.41.41,0,0,1-.45.13A4,4,0,0,1,12.22,6,2.67,2.67,0,0,1,13.57,4.82Z" transform="translate(-5.39 -2.24)"/>
    <path class="cls-1" d="M23.88,30.12v1.65H22a.08.08,0,0,1,0,0v-1.6Z" transform="translate(-5.39 -2.24)"/>
    <path class="cls-1" d="M32,9.14l0,0,0,0,0,0Z" transform="translate(-5.39 -2.24)"/>
  </g>
</svg>
