<svg id="Capa_1" enable-background="new 0 0 512 512" height="512" viewBox="0 0 512 512" width="512" xmlns="http://www.w3.org/2000/svg"><g><path d="m287.507 163.535c4.142 0 7.5-3.358 7.5-7.5v-2.24c0-4.142-3.358-7.5-7.5-7.5s-7.5 3.358-7.5 7.5v2.24c0 4.143 3.358 7.5 7.5 7.5z"/><path d="m481.025 237.682c6.648-9.807 10.537-21.633 10.537-34.35 0-34.142-28.017-61.86-62.251-61.339-32.317.492-59.014 26.498-60.329 58.791-.554 13.62 3.359 26.318 10.389 36.749-8.317 4.809-16.902 12.172-24.42 25.294-15.5-7.07-33.761-10.917-49.313-14.191-3.708-.78-7.286-1.534-10.631-2.289v-6.326c16.573-9.946 28.771-24.852 28.771-38.872 0-1.647-.142-3.135-.404-4.486.679-1.544 1.304-3.088 1.875-4.629 16.3-1.691 28.009-10.869 28.009-22.645l.057-16.613c0-8.372-6.681-14.929-15.21-14.929h-8.337l.02-17.838c.03-20.281-8.041-37.393-23.34-49.487-13.208-10.442-30.949-16.309-49.954-16.52-.056-.001-.111-.001-.167 0-19.005.211-36.746 6.078-49.954 16.52-15.299 12.094-23.37 29.206-23.34 49.476v17.849h-8.346c-8.529 0-15.21 6.558-15.21 14.955l.057 16.586c.037 11.778 11.743 20.941 28.007 22.641.573 1.547 1.201 3.095 1.882 4.645-.262 1.35-.409 2.83-.409 4.476 0 14.017 12.198 28.919 28.772 38.865v6.333c-3.345.755-6.923 1.509-10.631 2.289-15.763 3.319-34.308 7.226-49.941 14.482-7.569-13.302-16.22-20.725-24.593-25.573 7.037-10.436 10.954-23.143 10.397-36.771-1.32-32.302-28.036-58.307-60.361-58.782-34.236-.504-62.247 27.207-62.247 61.338 0 12.722 3.894 24.551 10.549 34.36-19.07 11.758-30.959 32.595-30.959 55.383v33.714c0 12.551 10.175 22.726 22.726 22.726h67.458c4.107 0 7.688-3.164 7.811-7.269.128-4.247-3.278-7.731-7.497-7.731h-67.776c-4.265 0-7.722-3.457-7.722-7.722v-33.718c0-18.392 10.082-35.131 26.05-43.897 2.998 2.666 6.259 5.038 9.738 7.082l25.25 53.351c1.241 2.621 3.881 4.292 6.779 4.292h.031c2.903 0 5.542-1.686 6.761-4.32l25.339-54.716c2.672-1.728 5.203-3.653 7.569-5.763 7.117 3.597 14.732 9.209 21.675 21.451-10.636 7.537-18.372 17.701-20.349 31.882l-10.79 67.846c-.062.387-.093.779-.093 1.171v34.05c0 10.91 8.86 19.78 19.75 19.78h59.41c7.4 0 14.2-2.64 19.5-7.04l35.2 34.89c2.47 2.47 5.747 4.768 9.366 4.867 3.659.1 7.374-2.291 9.814-4.867l34.54-34.25c5.18 4.01 11.67 6.4 18.72 6.4h59.38c10.9 0 19.78-8.87 19.78-19.78v-34.05c0-.065-.037-.754-.075-1.03l-9.382-67.907c-1.994-14.476-9.98-24.773-20.929-32.363 6.868-11.968 14.396-17.506 21.438-21.061 2.369 2.115 4.905 4.043 7.581 5.774l25.339 54.716c1.22 2.634 3.859 4.32 6.761 4.32h.031c2.898 0 5.539-1.67 6.779-4.292l25.255-53.362c3.473-2.042 6.728-4.414 9.721-7.077 15.974 8.764 26.061 25.506 26.061 43.903v33.714c0 4.26-3.477 7.726-7.75 7.726h-67.462c-4.107 0-7.688 3.164-7.811 7.269-.128 4.247 3.278 7.731 7.497 7.731h67.776c12.544 0 22.75-10.195 22.75-22.726v-33.714c0-22.795-11.896-43.636-30.975-55.392zm-151.265-69.567v-15.269h8.346c.092 0 .162.014.209.03l-.056 16.486c0 2.142-3.383 5.021-9.008 6.662.337-2.654.509-5.292.509-7.909zm-155.226 1.222-.056-16.461c.047-.016.117-.03.209-.03h8.346v15.269c0 2.613.171 5.248.507 7.898-5.615-1.648-8.999-4.53-9.006-6.676zm-91.791 119.376-11.839-25.014c3.52.631 7.137.978 10.835.978 4.374 0 8.639-.469 12.757-1.344zm45.137-81.14c-1.977 22.124-19.788 39.943-41.912 41.915-28.867 2.574-52.949-21.521-50.368-50.399 1.977-22.124 19.787-39.943 41.912-41.916 28.866-2.573 52.949 21.522 50.368 50.4zm70.154-87.588c-.051-34.549 30.209-50.64 58.377-50.984 28.168.344 58.428 16.435 58.377 50.987l-.009 7.83c-14.25-9.533-35.186-15.208-58.235-15.208-.09 0-.178 0-.267 0-23.052 0-43.992 5.671-58.244 15.197v-7.822zm2.617 64.029c-.147-.46-.281-.923-.422-1.385-1.448-4.947-2.195-9.803-2.195-14.514v-20.367c9.398-12.141 32.393-20.164 58.37-20.138.045-.001.093 0 .141 0 25.88 0 48.832 8.017 58.215 20.138v20.367c0 5.149-.887 10.47-2.616 15.896-2.333-1.045-4.747-1.902-7.139-2.8-20.672-7.886-34.742-11.125-48.563-11.183-.021 0-.041 0-.062 0-13.841.057-27.919 3.297-48.573 11.176-2.399.9-4.817 1.762-7.156 2.81zm3.364 17.134c0-.016 0-.032 0-.047.004-1.332.779-2.538 1.971-3.13 2.659-1.322 7.149-2.745 7.149-2.745 18.844-7.188 31.385-10.143 43.277-10.197 11.872.054 24.405 3.01 43.267 10.204 2.255.847 4.574 1.628 6.674 2.821 1.215.69 2.427 1.573 2.427 3.094 0 12.884-25.869 35.25-52.368 35.458-26.515-.208-52.397-22.574-52.397-35.458zm75.992 46.009v5.115c0 6.659-2.227 11.878-6.618 15.512-4.035 3.34-9.702 5.179-15.955 5.179-9.908 0-24.648-5.51-24.648-20.691v-5.121c7.672 2.77 15.716 4.401 23.574 4.454h.051s.034 0 .051 0c7.848-.053 15.882-1.682 23.545-4.448zm-69.761 16.157c2.999-.631 5.915-1.245 8.718-1.862 4.588 17.282 21.968 26.511 38.471 26.511 9.737 0 18.8-3.062 25.519-8.624 5.607-4.64 9.323-10.718 11.009-17.859 2.763.607 5.633 1.212 8.586 1.833 2.133.449 4.305.908 6.498 1.378l-38.365 51.13c-5.208 2.483-10.066 5.715-14.281 9.499-4.22-3.784-9.079-7.015-14.287-9.498l-38.366-51.13c2.192-.471 4.364-.929 6.498-1.378zm-71.578 41.402c.008-.052.016-.103.023-.155 2.823-20.494 25.231-29.983 49.092-36.152l31.535 42.026c-10.543.028-20.968 3.727-29.447 12.505-10.82 11.22-15.67 26.32-14.55 41.01h-46.073zm62.202 102.874c-2.5 1.7-5.51 2.69-8.75 2.69h-59.41c-2.62 0-4.75-2.14-4.75-4.78v-26.55h64.16c1.11 0 2.19.12 3.23.34 6.63 1.4 11.73 7.02 12.34 13.93.04.46.06.92.06 1.39 0 5.4-2.73 10.16-6.88 12.98zm87.732-13.323c-.05 4.525.885 8.845 2.608 12.733l-34.8 34.52-35.85-35.53c1.41-3.52 2.19-7.36 2.19-11.38 0-16.91-13.74-30.66-30.63-30.66h-1.79c-1.16-10.9 2.29-22.24 10.33-30.59 12.79-13.24 33.15-8.22 45.84 3.24.86.76 1.54 1.42 2.11 1.95 2.09 1.98 4.24 4.02 7.8 4.02 3.54 0 5.67-2.03 7.74-3.99.57-.54 1.27-1.2 2.16-2 12.68-11.44 33.04-16.46 45.82-3.23 8.05 8.35 11.5 19.69 10.34 30.6h-2.578c-16.905 0-31.105 13.414-31.29 30.317zm94.818 11.233c0 2.629-2.151 4.78-4.78 4.78h-59.38c-2.88 0-5.57-.78-7.89-2.14-4.62-2.7-7.73-7.71-7.77-13.43v-.1c0-8.08 6.13-14.74 13.99-15.57.55-.06 1.11-.09 1.67-.09h64.16zm-9.316-100.936 8.205 59.387h-44.829c1.11-14.69-3.74-29.79-14.56-41.01-8.477-8.78-18.902-12.478-29.443-12.506l31.534-42.025c23.861 6.168 46.269 15.657 49.093 36.154zm55.153-15.851-11.753-25.38c4.117.875 8.383 1.344 12.757 1.344 3.699 0 7.316-.348 10.836-.979zm1.003-39.036c-26.717 0-48.224-22.739-46.198-49.886 1.691-22.65 19.957-40.95 42.606-42.669 27.146-2.06 49.894 19.466 49.894 46.21 0 25.555-20.771 46.345-46.302 46.345z"/><path d="m225.287 163.535c4.142 0 7.5-3.358 7.5-7.5v-2.24c0-4.142-3.358-7.5-7.5-7.5s-7.5 3.358-7.5 7.5v2.24c0 4.143 3.358 7.5 7.5 7.5z"/></g></svg>