<?xml version="1.0" encoding="utf-8"?>
<!-- Generator: Adobe Illustrator 23.0.0, SVG Export Plug-In . SVG Version: 6.00 Build 0)  -->
<svg version="1.1" xmlns="http://www.w3.org/2000/svg" xmlns:xlink="http://www.w3.org/1999/xlink" x="0px" y="0px"
	 viewBox="0 0 500 500" style="enable-background:new 0 0 500 500;" xml:space="preserve">
<style type="text/css">
	.st0{display:none;}
	.st1{display:inline;}
	.st2{fill:#FFFFFF;}
	.st3{fill:#FF8B66;}
	.st4{fill:#CFD8DC;}
	.st5{fill:#ADBEC4;}
	.st6{fill:#0C476B;}
	.st7{fill:#0E3944;}
	.st8{fill:#F2A668;}
	.st9{fill:#BADBD1;}
	.st10{fill:#F24052;}
	.st11{fill:#EF6E4B;}
	.st12{fill:#DB614D;}
	.st13{fill:#1A4850;}
	.st14{fill:#FFB878;}
	.st15{fill:#205260;}
	.st16{fill:#8B383E;}
	.st17{fill:#662C33;}
	.st18{fill:#8BBDDB;}
	.st19{fill:#105E99;}
	.st20{fill:#6097B2;}
	.st21{fill:#07262D;}
	.st22{fill:#FFFFFF;stroke:#000000;stroke-miterlimit:10;}
</style>
<g id="BACKGROUND" class="st0">
	<g class="st1">
		<rect y="0" class="st2" width="500" height="500"/>
	</g>
</g>
<g id="OBJECTS">
	<g>
		<path class="st3" d="M59.5,338.4c0,0,15,40,15.9,52.7c0,0,3.8,3,10.2,0.3c0,0,0.2-38.3-6.1-50.1C73.2,329.5,59.5,338.4,59.5,338.4
			z"/>
		<g>
			<path class="st4" d="M56.2,408.7h31.6c1.3-5-0.7-9.2-0.7-9.2s1.4-5.5,0.8-7.3c-0.5-1.8-7-4-8.8-2.1c-1.2,1.3-1.3,3-1.2,3.9
				c-0.9-5-3.2-5.4-5.4-3.5c-2.3,2,0.5,1,0.1,4.3c0,0.2-0.1,0.5-0.2,0.7c-0.2,0.5-0.5,0.9-0.9,1.3c-0.3,0.3-0.8,0.7-1.3,0.9
				c-0.2,0.2-0.5,0.3-0.8,0.4c-0.5,0.2-1.1,0.4-1.7,0.6c-0.9,0.3-1.9,0.5-3,0.6c-4.3,0.4-6.1,0.7-8.1,3c-2,2.2-0.7,4-0.7,4
				L56.2,408.7z"/>
			<g>
				<path class="st5" d="M72.5,395.5c-0.2,0.5-0.5,0.9-0.9,1.3c2.8-1.1,4.4,0.9,4.4,0.9l0.8-1C74.8,394.2,72.7,395.4,72.5,395.5z"/>
				<path class="st5" d="M73.1,400l1.1-0.7c-0.6-1.8-1.8-2.4-2.6-2.5c-0.3,0.3-0.8,0.7-1.3,0.9C72.5,398.1,73.1,400,73.1,400z"/>
				<path class="st5" d="M70.1,401.2l1.2-0.6c-0.3-1.4-1-2.1-1.7-2.5c-0.5,0.2-1.1,0.4-1.7,0.6C69.7,399.4,70.1,401.2,70.1,401.2z"
					/>
			</g>
		</g>
		<path class="st4" d="M124,401.1c0.9-0.5,1.7-1.5,2.4-2.7c0,0,0.6-3.7,0-7.7c-0.6-3.9,1.1-7.1,6.6-8.3c5.4-1.2,8.6,1.4,7.4,12.3
			c0,0,0,0,0,0c0.8,4.5,1,9.7-0.9,14h-16.6C122.9,408.7,120.3,403.1,124,401.1z"/>
		<path class="st3" d="M109.5,342.6c0,0,0,10.8,6.1,21.9c6.2,11.3,13.9,26.8,13.9,26.8s5.1,5,8.4-3.3c0,0-2.3-28.8-7.6-39.4
			C125,338.2,109.5,342.6,109.5,342.6z"/>
		<g>
			<path class="st4" d="M136.7,392.4c0,0,1.5-3.1,0.2-4.5c-1.4-1.3-3,1.2-5.3,0.6c-2.3-0.6-2.9-2.2-3.5,0
				C127.4,390.8,128.2,398,136.7,392.4z"/>
			<path class="st5" d="M127.9,392.3c0,0,6.3,2.2,9.5,0l-0.8,2.7c0,0-6.8,0.7-7.8-1L127.9,392.3z"/>
			<path class="st5" d="M128,395.6c0,0,5.8-0.8,8.5,0.6v1.3c0,0-7.5-1.8-9.9,0L128,395.6z"/>
			<path class="st5" d="M136.8,400.4c0,0-1.1-2.7-4.6-2.9c-3.5-0.2-5.9,1.7-5.9,1.7S131.8,397,136.8,400.4z"/>
		</g>
		<g>
			<g>
				<path class="st6" d="M135.2,339.8c0,0-0.6,1.4-1.9,3.1c-0.1,0.2-0.3,0.4-0.5,0.6c-3.5,4.3-11.1,10-25,4.4c0,0-0.3-0.8-0.8-2.1
					c-0.1-0.2-0.2-0.5-0.3-0.7c-0.9-2.3-2-5.5-2.5-8.3c-3.6-20.2-5-34.8-6.9-43.1C92,306.6,80,331.6,79.5,332.7
					c-0.7,1.3,2,9.9,2,9.9c-10,3.3-24.3-0.9-24.3-0.9s-4.3-12.7-5-21.8c-0.5-6.9,17-45.8,25.2-63.6c0.2-0.5,0.4-0.9,0.6-1.3
					c2.2-4.7,3.5-7.6,3.5-7.6l14,4.7l34,15.3c0,0,0.6,0.7,1.2,7.7c0,0.2,0,0.4,0,0.6c0.3,4.2,0.6,10.4,0.8,19.8v0.6
					c0,2,0.1,4.2,0.1,6.6v0.6c0,5.4,0.1,11.6,0,18.7c0,0.2,0,0.4,0,0.6c0,2.2,0,4.5-0.1,6.9c0,2.2,1.7,6.3,2.8,8.7
					c0.1,0.2,0.2,0.4,0.3,0.6C134.9,339.3,135.2,339.8,135.2,339.8z"/>
			</g>
			<g>
				<path class="st7" d="M133.3,342.9c-0.1,0.2-0.3,0.4-0.5,0.6c-1.6-2.6-4-7.1-4.5-10.2c-0.8-4.4-1.2-21.8,0-40.1
					c1.2-17.7-2.7-35.1-2.8-35.3l0.7-0.2c0,0.2,4,17.7,2.8,35.5c-1.2,18.2-0.8,35.5,0,39.9C129.5,336,131.8,340.3,133.3,342.9z"/>
			</g>
			<g>
				<path class="st7" d="M128,273.2c-10.9-3.9-13.6-12.8-13.7-12.9l0.7-0.2c0,0.1,2.7,8.6,13.2,12.4L128,273.2z"/>
			</g>
			<g>
				<path class="st7" d="M87.9,253.3c-0.2,0.2-0.6,0.2-1.6,0.3c-2.1,0.1-5.9,0.4-9,2.8c0.2-0.5,0.4-0.9,0.6-1.3c3-1.8,6.4-2,8.3-2.2
					c0.5,0,1.1-0.1,1.2-0.1L87.9,253.3z"/>
			</g>
			<g>
				<path class="st7" d="M97,293.9c-7.9-15.8,2.3-36.9,2.4-37.1l0.7,0.3c-0.1,0.2-10.2,21.1-2.4,36.5L97,293.9z"/>
			</g>
			<g>
				<path class="st7" d="M95.4,278.5c-0.7,0-1.2-0.2-1.2-0.2l0.2-0.7c0,0,1.5,0.5,2.8-0.4c1.1-0.7,1.9-2.2,2.1-4.4
					c0.8-6.7,5.9-14.9,6.1-15.2l0.6,0.4c-0.1,0.1-5.2,8.4-6,14.9c-0.3,2.4-1.1,4.1-2.5,5C96.9,278.4,96,278.5,95.4,278.5z"/>
			</g>
		</g>
		<path class="st8" d="M57.4,104.9c0,0,1.2-2.8,6.5-2.8c4,0,5.6,2.2,5.6,2.2c2.4,7,5,34,5.9,34.9c0.5,0.5,30.5,23.4,30.5,23.4
			C89.6,162.9,89,189.8,89,189.8c-0.5-6.6-23.1-23.1-28.8-33.9C54.8,145.9,52.2,121.3,57.4,104.9z"/>
		<g>
			<path class="st9" d="M154.4,201c-2.5,27.1-12.3,53.4-15.7,64.3c-0.7,2.4-1.2,3.7-1.2,3.7s-53.2-6.9-59.5-21.3
				c0,0,0.1-0.4,0.3-1.1c1.6-6.5,9.4-33,10.3-54.7c1-24.1,9.1-32.6,14-31.5c0,0,11,8.7,18.1,8.7c7,0,23.9-7.7,23.9-7.7
				S157.4,168,154.4,201z"/>
		</g>
		<circle class="st10" cx="120.8" cy="155.9" r="3.2"/>
		<path class="st8" d="M186.6,106.8c0,0-1.2-2.8-6.5-2.8c-4,0-5.6,2.2-5.6,2.2c-2.4,7-5,34-5.9,34.9c-0.5,0.5-30.5,23.4-30.5,23.4
			c-0.7,18.8,16.8,27.2,16.8,27.2c0.5-6.6,23.1-23.1,28.8-33.9C189.2,147.8,191.7,123.2,186.6,106.8z"/>
		<path class="st8" d="M114.1,168.6c0,0-2.9,1.2-3.5,2.4c-0.6,1.3,1.6,6.5,5.9,6.9c4.3,0.4,12.5-4.6,12.1-6.2
			C128.3,170.2,122.2,168.1,114.1,168.6z"/>
		<path class="st11" d="M113.6,162.6c0,0,1.6,6.6-0.8,9.2c0,0,4,6.4,13-0.1c0,0-1.7-4.3,0-7.2L113.6,162.6z"/>
		<g>
			<path class="st10" d="M139.2,144.6c0-1.6-1.1-2.9-2.6-3.2c0.6-0.6,0.9-1.4,0.9-2.3c0-1.8-1.4-3.2-3.2-3.2
				c0.3-0.5,0.5-1.1,0.5-1.8c0-1.8-1.5-3.3-3.3-3.3c-0.8,0-1.5,0.3-2,0.7c0-1.8-1.5-3.2-3.3-3.2c-1.1,0-2.1,0.6-2.7,1.5
				c-0.4-1.3-1.6-2.2-3.1-2.2c-1.2,0-2.3,0.7-2.8,1.6c-0.6-0.6-1.4-0.9-2.2-0.9c-1.7,0-3.1,1.3-3.2,3c-0.5-0.3-1.1-0.5-1.7-0.5
				c-1.8,0-3.3,1.5-3.3,3.3c0,0.3,0,0.5,0.1,0.8c0,0-0.1,0-0.1,0c-1.8,0-3.3,1.5-3.3,3.3c0,0.9,0.4,1.7,0.9,2.3
				c-1.5,0.3-2.6,1.6-2.6,3.2c0,1.4,0.9,2.6,2.1,3c-0.8,0.6-1.4,1.5-1.4,2.6c0,1.7,1.2,3,2.8,3.2c0.9,3,2.9,4.1,2.9,4.1
				c1.5,1.4,13.5,2.7,19.2,2.2c0.6,0.6,1.4,1,2.3,1c1.8,0,3.3-1.5,3.3-3.3c0,0,0,0,0,0c1.6-0.2,2.9-1.5,2.9-3.2
				c0-0.3-0.1-0.6-0.1-0.9c1.2-0.5,2-1.6,2-3c0-0.8-0.3-1.5-0.8-2.1C138.6,146.7,139.2,145.8,139.2,144.6z"/>
			<path class="st3" d="M131.3,150.7c0,0,3.4-3.4,3.8,0.6c0.5,4.6-3.7,6.4-4.5,5C129.8,154.8,131.3,150.7,131.3,150.7z"/>
			<path class="st3" d="M107.6,151c0,0-3.4-3.4-3.8,0.6c-0.5,4.6,3.7,6.4,4.5,5C109.1,155.1,107.6,151,107.6,151z"/>
			<path class="st3" d="M119.8,167.4c7.5,0,11.8-4.9,11.8-19.7c0-7.6-3.9-12.3-12.3-12.3c-8.4,0-12,4.7-12,12.3
				C107.3,163.5,112,167.4,119.8,167.4z"/>
			<path class="st12" d="M109.8,152.9c-0.1,0.8,0.5,1.5,1.5,1.7c0.9,0.2,1.8-0.3,2-1.1c0.1-0.8-0.5-1.5-1.5-1.7
				C110.8,151.7,109.9,152.2,109.8,152.9z"/>
			<path class="st12" d="M125.3,153.4c0.1,0.8,0.9,1.3,1.8,1.3c1-0.1,1.7-0.7,1.6-1.5c-0.1-0.8-0.9-1.3-1.8-1.3
				C126,151.9,125.2,152.6,125.3,153.4z"/>
			<g>
				<path class="st10" d="M113.1,145c0.1,0,0.2,0,0.3-0.1c1.2-0.9,3-0.6,3-0.6c0.2,0,0.4-0.1,0.4-0.3c0-0.2-0.1-0.4-0.3-0.4
					c-0.1,0-2.2-0.4-3.6,0.7c-0.2,0.1-0.2,0.4-0.1,0.5C112.9,145,113,145,113.1,145z"/>
			</g>
			<g>
				<path class="st10" d="M127.5,145.1c0.1,0,0.2-0.1,0.2-0.1c0.1-0.2,0.1-0.4-0.1-0.5c-1.4-1.2-3.5-0.9-3.6-0.8
					c-0.2,0-0.3,0.2-0.3,0.4c0,0.2,0.2,0.3,0.4,0.3c0,0,1.8-0.3,3,0.7C127.3,145.1,127.4,145.1,127.5,145.1z"/>
			</g>
			<path class="st13" d="M113.9,149.3c0,0.9,0.4,1.7,0.9,1.7c0.5,0,0.9-0.8,0.9-1.7c0-0.9-0.4-1.7-0.9-1.7
				C114.3,147.6,113.9,148.3,113.9,149.3z"/>
			<path class="st13" d="M123.9,149.3c0,0.9,0.4,1.7,0.9,1.7c0.5,0,0.9-0.8,0.9-1.7c0-0.9-0.4-1.7-0.9-1.7
				C124.4,147.6,123.9,148.3,123.9,149.3z"/>
			<path class="st10" d="M128.2,139c0,0-5.2-0.4-16.8-1.2c0,0-4.2,4.4-3.9,15.2c0,0-6.7-19.5,12.9-19.5c19.7,0,10.8,19,10.8,19
				S131.9,142.6,128.2,139z"/>
			<g>
				<path class="st12" d="M119.3,154.3l0.6-0.6l-1.5-1.5c1.4-2,1.4-6.8,1.4-7l-0.8,0c0,0.1,0,5.1-1.5,6.7l-0.3,0.3L119.3,154.3z"/>
			</g>
			<path class="st13" d="M124.3,156.8c0,0-7.4,0.3-11.2-0.7c0,0-0.7,5.4,5.1,5.7C124.3,162,124.3,156.8,124.3,156.8z"/>
		</g>
		<path class="st14" d="M64.3,101.3c0,0-5.6,0.3-5.6,2c0,1.8,0,3.9,4.7,3.7s4.7-2.1,4.8-3.8C68.3,101.5,65.9,101.2,64.3,101.3z"/>
		<path class="st14" d="M181.6,102.4c0,0-5.6,0-5.7,1.8c-0.1,1.8-0.2,3.9,4.5,3.9c4.7,0,4.8-1.8,5-3.6
			C185.5,102.7,183.1,102.3,181.6,102.4z"/>
		<g>
			<path class="st3" d="M55.5,90.2c0.8,0.9,2.1,4.5,2.1,4.5c0.6,3,0.9,4.6,1.9,6c1,1.4,0.5,3.8,0.5,3.8s4,2.1,7.4-0.5
				c0,0-0.4-2.4,0-3.1c0.7-1.4,2.9-2.1,3.7-4.8c0.8-2.7,3.1-5.8,3.1-5.8s-0.7-1.4-1.9-0.6c-1.2,0.9-2,3.1-2.6,3.3
				c-0.1,0-0.3,0.1-0.4,0.1c0,0,0,0,0,0c-0.5,0.1-1,0-1.3-0.3c0,0-0.1,0-0.1-0.1c-1.1-1.3-1.4-5-1.3-6.7c0.1-2.3,0-5.6-1.4-5
				c-1.4,0.5-0.1,1.8-1.2,7L63.5,88c-0.1,0.4-1.1-3.1-1.3-6.4c-0.2-2.3-1.6-1.4-2-0.7c-0.3,0.7,0.2,3,0.3,4.6
				c0.1,1.1,0.2,2.2,0.2,2.9l-0.6,0.3c-2.2-3.9-1.5-5.5-2.8-5.6c-1.3-0.1-0.8,3.2-0.1,4.5c0.3,0.5,0.6,1.7,0.8,2.8
				c-2.3-2.7-2-4-3.1-3.9C53.8,86.6,54.7,89.3,55.5,90.2z"/>
			<path class="st11" d="M65.5,96.3c0.8-2.1,3.6-3.1,3.9-3.2c-0.5,0.1-1,0-1.3-0.3C65.3,93.9,65.5,96.3,65.5,96.3z"/>
		</g>
		<g>
			<path class="st3" d="M188.6,90.9c-0.8,0.9-2.1,4.5-2.1,4.5c-0.6,3-0.9,4.6-1.9,6c-1,1.4-0.5,3.8-0.5,3.8s-4,2.1-7.4-0.5
				c0,0,0.4-2.4,0-3.1c-0.7-1.4-2.9-2.1-3.7-4.8c-0.8-2.7-3.1-5.8-3.1-5.8s0.7-1.4,1.9-0.6c1.2,0.9,2,3.1,2.6,3.3
				c0.1,0,0.3,0.1,0.4,0.1c0,0,0,0,0,0c0.5,0.1,1,0,1.3-0.3c0,0,0.1,0,0.1-0.1c1.1-1.3,1.4-5,1.3-6.7c-0.1-2.3,0-5.6,1.4-5
				c1.4,0.5,0.1,1.8,1.2,7l0.5,0.1c0.1,0.4,1.1-3.1,1.3-6.4c0.2-2.3,1.6-1.4,2-0.7c0.3,0.7-0.2,3-0.3,4.6c-0.1,1.1-0.2,2.2-0.2,2.9
				l0.6,0.3c2.2-3.9,1.5-5.5,2.8-5.6c1.3-0.1,0.8,3.2,0.1,4.5c-0.3,0.5-0.6,1.7-0.8,2.8c2.3-2.7,2-4,3.1-3.9
				C190.4,87.4,189.4,90,188.6,90.9z"/>
			<path class="st11" d="M178.7,97c-0.8-2.1-3.6-3.1-3.9-3.2c0.5,0.1,1,0,1.3-0.3C178.8,94.7,178.7,97,178.7,97z"/>
		</g>
		<g>
			<path class="st8" d="M138.8,265.3c-0.7,2.4-1.2,3.7-1.2,3.7s-53.2-6.9-59.5-21.3c0,0,0.1-0.4,0.3-1.1
				C81.7,252.2,122.5,265.8,138.8,265.3z"/>
		</g>
	</g>
	<g>
		<g>
			<path class="st7" d="M331.8,409.4h25.9c1.8-10.3-1.1-20.6-1.1-20.6l-11.8-2c-1.1,6.5-2.4,9.1-4.2,10.4c0,0,0,0,0,0
				c-1.3,1-2.9,1.3-4.8,1.9c-2.2,0.8-3.4,2.2-4,3.7C330.6,405.9,331.8,409.4,331.8,409.4z"/>
			<path class="st15" d="M331.7,402.8c6.4,0.8,20.4,2.2,19.6-1.5c-0.7-3.1-6.6-3.9-10.7-4.1c0,0,0,0,0,0c-1.3,1-2.9,1.3-4.8,1.9
				C333.5,399.9,332.3,401.3,331.7,402.8z"/>
		</g>
		<g>
			<path class="st7" d="M418.5,409.4h25.9c0,0,0.8-2.4,0.4-5c-0.3-2.1-1.4-4.3-4.4-5.3c-2.2-0.8-4-1.1-5.4-2.4
				c-1.5-1.4-2.7-4.1-3.6-9.9l-11.8,2C419.6,388.8,416.7,399.1,418.5,409.4z"/>
			<path class="st15" d="M444.8,404.4c-0.3-2.1-1.4-4.3-4.4-5.3c-2.2-0.8-4-1.1-5.4-2.4c-3.3,1-7.9,2.9-9.3,5.7
				C423.8,406.3,438.9,405.6,444.8,404.4z"/>
		</g>
		<g>
			<g>
				<path class="st16" d="M433.3,388.5c0,0-2,6.4-14.9,2c0,0-9.6-72-11.1-73.5c-1.5-1.6-16.7-48.6-16.7-48.6h-4.8
					c0,0-15.2,47-16.7,48.6c-1.5,1.6-11,73.5-11,73.5c-12.9,4.4-14.9-2-14.9-2l6.2-77.6l12.9-80l25.9,2.9l25.9-2.9l3.4,20.9l0.1,0.8
					l9.4,58.3L433.3,388.5z"/>
			</g>
			<g>
				<path class="st17" d="M417.7,252.7c-8.9-2.3-11.6-10.3-11.6-10.4l0.7-0.2c0,0.1,2.5,7.5,10.8,9.8L417.7,252.7z"/>
				<path class="st17" d="M390.1,261.3c-0.7,0.7-1.6,1.1-2.6,1.1c0,1.9,0,4-0.1,6h-0.8c0.4-8.4-0.5-16.9-0.5-17.1l0.7-0.1
					c0,0.1,0.5,4.6,0.6,10.4c0.9,0,1.5-0.3,2.1-0.8c2.5-2.6,1-10.1,1-10.2l0.7-0.1C391.3,250.8,392.8,258.4,390.1,261.3z"/>
			</g>
		</g>
		<g>
			<path class="st3" d="M459.8,90.3c-1.2,0.2-4.4,2.3-4.4,2.3c-2.2,2-3.5,3.2-5.1,3.6c-1.6,0.5-1.8,3.5-1.8,3.5s-6.3,2.7-7.5-1.4
				c0,0,2.7-5.9,2.8-6.7c0.3-1.5-1.1-3.4-0.1-6.1c1-2.7,1-6.5,1-6.5s1.4-0.7,1.8,0.7c0.4,1.4-0.3,3.6,0.1,4.2
				c0.1,0.1,0.2,0.2,0.3,0.3c0,0,0,0,0,0c0.4,0.4,0.8,0.6,1.3,0.5c0,0,0.1,0,0.1,0c1.6-0.4,4.1-3.2,5.1-4.6c1.4-1.9,3.4-4.4,4.2-3.1
				c0.8,1.3-1,1.5-3.2,6.3l0.4,0.4c-0.1,0.4,2.7-1.8,4.9-4.3c1.5-1.7,2.2-0.1,2,0.6c-0.2,0.8-1.9,2.3-3,3.5
				c-0.7,0.8-1.5,1.7-1.9,2.2l0.3,0.6c4.1-1.8,4.5-3.5,5.6-2.8c1.1,0.7-1.3,3.1-2.6,3.7c-0.6,0.3-1.5,1-2.3,1.7
				c3.4-0.7,4.1-2,4.8-1.2C463.3,88.5,461,90,459.8,90.3z"/>
			<path class="st11" d="M448.2,89.2c0.7-2.2-1-4.6-1.2-4.9c0.4,0.4,0.8,0.6,1.3,0.5C449.7,87.4,448.2,89.2,448.2,89.2z"/>
		</g>
		<g>
			<path class="st3" d="M265.6,122.7c1.2,0.1,4.6,1.8,4.6,1.8c2.4,1.8,3.8,2.8,5.5,3c1.7,0.3,2.2,3.3,2.2,3.3s6.6,2,7.3-2.2
				c0,0-3.3-5.6-3.5-6.3c-0.4-1.5,0.7-3.5-0.6-6c-1.3-2.5-1.7-6.3-1.7-6.3s-1.5-0.6-1.7,0.9c-0.3,1.5,0.7,3.6,0.3,4.2
				c-0.1,0.1-0.1,0.2-0.2,0.3c0,0,0,0,0,0c-0.3,0.4-0.8,0.7-1.2,0.7c0,0-0.1,0-0.1,0c-1.7-0.2-4.4-2.7-5.6-4c-1.6-1.7-3.8-4-4.5-2.7
				c-0.7,1.4,1.2,1.4,3.9,5.9l-0.3,0.4c0.2,0.3-2.9-1.5-5.3-3.8c-1.7-1.5-2.2,0.1-1.9,0.8c0.2,0.7,2.1,2,3.3,3.2
				c0.8,0.7,1.6,1.5,2.1,1.9l-0.2,0.7c-4.3-1.3-4.9-3-5.9-2.2c-1,0.8,1.6,2.9,3,3.3c0.6,0.2,1.6,0.8,2.5,1.5
				c-3.5-0.4-4.3-1.5-4.9-0.7C261.8,121.3,264.3,122.6,265.6,122.7z"/>
			<path class="st11" d="M277,120.3c-0.9-2.1,0.4-4.7,0.6-5c-0.3,0.4-0.8,0.7-1.2,0.7C275.3,118.7,277,120.3,277,120.3z"/>
		</g>
		<g>
			<g>
				<path class="st9" d="M450.2,100.9c0,0-0.7,2.5-1.8,6.3c-0.5,1.6-1,3.3-1.6,5.2c-0.9,3-1.9,6.2-3,9.5c-0.6,1.8-1.2,3.5-1.8,5.2
					c-1.6,4.3-3.2,8.3-4.7,11.1c-0.2,0.4-0.4,0.8-0.6,1.1c-0.6,1-1.4,2.1-2.5,3.3c-1.7,2-4,4.3-6.7,6.7c-1.3,1.2-2.7,2.4-4.1,3.7
					c-2.3,2-4.8,4.1-7.2,6.1c-1.5,1.3-3,2.5-4.5,3.6c-7.5,6-13.7,10.6-13.7,10.6l-11.2-22.8c3.2-2.2,9.1-5.8,15.2-9.5
					c1.4-0.9,2.9-1.8,4.4-2.6c2.3-1.3,4.5-2.6,6.5-3.9c1.6-0.9,3.1-1.8,4.5-2.6c1.9-1.1,3.5-2.1,4.7-2.8c1.2-0.7,2-1.1,2-1.1
					s0.5-1,1.4-2.6c1-1.9,2.5-4.8,4.1-8c0.7-1.4,1.5-2.9,2.3-4.4c1.3-2.4,2.6-4.9,3.9-7.3c0.8-1.5,1.6-3,2.4-4.4
					c2.1-3.9,3.9-7,4.9-8.2C443,93,448.7,94.9,450.2,100.9z"/>
			</g>
			<g>
				<path class="st18" d="M416.2,159.1c-1.5,1.3-3,2.5-4.5,3.6c-1.3-10.3-6.3-17.8-9.6-21.8c1.4-0.9,2.9-1.8,4.4-2.6
					C409.8,142.5,414.3,149.6,416.2,159.1z"/>
			</g>
			<g>
				<path class="st18" d="M427.5,149.4c-1.3,1.2-2.7,2.4-4.1,3.7c-2.6-9.9-7.4-15.7-10.5-18.6c1.6-0.9,3.1-1.8,4.5-2.6
					C420.6,135.2,424.8,140.8,427.5,149.4z"/>
			</g>
			<g>
				<path class="st18" d="M437.3,138.3c-0.2,0.4-0.4,0.8-0.6,1.1c-0.6,1-1.4,2.1-2.5,3.3c-4.3-6.9-9-11.1-12.2-13.6
					c1.2-0.7,2-1.1,2-1.1s0.5-1,1.4-2.6C428.6,127.9,433.1,132,437.3,138.3z"/>
			</g>
			<g>
				<path class="st18" d="M443.8,122c-0.6,1.8-1.2,3.5-1.8,5.2c-4.3-4.4-9.2-7.8-12.5-9.8c0.7-1.4,1.5-2.9,2.3-4.4
					C434.9,114.8,439.5,117.9,443.8,122z"/>
			</g>
			<g>
				<path class="st18" d="M448.4,107.3c-0.5,1.6-1,3.3-1.6,5.2c-3.8-3.5-8.3-5.7-11.2-6.9c0.8-1.5,1.6-3,2.4-4.4
					C440.9,102.4,444.7,104.4,448.4,107.3z"/>
			</g>
		</g>
		<g>
			<g>
				<path class="st9" d="M355.7,156.4l-2,25.4c0,0-7-1.9-15.8-4.5c-1.7-0.5-3.4-1.1-5.2-1.6c-3.1-1-6.3-2.1-9.4-3.1
					c-1.7-0.6-3.3-1.2-4.9-1.8c-3.7-1.4-7.1-2.8-9.7-4.2c-1.4-0.7-2.6-1.4-3.4-2.1c-0.3-0.2-0.6-0.5-0.9-0.8
					c-2.1-1.8-4.6-4.5-7.3-7.5c-1.1-1.3-2.3-2.6-3.4-4c-2.3-2.7-4.5-5.5-6.6-8.2c-1.1-1.4-2.2-2.8-3.1-4c-3.5-4.7-6-8.1-6-8.1
					c0.3-5.9,4.6-7.6,4.6-7.6c1.6,1,5.2,3.8,9.4,7.3c1.3,1,2.6,2.1,3.9,3.2c2.3,1.9,4.5,3.8,6.7,5.6c1.4,1.1,2.6,2.2,3.8,3.2
					c1.9,1.6,3.6,3.1,4.7,4c1.1,0.9,1.7,1.5,1.7,1.5s1.1,0.2,2.9,0.5c1.6,0.3,3.8,0.6,6.4,1c1.6,0.2,3.3,0.5,5,0.8
					c2.2,0.4,4.5,0.7,6.8,1.1c1.7,0.3,3.3,0.6,5,0.8C345.8,154.5,352.2,155.6,355.7,156.4z"/>
			</g>
			<g>
				<path class="st18" d="M337.9,177.2c-1.7-0.5-3.4-1.1-5.2-1.6c-0.9-9.8,0.1-17.7,1.4-23.1c1.7,0.3,3.3,0.6,5,0.8
					C337.8,158.6,336.7,166.9,337.9,177.2z"/>
			</g>
			<g>
				<path class="st18" d="M327.3,151.4c-1.6,4.4-3.7,11.8-4,21.1c-1.7-0.6-3.3-1.2-4.9-1.8c0.5-8.6,2.3-15.5,3.9-20.1
					C323.8,150.8,325.5,151.1,327.3,151.4z"/>
			</g>
			<g>
				<path class="st18" d="M315.8,149.6c-2.4,4.6-5.3,10.8-7.1,16.9c-1.4-0.7-2.6-1.4-3.4-2.1c-0.3-0.2-0.6-0.5-0.9-0.8
					c1.9-5.9,4.5-11.6,6.8-16c1.1,0.9,1.7,1.5,1.7,1.5S314,149.3,315.8,149.6z"/>
			</g>
			<g>
				<path class="st18" d="M306.4,143.6c-2.8,3.2-6.5,7.8-9.4,12.5c-1.1-1.3-2.3-2.6-3.4-4c2.9-4.6,6.3-8.7,9-11.8
					C304,141.5,305.2,142.6,306.4,143.6z"/>
			</g>
			<g>
				<path class="st18" d="M295.9,134.8c-2.6,2.4-6,5.7-8.9,9.2c-1.1-1.4-2.2-2.8-3.1-4c2.7-3.2,5.6-6.1,8.1-8.4
					C293.3,132.6,294.6,133.7,295.9,134.8z"/>
			</g>
		</g>
		<g>
			<path class="st9" d="M422.7,237c0,0-14,14.6-33,18.3c-16.7,3.2-31.7,3.2-31.7,3.2s-0.8-3.8-2.2-9.8c-0.3-1.5-0.7-3.2-1.1-5
				c-0.7-3.2-1.5-6.8-2.3-10.7c-0.4-1.6-0.7-3.3-1.1-5c-0.7-3.1-1.3-6.3-2-9.5c-0.3-1.7-0.7-3.3-1-5c-0.8-4.1-1.6-8.1-2.4-11.9
				c-0.3-1.7-0.7-3.4-1-5c-0.9-4.6-1.6-8.7-2.1-12.1c-0.3-2-0.5-3.7-0.7-5.1c0-0.5-0.1-1-0.1-1.4c-0.3-3.5-0.4-6.7-0.4-9.6
				c0-1.9,0-3.6,0-5.2c0.1-5.5,0.4-8.9,0.4-8.9c4-2.7,31.2,6,31.2,6s20.1-17.3,23.3-16.1c1.8,0.7,3.5,2.3,5.1,4.6
				c0.9,1.3,1.8,2.8,2.6,4.5c1.4,2.8,2.8,6.2,4.1,9.9c0.6,1.7,1.1,3.5,1.7,5.4c0.9,3.1,1.8,6.3,2.6,9.6c0.4,1.7,0.8,3.4,1.2,5.1
				c0.7,3.2,1.4,6.5,2.1,9.8c0.4,1.7,0.7,3.5,1,5.2c0.6,3,1.1,5.9,1.5,8.7c0.3,1.8,0.6,3.6,0.9,5.3c0.6,3.9,1.1,7.4,1.6,10.6
				c0.3,2,0.5,3.7,0.7,5.4C422.3,233.8,422.7,237,422.7,237z"/>
			<g>
				<path class="st18" d="M404.2,153.4c-6.1,6.2-16.8,15.3-29.1,17.8c-2.5,0.5-5.2,0.7-8.1,0.7c-8,0-17.2-1.6-25.3-3.5
					c0-1.9,0-3.6,0-5.2c10.8,2.6,23.8,4.8,32.5,3.1c11.6-2.3,22-11.7,27.5-17.4C402.5,150.2,403.4,151.7,404.2,153.4z"/>
			</g>
			<g>
				<path class="st18" d="M410,168.8c-6.2,5.8-21.8,16.7-51.4,16.7c-4.9,0-10.1-0.3-15.7-1c-0.3-2-0.5-3.7-0.7-5.1
					c43.2,5.4,61.9-11.5,66.1-16C408.9,165.1,409.4,166.9,410,168.8z"/>
			</g>
			<g>
				<path class="st18" d="M413.8,183.5c-12,6.8-36.6,18.2-65.6,18.2c-0.8,0-1.5,0-2.3,0c-0.3-1.7-0.7-3.4-1-5
					c30.1,0.9,56.2-11.7,67.6-18.2C413,180.1,413.4,181.8,413.8,183.5z"/>
			</g>
			<g>
				<path class="st18" d="M416.9,198.5c-10.4,5.7-37,18.5-67.5,20c-0.3-1.7-0.7-3.3-1-5c31.1-1.4,58.6-15.3,67.5-20.3
					C416.3,195,416.6,196.8,416.9,198.5z"/>
			</g>
			<g>
				<path class="st18" d="M419.3,212.5c-11.9,7-37.9,20-66.9,20.5c-0.4-1.6-0.7-3.3-1.1-5c29.4-0.3,56.4-14.4,67.1-20.8
					C418.8,209,419,210.8,419.3,212.5z"/>
			</g>
			<g>
				<path class="st18" d="M421.6,228.5c-12.3,6.9-39.5,20.3-64,20.3c-0.6,0-1.2,0-1.8,0c-0.3-1.5-0.7-3.2-1.1-5
					c25.1,1.2,54.9-14.1,66.2-20.5C421.2,225.1,421.4,226.9,421.6,228.5z"/>
			</g>
		</g>
		<path class="st11" d="M377,150.3c0,0-0.8,6.8,1.7,8.9c0,0-1.3,4.8-5,5.8c-4.3,1.1-6.8-3.5-6.8-3.5s1.1-6.6-1.6-8.3L377,150.3z"/>
		<g>
			<path class="st19" d="M380.3,135.9c0,0,2.6-4.5-3.7-11.6c0,0-3-6.8-13.3-8.4c-10.3-1.6-18,9.7-18,15.9c0,6.2,3.7,0,3.7,0
				s0.8,4.3,2,6.3c0,0-0.4,6.2,3.6,6.3C358.4,144.4,380.3,135.9,380.3,135.9z"/>
			<path class="st3" d="M356.5,143.4c0,0-4.1-2-3.3,1.7c1,4.3,5.3,4.7,5.6,3.1C359.1,146.7,356.5,143.4,356.5,143.4z"/>
			<path class="st3" d="M378.2,136.4c0,0,2-4.1,3.6-0.6c1.8,4-1.4,7-2.6,5.9C378,140.6,378.2,136.4,378.2,136.4z"/>
			<path class="st3" d="M372,155c-6.8,2.3-12.2-0.9-16.7-14.3c-2.3-6.9-0.2-12.3,7.4-14.9c7.7-2.6,12.3,0.6,14.6,7.5
				C382.2,147.7,379.1,152.6,372,155z"/>
			<path class="st12" d="M376.7,138.8c0.4,0.6,0,1.5-0.8,2c-0.8,0.4-1.7,0.3-2.1-0.4c-0.4-0.6,0-1.5,0.8-2
				C375.5,138,376.4,138.2,376.7,138.8z"/>
			<path class="st12" d="M362.8,143.9c0.2,0.7-0.4,1.5-1.3,1.7c-0.9,0.2-1.8-0.2-1.9-0.9c-0.2-0.7,0.4-1.5,1.3-1.7
				C361.8,142.8,362.6,143.2,362.8,143.9z"/>
			<g>
				<path class="st14" d="M371.3,133c-0.1,0-0.2,0-0.3,0c-1.3-0.7-2.9-0.1-2.9-0.1c-0.2,0.1-0.4,0-0.5-0.2c-0.1-0.2,0-0.4,0.2-0.5
					c0.1,0,2-0.7,3.5,0.1c0.2,0.1,0.2,0.3,0.2,0.5C371.5,132.9,371.4,132.9,371.3,133z"/>
			</g>
			<g>
				<path class="st14" d="M358.4,137.3c-0.1,0-0.2,0-0.3,0c-0.2-0.1-0.3-0.3-0.2-0.5c0.7-1.6,2.7-2.2,2.8-2.2
					c0.2-0.1,0.4,0.1,0.4,0.2c0.1,0.2-0.1,0.4-0.2,0.4c0,0-1.7,0.5-2.3,1.8C358.6,137.2,358.5,137.2,358.4,137.3z"/>
			</g>
			<path class="st13" d="M371.9,136.8c0.3,0.8,0.1,1.7-0.3,1.8c-0.5,0.2-1.1-0.4-1.4-1.3c-0.3-0.8-0.1-1.7,0.3-1.8
				C371,135.4,371.6,135.9,371.9,136.8z"/>
			<path class="st13" d="M362.8,139.8c0.3,0.8,0.1,1.7-0.3,1.8c-0.5,0.2-1.1-0.4-1.4-1.3c-0.3-0.8-0.1-1.7,0.3-1.8
				C361.9,138.4,362.5,139,362.8,139.8z"/>
			<path class="st13" d="M365.8,148.9c0,0,6.3-1.2,8.9-3.8c0,0-0.4,4.7-3.8,5.4C367.5,151.3,365.8,148.9,365.8,148.9z"/>
			<g>
				<path class="st12" d="M370.1,145.1c-0.7,0.2-1.4,0.3-1.6,0.3l0-0.8c0.8,0,1.9-0.3,2.1-0.7c0.1-0.1-0.1-0.4-0.3-0.6
					c-1.7-1.8-3.7-7-3.8-7.2l0.7-0.3c0,0.1,2,5.3,3.6,7c0.5,0.5,0.6,1,0.5,1.4C371,144.7,370.6,144.9,370.1,145.1z"/>
			</g>
			<path class="st14" d="M360.8,122.8c-15.3,5.7-6.1,20.1-6.1,20.1l2.2,2c-1-4.1-0.3-6.4-0.3-6.4c-1.1-1.6-1.2-4.6-0.9-6
				c1.9-1.6,6.7-4.7,15.5-5.7c0.1,0.1,2.4,2.4,2.6,4.7c0,0,3.5,3.2,5,7l0.3-3.5C379.2,135,375.7,117.3,360.8,122.8z"/>
		</g>
	</g>
	<g>
		<g>
			<g>
				<path class="st9" d="M359.5,389.8l-6.7,1.6c0,0-10.5-56.4-12.9-62.3c-2.1-5.1-11-24.8-13.9-39.9c-0.1,0.1-1.1-0.1-2.3-0.3h0
					c-0.3-0.1-0.6-0.1-1-0.2c-0.3-0.1-0.6-0.1-1-0.2c-0.3,15.1-3.5,33.6-4.5,38.8c-1.2,6.3-0.6,63.7-0.6,63.7l-6.9-0.2
					c-13.1-46.5-6.2-63.9-6.2-63.9s-12-41.8-7.8-56.6c1.4-4.9,3.1-9.4,4.8-13.1c0.1-0.3,0.3-0.6,0.4-0.9c3.2-7,6.1-11.3,6.1-11.3
					l14.1,1.8l0.1-0.2l0.4,0.1v4.4l1.8-0.1l0.4,0h0l5.8-0.3l0.8,0l5.1-0.3c0,0,3.1,4.9,7.4,12.7c0.2,0.3,0.3,0.6,0.5,0.9
					c1.5,2.8,3.3,6,5,9.4c7,13.7,4.6,52.8,4.6,52.8S363.3,341.6,359.5,389.8z"/>
			</g>
			<g>
				<path class="st20" d="M311.7,246.4c0,0.1-3.7,8.7-11.2,10.6c0.1-0.3,0.3-0.6,0.4-0.9c6.7-2.1,10-9.9,10-10L311.7,246.4z"/>
			</g>
			<g>
				<path class="st20" d="M343.5,263.6c-8.4-1.8-12.7-10.6-13.8-13.3c-0.2-0.5-0.3-0.8-0.3-0.8l0.7-0.3c0,0,0.1,0.4,0.4,1
					c1.2,2.8,5.1,10.5,12.5,12.4C343.2,263,343.3,263.3,343.5,263.6z"/>
			</g>
			<g>
				<path class="st20" d="M323.6,288.8c-0.3-0.1-0.6-0.1-1-0.2c-1.2-2.3-3.4-7.1-5.3-15.2c-2.6-11.6,3.3-24,3.4-24.1l0.7,0.3
					c-0.1,0.1-5.9,12.3-3.3,23.6c0.1,0.5,0.2,0.9,0.3,1.4c0.1,0.3,0.1,0.5,0.2,0.7C320.5,282.7,322.6,287,323.6,288.8z"/>
			</g>
			<g>
				<path class="st20" d="M318.2,275.4c0,0-0.1,0-0.1,0l0-0.7c0.4,0,0.9-0.2,1.2-0.6c0.5-0.6,1.6-2.4,0.7-6.8
					c-1.2-5.9,3.2-16.3,3.4-16.7l0.7,0.3c0,0.1-4.5,10.6-3.4,16.3c0.9,4.6-0.2,6.6-0.9,7.4C319.5,275.1,318.8,275.4,318.2,275.4z"/>
			</g>
		</g>
		<path class="st10" d="M318.4,191.8c0,0,2.2-4-0.9-10.9c-3.1-6.9-2.5-26,13.2-25.2c0,0,9.3-1.5,14,4.6c4.7,6.1,8.5,27.6,3.6,43.5
			C343.3,219.6,312.1,215.3,318.4,191.8z"/>
		<path class="st3" d="M335.6,250c0,0-14.7,5.2-28.5-5.3c0,0-2.6-52.8,2.3-56.4c2.1-1.6,6.4-0.3,10.4,1.6c5.3,2.4,10.3,6,10.3,6
			s9.1-1.3,16.3-0.5c4.6,0.5,8.4,1.8,8.5,4.9C355.4,208.1,335.6,250,335.6,250z"/>
		<path class="st11" d="M346.8,195.5c-3.1-0.3-3.6,2-6.7,3.1c-3.1,1.1-6.8,2-8.2,2.1c-1.4,0.1-2.1,1.9-2.1,1.9s-0.5-2.4-1.3-2.6
			c-0.7-0.2-7.3-6.8-8.6-10.2c5.3,2.4,10.3,6,10.3,6s9.1-1.3,16.3-0.5C346.6,195.5,346.8,195.5,346.8,195.5z"/>
		<g>
			<path class="st4" d="M306.6,396.5c0.4-2.9-0.6-4.9,0.1-6.3c1.2-2.1,2.4,0.6,2.4,0.6c0.1-3.3,5.6-3.3,6.1-1.8
				c0.1,0.4,0.3,0.8,0.5,1.1c0.3-0.8,0.9-1.6,1.7-1.1c2.9,1.8-0.7,6.3,1.9,9.6c3.4,4.2,1.3,10.5,1.3,10.5h-16.2
				C302.5,400.2,306.1,399.3,306.6,396.5z"/>
			<path class="st5" d="M316.6,395.4c0,0-3.8-2-8.9,0.7l1-1.8c0,0,3.4-2.1,7.5-0.5L316.6,395.4z"/>
			<path class="st5" d="M317.2,398.5c0,0-5.5-1.9-10.5,0.8l1-1.9c0,0,4.8-2.1,8.9-0.5L317.2,398.5z"/>
		</g>
		<g>
			<path class="st4" d="M362.5,396.5c-0.4-2.9,0.6-4.9-0.1-6.3c-1.2-2.1-2.4,0.6-2.4,0.6c-0.1-3.3-5.6-3.3-6.1-1.8
				c-0.1,0.4-0.3,0.8-0.5,1.1c-0.3-0.8-0.9-1.6-1.7-1.1c-2.9,1.8,0.7,6.3-1.9,9.6c-3.4,4.2-1.3,10.5-1.3,10.5h16.2
				C366.6,400.2,362.9,399.3,362.5,396.5z"/>
			<path class="st5" d="M352.5,395.4c0,0,3.8-2,8.9,0.7l-1-1.8c0,0-3.4-2.1-7.5-0.5L352.5,395.4z"/>
			<path class="st5" d="M351.8,398.5c0,0,5.5-1.9,10.5,0.8l-1-1.9c0,0-4.8-2.1-8.9-0.5L351.8,398.5z"/>
		</g>
		<path class="st11" d="M328.9,178.5c0,0,1.2,14.1-2.8,16.1c0,0,2.9,5.3,10.7,2.1c0,0-1.3-7.3,3.8-15.9
			C344.1,175,328.9,178.5,328.9,178.5z"/>
		<g>
			<path class="st3" d="M343.1,173.6c0,0,2.9-3.4,3.6,0.3c0.8,4.2-3,6.3-3.8,5C342,177.5,343.1,173.6,343.1,173.6z"/>
			<path class="st3" d="M321,175.5c0,0-3.4-2.9-3.5,0.8c-0.1,4.3,3.9,5.7,4.5,4.3C322.7,179.2,321,175.5,321,175.5z"/>
			<path class="st3" d="M333.5,189.9c7-0.5,10.6-5.4,9.6-19.1c-0.5-7.1-4.5-11.2-12.3-10.6c-7.9,0.6-10.8,5.2-10.3,12.3
				C321.6,187.2,326.3,190.4,333.5,189.9z"/>
			<path class="st12" d="M323.2,177.2c-0.1,0.7,0.6,1.4,1.5,1.4c0.9,0.1,1.7-0.4,1.7-1.1c0.1-0.7-0.6-1.4-1.5-1.4
				C324,176,323.3,176.5,323.2,177.2z"/>
			<path class="st12" d="M337.6,176.5c0.1,0.7,0.9,1.2,1.8,1.1c0.9-0.1,1.5-0.8,1.4-1.5c-0.1-0.7-0.9-1.2-1.8-1.1
				C338.2,175.1,337.5,175.8,337.6,176.5z"/>
			<g>
				<path class="st10" d="M325.7,169.8c0.1,0.1,0.3,0,0.4-0.1c0.9-1.1,2.6-1.2,2.6-1.2c0.2,0,0.3-0.2,0.3-0.4c0-0.2-0.2-0.3-0.4-0.3
					c-0.1,0-2,0.1-3.1,1.4C325.4,169.4,325.4,169.6,325.7,169.8C325.6,169.8,325.6,169.8,325.7,169.8z"/>
			</g>
			<g>
				<path class="st10" d="M335.8,167.9c0.1,0,0.1,0,0.2,0c0,0,1.7-0.2,2.8,0.8c0.1,0.1,0.4,0.1,0.5,0c0.1-0.1,0.1-0.4,0-0.5
					c-1.3-1.2-3.2-1-3.3-0.9c-0.2,0-0.3,0.2-0.3,0.4C335.6,167.8,335.7,167.9,335.8,167.9z"/>
			</g>
			<path class="st13" d="M326.7,173.5c0.1,0.9,0.5,1.5,1,1.5c0.5,0,0.8-0.8,0.8-1.6c-0.1-0.9-0.5-1.5-1-1.5
				C327,171.9,326.7,172.6,326.7,173.5z"/>
			<path class="st13" d="M336.4,172.7c0.1,0.9,0.5,1.5,1,1.5c0.5,0,0.8-0.8,0.8-1.6c-0.1-0.9-0.5-1.5-1-1.5
				C336.7,171.1,336.4,171.8,336.4,172.7z"/>
			<path class="st13" d="M335.9,181.3c0,0-4.3,0.9-6.7-0.1c0,0,1.5,3.1,3.9,2.7C335.4,183.4,335.9,181.3,335.9,181.3z"/>
			<path class="st13" d="M329.1,172.9c0,0-0.8-2.1-1.6-1.9c-0.8,0.2-1.3,2.1-1.3,2.1l-1.3-0.6l1.3,0.1c0,0,0.5-2,1.3-2
				C328.6,170.5,329.1,172.9,329.1,172.9z"/>
			<path class="st13" d="M335.9,172.6c0,0,0.5-2.2,1.3-2.1c0.9,0.1,1.6,1.9,1.6,1.9l1.2-0.8l-1.2,0.3c0,0-0.8-1.9-1.6-1.8
				C336,170.2,335.9,172.6,335.9,172.6z"/>
			<g>
				<path class="st12" d="M332.1,178c0.2,0.1,0.3,0.1,0.5,0.2l0.1-0.7c-0.6-0.1-0.8-0.5-0.8-0.8c0-0.4,0.2-0.8,0.4-0.9
					c0.1-0.1,0.3,0,0.4,0.2l0.6-0.5c-0.5-0.7-1.1-0.6-1.3-0.5c-0.6,0.2-1,1-0.9,1.7C331.2,177.3,331.5,177.7,332.1,178z"/>
			</g>
			<path class="st10" d="M333.3,162.4c0,0,2.6-0.8,3.7,3.1c1.9,6.9,3.2,18,7.7,23.5c3.2,4,5.2,2.4,5.2,2.4s0.9-4-0.5-7.9
				c-1.4-4,0.4-18.2-4.7-23.4c-5.1-5.2-14-1.9-14-1.9s-4.3-2.6-8.5,0c-4.2,2.6-5.4,14-1.1,19.1c0,0-0.2-4.3,1.7-6
				C324.6,169.7,325.6,160.3,333.3,162.4z"/>
		</g>
		<g>
			<path class="st3" d="M300.4,106.1c-1.6,5.2,2.4,7.5-0.6,11.1c-1.8,2.2-4.6,0.4-4.6,0.4c-1.3-2.8-4.5-6.4-6.1-8
				c-1.6-1.6-0.5-1.6-0.5-1.6c-0.2-0.1-0.3-0.3-0.5-0.4c-1.2-0.9-2.2-1.4-1.1-1.8c1.3-0.4,4.9,2,4.9,2c-4.2-4.7-5.9-4.2-4.7-4.7
				c1.5-0.7,5.8,2.9,5.9,3c-2.1-3.3-3.9-4.3-2.7-4.4c1.2-0.1,5.5,5.1,7.1,7.1c0.4,0.4,0.6,0.7,0.6,0.7
				C299.2,105.2,300.4,106.1,300.4,106.1z"/>
			<path class="st11" d="M297.6,108.8c0.4,0.4,0.6,0.7,0.6,0.7s-1.3,1.3-0.6,3.6C297.5,113.1,295.7,111.1,297.6,108.8z"/>
			<path class="st11" d="M292.3,110.6c-0.4-0.4-2.6-2.5-3.6-2.7c-0.2-0.1-0.3-0.3-0.5-0.4C289.1,106.9,291.9,110.1,292.3,110.6z"/>
		</g>
		<path class="st3" d="M299.8,117.2c0,0-0.6,34.3-2.4,41.1c0,0,6.2,21.5,15.6,29.3c0,0,1.5,5.8-6.6,17.3c0,0-15.7-28.1-18.2-44.1
			l7-43.2L299.8,117.2z"/>
		<path class="st19" d="M320.4,190.3c0.8,2.8,1.2,12.8,10.7,17.9c9.5,5.1,19.6-2.4,22.3-10.5c0,0,1.1-1.7,4.9,2.5
			c0,0,19.7,9.5,22.2,14.5c2.5,4.9,1,23.9-6.9,24.2c-7.9,0.3-17.4-8.5-19.9-2.7s-17.1,26.3-47.4,9.8c0,0-3.8-4.8-3.8-9
			s-1.9-32.3-1.9-32.3s-11.2-3.2-8.4-29.6c0,0,7.7,4.3,7.5-9.8c0,0,6.3-2.9,8.5,8.9c1.4,7.9,9.2,13.7,9.2,13.7
			S319.2,185.9,320.4,190.3z"/>
		<path class="st3" d="M385,224.4c6.7-2.8,21.4-15,26.7-22l-3.2-2.9c0,0-17.3,11.8-24,13.9c-6.7,2.1-10.2,5.9-9.4,10.6
			C376,228.7,383.6,225,385,224.4z"/>
		<g>
			<path class="st3" d="M417.2,192.5c-3.3,4.4-7.5,2.5-8.6,7c-0.7,2.8,2.3,3.9,2.3,3.9c3-0.5,7.8-0.2,10.1,0.2
				c2.2,0.4,1.6-0.6,1.6-0.6c0.2,0.1,0.4,0.1,0.6,0.2c1.5,0.4,2.5,1,2.1-0.1c-0.4-1.3-4.5-2.7-4.5-2.7c6.3,0.7,6.9,2.3,6.6,1.1
				c-0.4-1.6-5.7-3-5.9-3.1c3.8-0.2,5.8,0.6,5.2-0.4c-0.6-1-7.4-1.5-9.9-1.6c-0.6,0-0.9,0-0.9,0C418.6,193,417.2,192.5,417.2,192.5z
				"/>
			<path class="st11" d="M416.7,196.4c-0.6,0-0.9,0-0.9,0s-0.3,1.8-2.6,2.6C413.2,199,415.9,199.3,416.7,196.4z"/>
			<path class="st11" d="M418.2,201.7c0.5,0.1,3.5,0.7,4.3,1.4c0.2,0.1,0.4,0.1,0.6,0.2C423.2,202.1,418.9,201.8,418.2,201.7z"/>
		</g>
	</g>
	<g>
		<path class="st3" d="M228.7,270.1c4.3-14.8,12.7-25.7,12.7-25.7l12.7,2.1l0.1-0.2l1,0.2l0.1,0l0,0l13.1,2.6c0,0,5.7,10.5,9.4,25.4
			c3.8,14.9-7.5,52.5-7.5,52.5s6.3,17.6-8.3,63.6h-6.9c0,0,2.6-57.3,1.6-63.6c-0.9-5.5-2-25.6-1.4-40.9c-0.8,0.2-1.6,0.2-2.5,0.2
			c0,0,0,0,0,0c0,15.4-1.7,35.4-2.8,40.8c-1.2,6.3-0.6,63.7-0.6,63.7l-6.9-0.2c-13.1-46.5-6.2-63.9-6.2-63.9
			S224.4,284.9,228.7,270.1z"/>
		<path class="st9" d="M287.9,200.3c-0.4-7.8-24.8-4.4-24.8-4.4s-15.8-11.1-20.7-7.5c-1.7,1.3-2.5,8.7-2.8,17.8
			c-1.8,3.3-3.4,8.2-0.2,12.6c0.1,13.3,0.7,26,0.7,26c13.8,10.5,28.5,5.3,28.5,5.3s5.8-12.4,11.1-24.9c3.4-2.7,4.1-6.7,4-10
			C286.2,208.4,288,202.7,287.9,200.3z"/>
		<path class="st14" d="M284.8,160.5c-7.1-12.1-25-10.6-31.1-2.7c-7.4,9.5-3.5,31.7-3.5,31.7s17-14.2,27.2,5.2
			C277.5,194.7,292.7,174,284.8,160.5z"/>
		<g>
			<path class="st7" d="M239.5,396.5c0.4-2.9-0.6-4.9,0.1-6.3c1.2-2.1,2.4,0.6,2.4,0.6c0.1-3.3,5.6-3.3,6.1-1.8
				c0.1,0.4,0.3,0.8,0.5,1.1c0.3-0.8,0.9-1.6,1.7-1.1c2.9,1.8-0.7,6.3,1.9,9.6c3.4,4.2,1.3,10.5,1.3,10.5h-16.2
				C235.4,400.2,239.1,399.3,239.5,396.5z"/>
			<path class="st15" d="M249.5,395.4c0,0-3.8-2-8.9,0.7l1-1.8c0,0,3.4-2.1,7.5-0.5L249.5,395.4z"/>
			<path class="st15" d="M250.2,398.5c0,0-5.5-1.9-10.5,0.8l1-1.9c0,0,4.8-2.1,8.9-0.5L250.2,398.5z"/>
		</g>
		<g>
			<path class="st7" d="M265.4,396.5c-0.4-2.9,0.6-4.9-0.1-6.3c-1.2-2.1-2.4,0.6-2.4,0.6c-0.1-3.3-5.6-3.3-6.1-1.8
				c-0.1,0.4-0.3,0.8-0.5,1.1c-0.3-0.8-0.9-1.6-1.7-1.1c-2.9,1.8,0.7,6.3-1.9,9.6c-3.4,4.2-1.3,10.5-1.3,10.5h16.2
				C269.5,400.2,265.9,399.3,265.4,396.5z"/>
			<path class="st15" d="M255.4,395.4c0,0,3.8-2,8.9,0.7l-1-1.8c0,0-3.4-2.1-7.4-0.5L255.4,395.4z"/>
			<path class="st15" d="M254.8,398.5c0,0,5.5-1.9,10.5,0.8l-1-1.9c0,0-4.8-2.1-8.9-0.5L254.8,398.5z"/>
		</g>
		<path class="st11" d="M261.9,178.5c0,0,0.7,8.5-2.8,16.1c0,0,2.9,5.3,10.7,2.1c0,0-1.3-7.3,3.8-15.9
			C277.1,175,261.9,178.5,261.9,178.5z"/>
		<g>
			<path class="st3" d="M279.1,174.5c0,0,3.7-2.5,3.4,1.2c-0.3,4.3-4.5,5.3-5,3.8C277,178,279.1,174.5,279.1,174.5z"/>
			<path class="st3" d="M257.2,170.6c0,0-2.5-3.7-3.6-0.1c-1.2,4.1,2.3,6.5,3.3,5.3C257.9,174.6,257.2,170.6,257.2,170.6z"/>
			<path class="st3" d="M265.7,187.7c6.9,1.3,11.7-2.5,14.2-16c1.3-7-1.5-11.9-9.2-13.4c-7.7-1.4-11.8,2.2-13.1,9.2
				C254.8,182.1,258.5,186.4,265.7,187.7z"/>
			<path class="st12" d="M258.9,172.8c-0.3,0.7,0.2,1.5,1.1,1.8c0.8,0.3,1.7,0,2-0.6c0.3-0.7-0.2-1.5-1.1-1.8
				C260.1,171.8,259.2,172.1,258.9,172.8z"/>
			<path class="st12" d="M273.1,175.8c-0.1,0.7,0.6,1.4,1.5,1.5c0.9,0.1,1.7-0.4,1.8-1.1c0.1-0.7-0.6-1.4-1.5-1.5
				C274,174.6,273.2,175.1,273.1,175.8z"/>
			<g>
				<path class="st14" d="M263.2,166.3c0.1,0.1,0.3,0.1,0.4,0c1.1-0.8,2.8-0.5,2.8-0.5c0.2,0,0.4-0.1,0.4-0.3c0-0.2-0.1-0.4-0.3-0.4
					c-0.1,0-2-0.4-3.4,0.6C263.1,165.8,263.1,166.1,263.2,166.3C263.2,166.2,263.2,166.3,263.2,166.3z"/>
			</g>
			<g>
				<path class="st14" d="M273.5,167.1c0,0,0.1,0.1,0.2,0.1c0,0,1.7,0.3,2.5,1.5c0.1,0.2,0.3,0.2,0.5,0.1c0.2-0.1,0.2-0.3,0.1-0.5
					c-0.9-1.4-2.9-1.8-3-1.8c-0.2,0-0.4,0.1-0.4,0.3C273.4,166.9,273.4,167,273.5,167.1z"/>
			</g>
			<path class="st13" d="M263.3,170.1c-0.2,0.9,0.1,1.6,0.6,1.7c0.5,0.1,1-0.5,1.2-1.4c0.2-0.9-0.1-1.6-0.6-1.7
				C264,168.7,263.5,169.3,263.3,170.1z"/>
			<path class="st13" d="M272.7,172c-0.2,0.9,0.1,1.6,0.6,1.7c0.5,0.1,1-0.5,1.2-1.4c0.2-0.9-0.1-1.6-0.6-1.7
				C273.4,170.6,272.9,171.2,272.7,172z"/>
			<path class="st13" d="M270.1,180c0,0-4.4-0.2-6.4-1.8c0,0,0.7,3.4,3.1,3.6C269.2,182,270.1,180,270.1,180z"/>
			<path class="st13" d="M265.7,170.1c0,0-0.2-2.2-1.1-2.2c-0.9,0-1.8,1.7-1.8,1.7l-1.1-0.9l1.2,0.4c0,0,1-1.8,1.8-1.6
				C265.9,167.7,265.7,170.1,265.7,170.1z"/>
			<path class="st13" d="M272.4,171.7c0,0,1-2,1.8-1.7c0.8,0.3,1.1,2.2,1.1,2.2l1.3-0.4l-1.3-0.1c0,0-0.3-2-1.1-2.2
				C273.1,169.3,272.4,171.7,272.4,171.7z"/>
			<g>
				<path class="st12" d="M267.3,175.8c0.1,0.1,0.3,0.2,0.5,0.3l0.3-0.7c-0.6-0.3-0.6-0.7-0.6-1c0.1-0.4,0.4-0.7,0.6-0.8
					c0.1,0,0.3,0.1,0.4,0.3l0.7-0.3c-0.3-0.8-0.9-0.8-1.1-0.8c-0.6,0.1-1.2,0.7-1.3,1.4C266.6,174.9,266.9,175.5,267.3,175.8z"/>
			</g>
			<path class="st14" d="M256.8,173c0,0-2.9-8.4,2.3-15.3c5.2-6.9,19.3-1.8,21.9,3.5c2.6,5.3-2.5,16-2.5,16s3.9-14.2-3.9-16.5
				c0,0-1,3.6-7.1,6.1c-6,2.5-9.6,2.1-9.6,2.1L256.8,173z"/>
		</g>
		<path class="st11" d="M281.6,195.8c0,0,8.9,0.2,30.6,22c3,3-0.4,12.5-9.4,6.7c-9.9-6.5-16.5-13.1-18.6-10.7
			C284.2,213.8,279,201.3,281.6,195.8z"/>
		<path class="st3" d="M313.5,216.5c-0.1-7.3-5.8-25.5-10.3-33l-3.9,1.8c0,0,4.3,20.5,3.8,27.4c-0.6,7,1.6,11.7,6.3,12.7
			C314.1,226.5,313.5,218,313.5,216.5z"/>
		<g>
			<path class="st3" d="M296.1,174.7c2.8,4.7-0.5,7.9,3.2,10.6c2.3,1.7,4.5-0.7,4.5-0.7c0.6-3,2.8-7.3,4-9.2
				c1.2-1.9,0.1-1.7,0.1-1.7c0.1-0.2,0.3-0.3,0.4-0.5c1-1.2,1.8-1.9,0.7-2c-1.3-0.1-4.2,3.1-4.2,3.1c3-5.6,4.7-5.5,3.5-5.7
				c-1.6-0.3-5,4.2-5.1,4.3c1.2-3.6,2.7-5.1,1.6-5c-1.2,0.2-4.2,6.3-5.2,8.6c-0.2,0.5-0.4,0.8-0.4,0.8
				C297,173.5,296.1,174.7,296.1,174.7z"/>
			<path class="st11" d="M299.5,176.6c-0.2,0.5-0.4,0.8-0.4,0.8s1.6,1,1.5,3.4C300.5,180.8,301.8,178.4,299.5,176.6z"/>
			<path class="st11" d="M305,177.2c0.3-0.4,1.9-3,2.9-3.4c0.1-0.2,0.3-0.3,0.4-0.5C307.2,172.8,305.3,176.6,305,177.2z"/>
		</g>
		<path class="st11" d="M245.4,187.7c0,0-8.8-1.9-34.6,15.1c-3.6,2.3-2.2,12.4,7.9,8.5c11-4.3,19.4-9.5,20.9-6.7
			C239.6,204.6,246.7,193.6,245.4,187.7z"/>
		<path class="st3" d="M209.8,201.3c1.6-7.1,10.9-23.8,16.9-30.2l3.4,2.6c0,0-8.5,19.2-9.3,26.1c-0.9,6.9-4,11.1-8.8,11.1
			C207.2,210.9,209.5,202.8,209.8,201.3z"/>
		<g>
			<path class="st3" d="M235.4,163.9c-3.7,4-1.1,7.8-5.3,9.8c-2.6,1.2-4.3-1.6-4.3-1.6c0-3.1-1.3-7.7-2.1-9.9
				c-0.8-2.1,0.3-1.7,0.3-1.7c-0.1-0.2-0.2-0.4-0.3-0.5c-0.7-1.4-1.4-2.2-0.2-2.1c1.3,0.2,3.5,3.9,3.5,3.9c-1.8-6.1-3.4-6.4-2.2-6.3
				c1.7,0.1,4,5.1,4.1,5.2c-0.4-3.8-1.6-5.6-0.5-5.2c1.1,0.4,2.8,7,3.4,9.5c0.1,0.6,0.2,0.9,0.2,0.9
				C234.7,162.6,235.4,163.9,235.4,163.9z"/>
			<path class="st11" d="M231.7,165.1c0.1,0.6,0.2,0.9,0.2,0.9s-1.7,0.6-2.1,3C229.8,169,229,166.4,231.7,165.1z"/>
			<path class="st11" d="M226.1,164.5c-0.2-0.5-1.3-3.4-2.1-4c-0.1-0.2-0.2-0.4-0.3-0.5C224.9,159.8,226,163.9,226.1,164.5z"/>
		</g>
		<path class="st14" d="M239.9,242.2c0,0-29.7,40.7-20.4,83.8c0,0,10.1,9.3,17.9,6.1s16,8.5,23.1,4.7c7-3.7,13.3-6.5,18.2-4.5
			c4.9,2,13.1-6.3,13.1-6.3s-3.6-47.7-21.7-79.1C270.1,246.8,255.4,253.6,239.9,242.2z"/>
		<path class="st21" d="M252.2,398.5c0,0,3.2,4.1,1.9,10.5h-2.7C251.4,409.1,250.8,403.3,252.2,398.5z"/>
	</g>
	<g>
		<path class="st3" d="M155.8,287.9c0,0,5.4,17.1,18.7,40c0,0-2.3,24.3,35.3,69.3l5.2-2.9c0,0-19.3-45.2-22.5-58.6
			c-3.1-13.4-1.8-31.3-11.9-59.3L155.8,287.9z"/>
		<path class="st9" d="M178.7,253.5c0,0-17.8-7.2-17.8-7.2c-3.1,9.9-11.1,17-10.4,32.5c0.3,7.7,5.3,15.5,5.3,15.5
			c21-0.8,28.2-9.6,28.2-9.6l-3.2-14.8C180.7,270,178.6,260,178.7,253.5z"/>
		<path class="st3" d="M136.5,276.5c0,0-0.6,17.9,4.3,43.9c0,0-10.2,22.1,10.2,77.1l5.8-1c0,0-3.1-49.1-1.6-62.8
			c1.5-13.7,9.4-25.7,8.5-59.8L136.5,276.5z"/>
		<path class="st9" d="M178.7,253.5l-7,11.9l-1.7,2.9l-3.6,6.2L164,291l-0.1,0.7l-0.1,0.4c-18-2.1-27.7,3.5-27.7,3.5l-0.2-1.5
			l-0.1-0.5c0-0.1-0.1-0.2-0.1-0.3c-1.7-4.9-4-18.2-1.2-27.3c4.6-14.8,12.8-13.4,19-21.7C153.6,244.4,178.7,253.5,178.7,253.5z"/>
		<path class="st6" d="M147.4,392.4c0,0,2.3,5.1,1.6,8.6c-0.4,2.1-2.7,4.8-0.9,8.1h14c0,0,1.6-3.8-1.7-7.3
			c-1.8-1.9-3.2-10.9-3.2-10.9c-1.6,0.3-1.2,1.5-1.2,1.5s0-4.2-3.5-3.7c-4.3,0.7-3.3,4.4-3.3,4.4S148.9,391.8,147.4,392.4z"/>
		<path class="st6" d="M231.8,409.1h-23.6c0,0-0.7-5,0.4-6.7c1.5-2.4-3.7-7.8-3.7-7.8s3.1-3.9,5.9-1.7c0,0-0.3-4.9,3.3-4.9
			c0,0,3.3,8.3,7,11.3c0.1,0.1,0.2,0.1,0.3,0.2c2.8,2,7.9,2.5,9.8,5.3C231.9,405.8,232.2,407.2,231.8,409.1z"/>
		<g>
			<path d="M165,291.3l-0.2,0.7c-0.3-0.1-0.6-0.2-0.9-0.3c-14.8-4.1-25,0.7-27.9,2.4l-0.1-0.5c0-0.1-0.1-0.2-0.1-0.3
				c1.3-0.7,3.8-1.9,7.3-2.8c-0.2-1.4-1.2-10.9,0-21.5c1.3-11.5,12.5-18.4,12.7-18.5l0.4,0.6c-0.1,0.1-8,5-11.2,13.3
				c10.4-0.1,14.6-13.2,14.6-13.3l0.7,0.2c0,0.1-4.4,13.8-15.5,13.8h-0.1c-0.4,1.2-0.7,2.5-0.9,3.9c-1.2,10.3-0.2,19.6,0,21.2
				c5-1.1,11.9-1.6,20.1,0.7C164.3,291.1,164.6,291.2,165,291.3z"/>
			<path d="M172.6,256.9c0,0.1-1,10.3-5.7,18.1l0.6,0.4c4.8-7.9,5.8-18.3,5.9-18.4L172.6,256.9z"/>
		</g>
		<path class="st6" d="M204.9,252.3c0,0-1.8,8.3-3.6,8.9s-0.3-4.2-0.3-4.2s-13-5.2-18.3-5.6C177.4,250.9,184.9,240.8,204.9,252.3z"
			/>
		<path class="st6" d="M202.6,253.8c0,0-13.7-6.3-23.2-5.8c-9.5,0.5,13.2-31,18.8-27.8S205.1,249.8,202.6,253.8z"/>
		<path class="st6" d="M168.7,193.4c0,0,1.3-3.4,8.1-4.1s12.8,6.4,11.5,10.6C187,204.1,168.7,193.4,168.7,193.4z"/>
		<path class="st7" d="M179.5,163.6c0,0-0.5-8.8-8.7-10.1s-14.7,0.6-11.8,12.4s1,16.4-4.4,17c-5.4,0.5-5-5.8-5-5.8s-1.1,5.8,4.8,7.9
			c0,0-6.2,0.5-4,4.4s9.1,3.3,11.8,0c0,0,0.2,2.6,3.6,1.7c0,0-1.4-0.4-1.2-2.2s9.4,1.2,12.3-9.7c2.9-11-2.9-12.8-2.9-12.8
			L179.5,163.6z"/>
		<path class="st3" d="M195.1,198.3c-5-0.2-5.2,4.7-2.6,9.6c2.5,4.8,26.8,26.7,30.6,22.6c1.4-1.6-2.7-8.9-2.7-8.9
			s-6.9-6.1-15.9-16.3C200.3,200.6,197.6,198.4,195.1,198.3z"/>
		<path class="st3" d="M226.3,222.5c1.4-7.1-0.6-26.1-3.6-34.4l-4.2,1c0,0,0.2,20.9-1.7,27.7s-0.7,11.7,3.7,13.7
			C224.9,232.4,226,224,226.3,222.5z"/>
		<g>
			<path class="st3" d="M213.7,183.5c4.5,3,2.9,7.3,7.4,8.2c0.9,0.2,1.7,0,2.2-0.4c1.1-0.7,1.5-2,1.3-3.3c-0.5-3-0.3-6.9-0.1-8.9
				c0.3-2.3-0.7-1.5-0.7-1.5c0-0.2,0.1-0.4,0.1-0.6c0.4-1.5,0.9-2.5-0.3-2.1c-1.3,0.5-2.5,4.6-2.5,4.6c0.3-6.3,1.9-7,0.7-6.7
				c-1.6,0.4-2.7,5.9-2.7,6.1c-0.5-3.8,0.3-5.8-0.7-5.1c-1,0.7-1.1,7.5-1.1,10c0,0.6,0,0.9,0,0.9C214,182.1,213.7,183.5,213.7,183.5
				z"/>
			<path class="st11" d="M217.6,183.8c0,0.6,0,0.9,0,0.9s1.8,0.2,2.8,2.4C220.3,187.2,220.5,184.5,217.6,183.8z"/>
			<path class="st11" d="M222.8,182c0.1-0.5,0.5-3.6,1.2-4.4c0-0.2,0.1-0.4,0.1-0.6C222.9,177,222.8,181.3,222.8,182z"/>
		</g>
		<path class="st6" d="M187.8,198c0,0,6.7-2.8,15,2.1s13.2,12.8,13.2,12.8s0.1-14.7,2.6-17.1c0,0,3.1,3.7,6.9,4.4
			c0,0,9.8,20.4,3.6,33s-24.8,0-24.8,0L187.8,198z"/>
		<path class="st4" d="M153.6,244.4c0,0,4.9-13,2.4-20.4c-4.3-12.7-2-23.4,2.6-26.5c7.3-5.1,22.7,0.7,22.7,0.7s14.9-1.6,16.5,3
			s5.1,22.9-2,32.7c-7.1,9.8-17,25-17,25S157.6,256.9,153.6,244.4z"/>
		<path class="st6" d="M162.2,252.3c0,0-2,7-4.7,6.6s-14-6.5-14-7.6c0-1,1.6-3.3,1.6-3.3s-0.6-5.4,0.8-5.9S162.2,252.3,162.2,252.3z
			"/>
		<path class="st19" d="M186.2,195.8c0,0,15.6,27.1,14.8,61.2c0,0,7.1-1.9,8.4-14.6c1.3-12.8-3.2-37.2-9.4-43.6
			C200,198.7,195.5,194.1,186.2,195.8z"/>
		<path class="st19" d="M173,194.6c0,0,11.6,41.6-10.8,57.7c0,0-9.4-0.5-16.2-7.9c-6.8-7.4,2.4-46.9,2.4-46.9S160.4,189.6,173,194.6
			z"/>
		<path class="st6" d="M175.4,207.6c0,0-0.1-12.5-1.5-15.8s-5.2,1.5-5.2,1.5S169.8,199.2,175.4,207.6z"/>
		<path class="st6" d="M191.2,206.4c0,0,1.4-12.3-2.8-14.5c-4.3-2.2-4.3,5.5-4.3,5.5S187.8,197.1,191.2,206.4z"/>
		<path class="st11" d="M179,181.2c0,0,1,8.5-2.1,16.2c0,0,4.5,6.6,8.8,2.3c0,0,0.4-7.8,5.2-16.6C194,177.2,179,181.2,179,181.2z"/>
		<g>
			<path class="st3" d="M172.1,181.5c0,0-3.8-2.4-3.4,1.3c0.5,4.3,4.7,5.1,5.1,3.6C174.3,184.9,172.1,181.5,172.1,181.5z"/>
			<path class="st3" d="M193.8,176.9c0,0,2.4-3.8,3.6-0.3c1.4,4.1-2,6.6-3.1,5.5C193.3,180.9,193.8,176.9,193.8,176.9z"/>
			<path class="st3" d="M186,194.3c-6.9,1.5-11.7-2.1-14.7-15.5c-1.6-6.9,1-12,8.7-13.7c7.7-1.7,11.9,1.8,13.4,8.7
				C196.6,188.3,193.1,192.7,186,194.3z"/>
			<path class="st12" d="M192.2,179.1c0.3,0.7-0.2,1.5-1,1.8c-0.8,0.3-1.7,0.1-2-0.6c-0.3-0.7,0.2-1.5,1-1.8
				C191,178.2,191.9,178.5,192.2,179.1z"/>
			<path class="st12" d="M178.2,182.7c0.1,0.7-0.5,1.4-1.4,1.5c-0.9,0.1-1.7-0.3-1.8-1c-0.1-0.7,0.5-1.4,1.4-1.5
				C177.2,181.5,178.1,182,178.2,182.7z"/>
			<g>
				<path class="st7" d="M187.4,172.9c-0.1,0-0.1,0-0.2-0.1c-1.2-0.8-2.8-0.4-2.9-0.4c-0.2,0.1-0.4-0.1-0.4-0.3
					c0-0.2,0.1-0.4,0.3-0.4c0.1,0,2-0.5,3.4,0.5c0.2,0.1,0.2,0.3,0.1,0.5C187.6,172.8,187.5,172.9,187.4,172.9z"/>
			</g>
			<g>
				<path class="st7" d="M174.5,175.8c-0.1,0-0.1,0-0.2-0.1c-0.2-0.1-0.2-0.3-0.1-0.5c0.9-1.5,2.8-1.9,2.9-1.9
					c0.2,0,0.4,0.1,0.4,0.3c0,0.2-0.1,0.4-0.3,0.4c0,0-1.7,0.3-2.4,1.5C174.7,175.7,174.6,175.8,174.5,175.8z"/>
			</g>
			<path class="st13" d="M187.7,176.6c0.2,0.9,0,1.6-0.5,1.7c-0.5,0.1-1-0.5-1.2-1.4c-0.2-0.9,0-1.6,0.5-1.7
				C187,175.2,187.5,175.8,187.7,176.6z"/>
			<path class="st13" d="M178.2,178.8c0.2,0.9,0,1.6-0.5,1.7c-0.5,0.1-1-0.5-1.2-1.4s0-1.6,0.5-1.7
				C177.5,177.3,178,177.9,178.2,178.8z"/>
			<path class="st13" d="M181.5,186.5c0,0,3.7,0.1,6.6-2c0,0,0.8,5.1-2.7,5.6C182.9,190.5,181.5,186.5,181.5,186.5z"/>
			<path class="st13" d="M185.3,176.7c0,0,0.2-2.2,1-2.3c0.9,0,1.9,1.6,1.9,1.6l1.1-0.9l-1.2,0.4c0,0-1.1-1.7-1.9-1.6
				C185.1,174.3,185.3,176.7,185.3,176.7z"/>
			<path class="st13" d="M178.7,178.5c0,0-1.1-2-1.9-1.6c-0.8,0.3-1,2.3-1,2.3l-1.4-0.4l1.3-0.1c0,0,0.2-2,1-2.2
				C177.9,176.2,178.7,178.5,178.7,178.5z"/>
			<g>
				<path class="st12" d="M183.5,182.8l-0.4-0.7c0.6-0.3,0.6-0.7,0.6-1c-0.1-0.4-0.4-0.7-0.7-0.7c-0.1,0-0.3,0.1-0.3,0.4l-0.7-0.3
					c0.3-0.8,0.9-0.9,1.1-0.8c0.6,0,1.2,0.6,1.3,1.3C184.6,181.7,184.2,182.4,183.5,182.8z"/>
			</g>
			<path class="st13" d="M172.7,183.9c0,0-0.9-3.3-1.2-7c-0.4-4.9,2.6-9.5,7.3-11c1.6-0.5,3.4-0.7,5.5-0.6c3.1,0.2,5.8,2.3,7,5.1
				c1,2.3,2.2,5.5,3.1,9.2c0,0,1.2-4,0.1-10.2c-1.1-6.2-6.2-11.3-17.9-8.8C166.5,162.9,162.2,175,172.7,183.9z"/>
			<path class="st13" d="M187.3,163.8c0,0-1.3,9.5-14.3,10.7c0,0,7.9-2.8,7.9-8.3c0,0-3.1,7.1-10.6,6.3
				C170.3,172.5,169.6,161.1,187.3,163.8z"/>
		</g>
		<path class="st3" d="M147.7,200.6c6.3,1.9,10.6,12.1,9.3,13.3c-1.3,1.2-31.2,6.9-31.2,6.9L144,247l-3.1,4.5
			c0,0-28.4-25.1-28.2-33.7C112.9,209.2,147.7,200.6,147.7,200.6z"/>
		<path class="st3" d="M144.1,246.3c0,0,4,0.4,6.4,1.1c2.5,0.6,5.8,1.2,5.9,1.8c0.1,0.5-5.5,0-5.5,0s4.6,1.9,4.7,2.6
			c0.1,0.7-5.8-0.5-5.8-0.5s3.7,2.3,3.5,2.9c-0.2,0.6-4.8-0.9-4.8-0.9s0.9,2.2,1.7,3.2c0,0-0.9,0.5-2.7-1.5c-1.8-2-4.7-1.4-7-3.1
			C138.3,249.9,142,246,144.1,246.3z"/>
		<path class="st6" d="M148.4,197.5c0,0,11.1,1.3,11.6,17.7c0.5,16.4-24.4,11.1-24.4,11.1s6.1,7,4.2,14.8c0,0-6.8-0.1-6.5,3.3
			c0,0-10.4,0.6-20.6-13.5C102.5,216.8,116.8,201,148.4,197.5z"/>
		<path class="st6" d="M204.8,213.2c0.7,2.4,0.2,4.7-1.3,5.1c-1.4,0.4-3.2-1.2-3.9-3.6c-0.7-2.4-0.2-4.7,1.3-5.1
			C202.3,209.2,204,210.8,204.8,213.2z"/>
		
			<ellipse transform="matrix(4.456478e-02 -0.999 0.999 4.456478e-02 -54.4577 374.8056)" class="st6" cx="168.7" cy="215.9" rx="5" ry="4.1"/>
		<path class="st19" d="M135.6,209.4c-2.7,0.6-5.3-0.7-5.8-3c-0.5-2.2,1.3-4.5,4-5.1s5.3,0.7,5.8,3
			C140.1,206.5,138.3,208.8,135.6,209.4z"/>
		<path class="st19" d="M148.7,403.9c0,0,3.8-5,11.7-1c0,0,0.3,3.5-3.3,2.8C153.4,405.1,151.2,407.7,148.7,403.9z"/>
		<path class="st19" d="M231.1,404.8c-5,2.4-15.4-3.3-15.4-3.3c1.6,0.3,4.1-1,5.6-2C224.1,401.5,229.1,402,231.1,404.8z"/>
	</g>
	<rect x="36.8" y="53.3" class="st22" width="434.4" height="66"/>
	<path class="st22" d="M36.8,89.2c0,0-18-1.1-36.8-24.2"/>
	<path class="st22" d="M471.2,92.6c0,0,35.4-6.5,39.1-12.6"/>
</g>
<g id="DESIGNED_BY_FREEPIK" class="st0">
</g>
</svg>
