<svg id="OBJECTS" xmlns="http://www.w3.org/2000/svg" viewBox="0 0 435.37 356.58">
  <defs>
    <style>
      .cls-1 {
        fill: #ff8b66;
      }

      .cls-2 {
        fill: #cfd8dc;
      }

      .cls-3 {
        fill: #adbec4;
      }

      .cls-4 {
        fill: #0c476b;
      }

      .cls-5 {
        fill: #0e3944;
      }

      .cls-6 {
        fill: #f2a668;
      }

      .cls-7 {
        fill: #badbd1;
      }

      .cls-8 {
        fill: #f24052;
      }

      .cls-9 {
        fill: #ef6e4b;
      }

      .cls-10 {
        fill: #db614d;
      }

      .cls-11 {
        fill: #1a4850;
      }

      .cls-12 {
        fill: #ffb878;
      }

      .cls-13 {
        fill: #205260;
      }

      .cls-14 {
        fill: #8b383e;
      }

      .cls-15 {
        fill: #662c33;
      }

      .cls-16 {
        fill: #8bbddb;
      }

      .cls-17 {
        fill: #105e99;
      }

      .cls-18 {
        fill: #6097b2;
      }

      .cls-19 {
        fill: #07262d;
      }

      .cls-20 {
        fill: #fff;
        stroke: #000;
        stroke-miterlimit: 10;
      }
    </style>
  </defs>
  <title>uchamp_people2</title>
  <g>
    <path class="cls-1" d="M59.47,338.42s15,40,16,52.66c0,0,3.77,3,10.2.35,0,0,.17-38.27-6.12-50.1S59.47,338.42,59.47,338.42Z" transform="translate(-36.34 -52.83)"/>
    <g>
      <path class="cls-2" d="M56.19,408.69H87.83a14.51,14.51,0,0,0-.7-9.23s1.39-5.47.85-7.27-7-4-8.79-2.11A5,5,0,0,0,78,394c-.89-5-3.17-5.43-5.37-3.46s.49,1,0,4.29a2.93,2.93,0,0,1-.18.66,3.72,3.72,0,0,1-.86,1.27,7,7,0,0,1-1.26.94,8.22,8.22,0,0,1-.78.42,12.38,12.38,0,0,1-1.69.62,15.34,15.34,0,0,1-3,.57c-4.34.4-6.07.71-8.06,2.95s-.73,4-.73,4Z" transform="translate(-36.34 -52.83)"/>
      <g>
        <path class="cls-3" d="M72.49,395.47a3.72,3.72,0,0,1-.86,1.27,3.72,3.72,0,0,1,4.38.9l.81-1A3.31,3.31,0,0,0,72.49,395.47Z" transform="translate(-36.34 -52.83)"/>
        <path class="cls-3" d="M73.14,400l1.1-.69a3.44,3.44,0,0,0-2.61-2.52,7,7,0,0,1-1.26.94A3.72,3.72,0,0,1,73.14,400Z" transform="translate(-36.34 -52.83)"/>
        <path class="cls-3" d="M70.08,401.15l1.16-.58a3.6,3.6,0,0,0-1.65-2.47,12.38,12.38,0,0,1-1.69.62A3.76,3.76,0,0,1,70.08,401.15Z" transform="translate(-36.34 -52.83)"/>
      </g>
    </g>
    <path class="cls-2" d="M124.05,401.11a6.82,6.82,0,0,0,2.38-2.71,27.49,27.49,0,0,0,0-7.66c-.62-3.92,1.09-7.12,6.64-8.32,5.39-1.17,8.6,1.43,7.35,12.28h0c.82,4.51,1,9.65-.88,14H122.93S120.31,403.08,124.05,401.11Z" transform="translate(-36.34 -52.83)"/>
    <path class="cls-1" d="M109.48,342.63a50.45,50.45,0,0,0,6.1,21.93c6.22,11.31,13.91,26.82,13.91,26.82s5.12,5,8.37-3.28c0,0-2.29-28.81-7.57-39.36S109.48,342.63,109.48,342.63Z" transform="translate(-36.34 -52.83)"/>
    <g>
      <path class="cls-2" d="M136.68,392.41s1.53-3.14.16-4.48-3,1.15-5.32.59-2.88-2.22-3.49.05S128.16,398,136.68,392.41Z" transform="translate(-36.34 -52.83)"/>
      <path class="cls-3" d="M127.87,392.27s6.28,2.22,9.54,0l-.83,2.72s-6.83.72-7.77-1Z" transform="translate(-36.34 -52.83)"/>
      <path class="cls-3" d="M128,395.65s5.76-.8,8.53.63v1.35s-7.5-1.75-9.92,0Z" transform="translate(-36.34 -52.83)"/>
      <path class="cls-3" d="M136.76,400.43a5.26,5.26,0,0,0-4.62-2.92,9.14,9.14,0,0,0-5.86,1.74S131.83,397,136.76,400.43Z" transform="translate(-36.34 -52.83)"/>
    </g>
    <g>
      <path class="cls-4" d="M135.15,339.78a16.66,16.66,0,0,1-1.87,3.13c-.15.21-.32.42-.5.64-3.46,4.28-11.07,10-25,4.36,0,0-.35-.8-.84-2.06-.08-.22-.17-.45-.27-.7a51.39,51.39,0,0,1-2.5-8.35c-3.63-20.16-5-34.77-6.9-43.06C92,306.62,80,331.61,79.45,332.68c-.67,1.33,2,9.93,2,9.93-10,3.26-24.33-.9-24.33-.9s-4.34-12.7-5-21.76c-.51-6.94,17-45.82,25.18-63.64.21-.47.42-.91.61-1.35,2.16-4.67,3.54-7.58,3.54-7.58l14,4.73,34,15.3s.6.69,1.16,7.7c0,.18,0,.38,0,.56.32,4.17.62,10.42.8,19.78V296q.06,3.06.1,6.57v.56c0,5.38.05,11.56,0,18.68,0,.19,0,.38,0,.58,0,2.21,0,4.5-.06,6.89,0,2.18,1.7,6.3,2.78,8.67.09.2.18.39.25.56C134.91,339.3,135.15,339.78,135.15,339.78Z" transform="translate(-36.34 -52.83)"/>
      <path class="cls-5" d="M133.28,342.91c-.15.21-.32.42-.5.64-1.55-2.64-4-7.14-4.52-10.22-.81-4.42-1.2-21.8,0-40.09,1.16-17.73-2.74-35.12-2.78-35.3l.73-.16c0,.17,4,17.67,2.8,35.51-1.19,18.23-.81,35.53,0,39.9C129.52,336,131.76,340.28,133.28,342.91Z" transform="translate(-36.34 -52.83)"/>
      <path class="cls-5" d="M128,273.21c-10.87-3.91-13.64-12.82-13.67-12.91l.72-.22c0,.09,2.71,8.64,13.2,12.43Z" transform="translate(-36.34 -52.83)"/>
      <path class="cls-5" d="M87.91,253.3a3.74,3.74,0,0,1-1.6.25c-2.11.13-6,.36-9,2.76.21-.47.42-.91.61-1.35a17.65,17.65,0,0,1,8.35-2.16,7,7,0,0,0,1.24-.13Z" transform="translate(-36.34 -52.83)"/>
      <path class="cls-5" d="M97,293.91c-7.9-15.76,2.32-36.94,2.43-37.15l.67.33c-.1.21-10.16,21.06-2.43,36.48Z" transform="translate(-36.34 -52.83)"/>
      <path class="cls-5" d="M95.41,278.53a3.82,3.82,0,0,1-1.2-.17l.23-.71a3.58,3.58,0,0,0,2.8-.39c1.15-.74,1.86-2.24,2.12-4.44.78-6.66,5.87-14.88,6.09-15.22l.64.39c-.06.09-5.23,8.43-6,14.91-.28,2.45-1.11,4.13-2.46,5A4.09,4.09,0,0,1,95.41,278.53Z" transform="translate(-36.34 -52.83)"/>
    </g>
    <path class="cls-6" d="M57.35,104.91s1.24-2.84,6.46-2.85c4,0,5.56,2.22,5.56,2.22,2.4,7,5,34,5.91,34.92.47.48,30.49,23.4,30.49,23.4C89.58,162.9,89,189.8,89,189.8c-.52-6.56-23.1-23.08-28.83-33.87C54.78,145.89,52.19,121.29,57.35,104.91Z" transform="translate(-36.34 -52.83)"/>
    <path class="cls-7" d="M154.44,201c-2.46,27.14-12.26,53.37-15.66,64.3-.73,2.36-1.17,3.68-1.17,3.68s-53.23-6.9-59.53-21.28c0,0,.1-.39.27-1.13,1.59-6.54,9.45-33,10.35-54.69,1-24.11,9.08-32.64,14-31.54,0,0,11,8.7,18.06,8.67s23.88-7.67,23.88-7.67S157.43,168,154.44,201Z" transform="translate(-36.34 -52.83)"/>
    <circle class="cls-8" cx="84.48" cy="103.11" r="3.19"/>
    <path class="cls-6" d="M186.59,106.81s-1.24-2.84-6.46-2.84c-4,0-5.55,2.22-5.55,2.22-2.41,7-5,33.95-5.92,34.91-.47.49-30.49,23.4-30.49,23.4-.72,18.8,16.82,27.21,16.82,27.21.52-6.56,23.1-23.08,28.83-33.87C189.16,147.79,191.75,123.19,186.59,106.81Z" transform="translate(-36.34 -52.83)"/>
    <path class="cls-6" d="M114.07,168.65s-2.92,1.16-3.52,2.43,1.64,6.48,5.94,6.87,12.46-4.56,12.13-6.17S122.18,168.11,114.07,168.65Z" transform="translate(-36.34 -52.83)"/>
    <path class="cls-9" d="M113.65,162.6s1.6,6.61-.85,9.25c0,0,4,6.44,13-.07,0,0-1.72-4.34,0-7.16Z" transform="translate(-36.34 -52.83)"/>
    <g>
      <path class="cls-8" d="M139.16,144.61a3.26,3.26,0,0,0-2.63-3.19,3.19,3.19,0,0,0,.95-2.29,3.24,3.24,0,0,0-3.16-3.24,3.25,3.25,0,0,0-2.73-5,3.2,3.2,0,0,0-2,.73,3.24,3.24,0,0,0-6-1.77,3.23,3.23,0,0,0-5.88-.56,3.23,3.23,0,0,0-5.47,2.11,3.24,3.24,0,0,0-5,2.74,3.17,3.17,0,0,0,.1.76h-.1a3.25,3.25,0,0,0-2.34,5.5,3.24,3.24,0,0,0-.49,6.23,3.23,3.23,0,0,0,1.48,5.84,6.66,6.66,0,0,0,2.94,4.09c1.47,1.35,13.47,2.72,19.21,2.23a3.24,3.24,0,0,0,5.58-2.25v0a3.24,3.24,0,0,0,2.92-3.22,3.43,3.43,0,0,0-.13-.85,3.24,3.24,0,0,0,1.24-5.06A3.26,3.26,0,0,0,139.16,144.61Z" transform="translate(-36.34 -52.83)"/>
      <path class="cls-1" d="M131.34,150.74s3.39-3.39,3.81.57c.49,4.59-3.68,6.44-4.5,5S131.34,150.74,131.34,150.74Z" transform="translate(-36.34 -52.83)"/>
      <path class="cls-1" d="M107.55,151s-3.39-3.39-3.81.57c-.49,4.59,3.68,6.44,4.5,5S107.55,151,107.55,151Z" transform="translate(-36.34 -52.83)"/>
      <path class="cls-1" d="M119.8,167.37c7.54,0,11.79-4.93,11.79-19.69,0-7.62-3.87-12.29-12.31-12.29s-12,4.67-12,12.29C107.28,163.54,112,167.37,119.8,167.37Z" transform="translate(-36.34 -52.83)"/>
      <path class="cls-10" d="M109.77,152.94a1.79,1.79,0,1,0,2-1.07A1.61,1.61,0,0,0,109.77,152.94Z" transform="translate(-36.34 -52.83)"/>
      <path class="cls-10" d="M125.28,153.36a1.78,1.78,0,1,0,1.64-1.51A1.59,1.59,0,0,0,125.28,153.36Z" transform="translate(-36.34 -52.83)"/>
      <path class="cls-8" d="M113.09,145a.38.38,0,0,0,.29-.08,4.35,4.35,0,0,1,3-.59.37.37,0,0,0,.44-.3.38.38,0,0,0-.3-.44,5.08,5.08,0,0,0-3.63.74.39.39,0,0,0-.07.53A.4.4,0,0,0,113.09,145Z" transform="translate(-36.34 -52.83)"/>
      <path class="cls-8" d="M127.52,145.08a.38.38,0,0,0,.24-.13.37.37,0,0,0-.05-.53,5.07,5.07,0,0,0-3.6-.85.37.37,0,0,0,.12.74,4.38,4.38,0,0,1,3,.69A.39.39,0,0,0,127.52,145.08Z" transform="translate(-36.34 -52.83)"/>
      <path class="cls-11" d="M113.87,149.28c0,.94.42,1.7.94,1.7s1-.76,1-1.7-.43-1.69-1-1.69S113.87,148.35,113.87,149.28Z" transform="translate(-36.34 -52.83)"/>
      <path class="cls-11" d="M123.94,149.28c0,.94.42,1.7.94,1.7s.94-.76.94-1.7-.42-1.69-.94-1.69S123.94,148.35,123.94,149.28Z" transform="translate(-36.34 -52.83)"/>
      <path class="cls-8" d="M128.25,139s-5.24-.36-16.76-1.19c0,0-4.21,4.39-3.91,15.19,0,0-6.75-19.45,12.94-19.45s10.81,19,10.81,19S131.91,142.65,128.25,139Z" transform="translate(-36.34 -52.83)"/>
      <path class="cls-10" d="M119.33,154.32l.56-.57-1.49-1.48c1.44-2.05,1.44-6.78,1.44-7H119c0,.05,0,5.14-1.47,6.73l-.26.29Z" transform="translate(-36.34 -52.83)"/>
      <path class="cls-11" d="M124.33,156.78s-7.42.31-11.16-.68a5,5,0,0,0,5.08,5.67C124.33,162.05,124.33,156.78,124.33,156.78Z" transform="translate(-36.34 -52.83)"/>
    </g>
    <path class="cls-12" d="M64.33,101.35s-5.59.26-5.57,2,0,4,4.69,3.7,4.72-2.08,4.78-3.83S65.85,101.2,64.33,101.35Z" transform="translate(-36.34 -52.83)"/>
    <path class="cls-12" d="M181.56,102.37s-5.59,0-5.67,1.75-.18,3.94,4.49,3.94,4.83-1.83,5-3.57S183.09,102.3,181.56,102.37Z" transform="translate(-36.34 -52.83)"/>
    <g>
      <path class="cls-1" d="M55.54,90.18a24,24,0,0,1,2.13,4.46c.55,3,.87,4.61,1.92,6s.48,3.78.48,3.78,4.05,2.07,7.44-.49c0,0-.35-2.39,0-3.07.7-1.35,2.95-2.07,3.71-4.8a21.42,21.42,0,0,1,3.07-5.8s-.66-1.42-1.86-.56-2,3.07-2.63,3.29a1.44,1.44,0,0,1-.4.09h0a1.6,1.6,0,0,1-1.32-.34.18.18,0,0,1-.08-.07c-1.1-1.28-1.36-5-1.31-6.71.07-2.33,0-5.55-1.44-5s-.13,1.84-1.23,7l-.53.07c-.1.36-1.08-3.12-1.31-6.4-.17-2.25-1.64-1.42-2-.71s.16,3,.26,4.59c.08,1.07.17,2.19.22,2.86l-.62.35c-2.24-3.91-1.47-5.53-2.78-5.61s-.84,3.22-.14,4.47A12.34,12.34,0,0,1,58,90.34c-2.29-2.65-2-4-3.09-3.88S54.75,89.27,55.54,90.18Z" transform="translate(-36.34 -52.83)"/>
      <path class="cls-9" d="M65.47,96.3c.78-2.14,3.55-3.12,3.9-3.23a1.6,1.6,0,0,1-1.32-.34A3.9,3.9,0,0,0,65.47,96.3Z" transform="translate(-36.34 -52.83)"/>
    </g>
    <g>
      <path class="cls-1" d="M188.59,90.92a23.78,23.78,0,0,0-2.12,4.45c-.56,3-.88,4.62-1.92,6s-.49,3.77-.49,3.77-4,2.08-7.44-.49c0,0,.36-2.38,0-3.06-.7-1.35-2.94-2.08-3.71-4.81A21.26,21.26,0,0,0,169.85,91s.65-1.42,1.85-.56,2,3.07,2.63,3.29a2.07,2.07,0,0,0,.4.09h0a1.64,1.64,0,0,0,1.32-.35l.08-.06c1.09-1.28,1.35-5,1.31-6.71-.07-2.33,0-5.55,1.44-5s.12,1.85,1.22,7l.53.06c.1.37,1.08-3.12,1.31-6.39.17-2.25,1.65-1.42,2-.71s-.17,3-.27,4.58c-.08,1.08-.16,2.2-.22,2.87l.62.34c2.24-3.91,1.48-5.53,2.79-5.6s.83,3.22.13,4.47a12.19,12.19,0,0,0-.82,2.79c2.3-2.66,2-4,3.1-3.88S189.39,90,188.59,90.92Z" transform="translate(-36.34 -52.83)"/>
      <path class="cls-9" d="M178.66,97c-.77-2.14-3.55-3.12-3.89-3.23a1.64,1.64,0,0,0,1.32-.35A3.9,3.9,0,0,1,178.66,97Z" transform="translate(-36.34 -52.83)"/>
    </g>
    <path class="cls-6" d="M138.78,265.32c-.73,2.36-1.17,3.68-1.17,3.68s-53.23-6.9-59.53-21.28c0,0,.1-.39.27-1.13C81.74,252.2,122.54,265.84,138.78,265.32Z" transform="translate(-36.34 -52.83)"/>
  </g>
  <g>
    <g>
      <path class="cls-5" d="M331.78,409.41h25.89c1.81-10.29-1.08-20.6-1.08-20.6l-11.83-2c-1.08,6.51-2.38,9.07-4.18,10.39h0c-1.31,1-2.88,1.27-4.83,1.95a6.2,6.2,0,0,0-4,3.71A11.05,11.05,0,0,0,331.78,409.41Z" transform="translate(-36.34 -52.83)"/>
      <path class="cls-13" d="M331.74,402.83c6.39.8,20.41,2.17,19.56-1.53-.72-3.08-6.63-3.92-10.72-4.13h0c-1.31,1-2.88,1.27-4.83,1.95A6.2,6.2,0,0,0,331.74,402.83Z" transform="translate(-36.34 -52.83)"/>
    </g>
    <g>
      <path class="cls-5" d="M418.49,409.41h25.89a12,12,0,0,0,.44-5,6.27,6.27,0,0,0-4.4-5.3c-2.25-.78-4-1.07-5.38-2.39s-2.67-4.11-3.64-10l-11.83,2S416.69,399.12,418.49,409.41Z" transform="translate(-36.34 -52.83)"/>
      <path class="cls-13" d="M444.82,404.42a6.27,6.27,0,0,0-4.4-5.3c-2.25-.78-4-1.07-5.38-2.39-3.27,1-7.86,2.86-9.28,5.67C423.78,406.25,438.92,405.64,444.82,404.42Z" transform="translate(-36.34 -52.83)"/>
    </g>
    <g>
      <path class="cls-14" d="M433.26,388.54s-2,6.43-14.87,2c0,0-9.58-72-11.06-73.54s-16.68-48.59-16.68-48.59h-4.76s-15.2,47-16.68,48.59-11,73.54-11,73.54c-12.91,4.44-14.88-2-14.88-2l6.2-77.58,12.92-80,25.87,2.89L414.14,231l3.37,20.89.14.82L427.06,311Z" transform="translate(-36.34 -52.83)"/>
      <g>
        <path class="cls-15" d="M417.65,252.68A17.08,17.08,0,0,1,406,242.25l.72-.22a16.29,16.29,0,0,0,10.75,9.83Z" transform="translate(-36.34 -52.83)"/>
        <path class="cls-15" d="M390.05,261.3a3.46,3.46,0,0,1-2.62,1.09c0,1.93,0,4-.11,6h-.75a120.12,120.12,0,0,0-.54-17.06l.74-.09c0,.08.53,4.64.64,10.38a2.77,2.77,0,0,0,2.1-.84c2.47-2.61,1-10.15,1-10.22l.74-.14C391.33,250.75,392.79,258.42,390.05,261.3Z" transform="translate(-36.34 -52.83)"/>
      </g>
    </g>
    <g>
      <path class="cls-1" d="M459.78,90.26a23.63,23.63,0,0,0-4.37,2.28c-2.24,2-3.48,3.15-5.14,3.61s-1.79,3.48-1.79,3.48-6.33,2.7-7.49-1.39c0,0,2.69-5.93,2.82-6.68.26-1.51-1.1-3.43-.06-6.07a21.44,21.44,0,0,0,1-6.48s1.38-.74,1.82.68-.27,3.63.12,4.21a1.53,1.53,0,0,0,.26.31s0,0,0,0a1.63,1.63,0,0,0,1.26.52h.1c1.65-.36,4.12-3.2,5.09-4.56,1.35-1.9,3.36-4.42,4.17-3.13s-1,1.55-3.23,6.31l.38.37c-.14.36,2.74-1.84,4.9-4.31,1.49-1.7,2.17-.14,2,.62s-1.92,2.25-3,3.5l-1.9,2.15.29.65c4.14-1.77,4.51-3.53,5.6-2.8s-1.28,3.07-2.59,3.65a12.67,12.67,0,0,0-2.33,1.73c3.43-.73,4.06-2,4.8-1.22S461,90,459.78,90.26Z" transform="translate(-36.34 -52.83)"/>
      <path class="cls-9" d="M448.17,89.16c.68-2.18-.95-4.63-1.16-4.92a1.63,1.63,0,0,0,1.26.52A3.88,3.88,0,0,1,448.17,89.16Z" transform="translate(-36.34 -52.83)"/>
    </g>
    <g>
      <path class="cls-1" d="M265.56,122.68a24.24,24.24,0,0,1,4.59,1.79c2.45,1.78,3.81,2.76,5.51,3s2.15,3.26,2.15,3.26,6.59,2,7.3-2.2c0,0-3.33-5.6-3.53-6.34-.42-1.47.71-3.53-.6-6a21.28,21.28,0,0,1-1.75-6.32s-1.45-.59-1.73.87.66,3.58.34,4.19a1.69,1.69,0,0,1-.23.34l0,0a1.64,1.64,0,0,1-1.19.66.2.2,0,0,1-.11,0c-1.67-.17-4.43-2.73-5.55-4-1.55-1.74-3.83-4-4.49-2.65s1.18,1.42,3.91,5.92l-.35.41c.18.34-2.92-1.53-5.34-3.75-1.66-1.53-2.17.09-1.91.83s2.14,2,3.34,3.15c.79.73,1.63,1.49,2.12,1.93l-.21.68c-4.32-1.3-4.87-3-5.88-2.17s1.61,2.92,3,3.35a12.68,12.68,0,0,1,2.5,1.46c-3.49-.35-4.25-1.53-4.91-.69S264.35,122.57,265.56,122.68Z" transform="translate(-36.34 -52.83)"/>
      <path class="cls-9" d="M277,120.33c-.9-2.1.45-4.71.62-5a1.64,1.64,0,0,1-1.19.66A3.9,3.9,0,0,0,277,120.33Z" transform="translate(-36.34 -52.83)"/>
    </g>
    <g>
      <path class="cls-7" d="M450.19,100.93s-.69,2.53-1.81,6.35c-.45,1.56-1,3.33-1.56,5.24-.9,3-1.93,6.21-3,9.45-.59,1.77-1.2,3.53-1.82,5.23a89.86,89.86,0,0,1-4.69,11.1c-.21.39-.42.76-.62,1.1a23.47,23.47,0,0,1-2.51,3.3,86.63,86.63,0,0,1-6.66,6.68c-1.31,1.21-2.7,2.45-4.13,3.69-2.34,2-4.79,4.09-7.22,6.07-1.52,1.25-3,2.47-4.49,3.63-7.49,6-13.69,10.56-13.69,10.56l-11.18-22.84c3.19-2.16,9.07-5.78,15.22-9.48l4.36-2.63,6.5-3.87,4.45-2.62,4.67-2.75,2-1.15,1.36-2.64c1-1.93,2.46-4.77,4.14-8,.74-1.42,1.52-2.92,2.33-4.44,1.27-2.42,2.6-4.91,3.88-7.29.83-1.54,1.65-3,2.41-4.43,2.15-3.88,3.95-7,4.88-8.22A12,12,0,0,1,450.19,100.93Z" transform="translate(-36.34 -52.83)"/>
      <path class="cls-16" d="M416.15,159.14c-1.52,1.25-3,2.47-4.49,3.63A42.58,42.58,0,0,0,402,141l4.36-2.63A47.22,47.22,0,0,1,416.15,159.14Z" transform="translate(-36.34 -52.83)"/>
      <path class="cls-16" d="M427.5,149.38c-1.31,1.21-2.7,2.45-4.13,3.69-2.61-9.9-7.41-15.69-10.5-18.56l4.45-2.62A43,43,0,0,1,427.5,149.38Z" transform="translate(-36.34 -52.83)"/>
      <path class="cls-16" d="M437.29,138.3c-.21.39-.42.76-.62,1.1a23.47,23.47,0,0,1-2.51,3.3A50.87,50.87,0,0,0,422,129.14l2-1.15,1.36-2.64A54.88,54.88,0,0,1,437.29,138.3Z" transform="translate(-36.34 -52.83)"/>
      <path class="cls-16" d="M443.8,122c-.59,1.77-1.2,3.53-1.82,5.23a64.89,64.89,0,0,0-12.53-9.83c.74-1.42,1.52-2.92,2.33-4.44A71.57,71.57,0,0,1,443.8,122Z" transform="translate(-36.34 -52.83)"/>
      <path class="cls-16" d="M448.38,107.28c-.45,1.56-1,3.33-1.56,5.24a39.11,39.11,0,0,0-11.16-6.88c.83-1.54,1.65-3,2.41-4.43A45.51,45.51,0,0,1,448.38,107.28Z" transform="translate(-36.34 -52.83)"/>
    </g>
    <g>
      <path class="cls-7" d="M355.73,156.41l-2,25.35s-7-1.87-15.79-4.54c-1.69-.51-3.44-1.05-5.21-1.61-3.13-1-6.34-2.05-9.44-3.14-1.69-.59-3.34-1.18-4.93-1.79a90.76,90.76,0,0,1-9.65-4.15,23.54,23.54,0,0,1-3.45-2.1c-.29-.22-.59-.47-.91-.75a78.31,78.31,0,0,1-7.34-7.51c-1.11-1.28-2.25-2.61-3.4-4-2.25-2.71-4.5-5.53-6.56-8.18-1.11-1.41-2.15-2.77-3.12-4-3.54-4.66-6-8.07-6-8.07.25-5.91,4.64-7.59,4.64-7.59,1.56,1,5.2,3.83,9.44,7.29l3.91,3.21c2.25,1.86,4.54,3.78,6.67,5.58l3.84,3.23,4.74,4,1.74,1.48,2.92.45,6.4,1,5,.8,6.84,1.12,5,.82C345.81,154.48,352.15,155.61,355.73,156.41Z" transform="translate(-36.34 -52.83)"/>
      <path class="cls-16" d="M337.94,177.22c-1.69-.51-3.44-1.05-5.21-1.61a72.39,72.39,0,0,1,1.38-23.09l5,.82A68.24,68.24,0,0,0,337.94,177.22Z" transform="translate(-36.34 -52.83)"/>
      <path class="cls-16" d="M327.27,151.4a70.75,70.75,0,0,0-4,21.07c-1.69-.59-3.34-1.18-4.93-1.79a75.05,75.05,0,0,1,3.87-20.08Z" transform="translate(-36.34 -52.83)"/>
      <path class="cls-16" d="M315.83,149.59a94.12,94.12,0,0,0-7.12,16.94,23.54,23.54,0,0,1-3.45-2.1c-.29-.22-.59-.47-.91-.75a101.21,101.21,0,0,1,6.82-16l1.74,1.48Z" transform="translate(-36.34 -52.83)"/>
      <path class="cls-16" d="M306.43,143.62A99.3,99.3,0,0,0,297,156.17c-1.11-1.28-2.25-2.61-3.4-4a105.31,105.31,0,0,1,9-11.8Z" transform="translate(-36.34 -52.83)"/>
      <path class="cls-16" d="M295.92,134.81a92,92,0,0,0-8.87,9.2c-1.11-1.41-2.15-2.77-3.12-4A95.1,95.1,0,0,1,292,131.6Z" transform="translate(-36.34 -52.83)"/>
    </g>
    <g>
      <path class="cls-7" d="M422.67,237s-14,14.63-33,18.25A193.06,193.06,0,0,1,358,258.5s-.85-3.81-2.16-9.79c-.33-1.54-.7-3.23-1.09-5-.7-3.23-1.48-6.84-2.29-10.66q-.53-2.45-1.06-5c-.66-3.11-1.33-6.31-2-9.52-.34-1.65-.68-3.31-1-5-.83-4.07-1.64-8.1-2.38-11.92q-.51-2.59-1-5c-.87-4.58-1.6-8.72-2.13-12.09-.31-2-.55-3.73-.7-5.12-.05-.5-.09-1-.12-1.37-.25-3.47-.38-6.69-.42-9.58,0-1.88,0-3.61,0-5.17.09-5.51.42-8.88.42-8.88,3.95-2.7,31.18,6,31.18,6s20.11-17.31,23.26-16.06a12.2,12.2,0,0,1,5.08,4.57,35,35,0,0,1,2.64,4.5,79.73,79.73,0,0,1,4.07,9.94c.58,1.72,1.15,3.52,1.71,5.38.92,3.07,1.78,6.3,2.61,9.62.41,1.68.82,3.39,1.21,5.11.74,3.24,1.44,6.53,2.08,9.81q.53,2.61,1,5.19c.55,3,1.07,5.88,1.54,8.7.31,1.82.6,3.61.87,5.34.61,3.85,1.14,7.44,1.59,10.62.27,2,.51,3.74.72,5.35C422.32,233.78,422.67,237,422.67,237Z" transform="translate(-36.34 -52.83)"/>
      <path class="cls-16" d="M404.22,153.43c-6.08,6.2-16.79,15.33-29.11,17.79a42.25,42.25,0,0,1-8.14.71c-8,0-17.23-1.61-25.33-3.5,0-1.88,0-3.61,0-5.17,10.78,2.6,23.8,4.79,32.49,3.06,11.61-2.31,22-11.69,27.45-17.39A35,35,0,0,1,404.22,153.43Z" transform="translate(-36.34 -52.83)"/>
      <path class="cls-16" d="M410,168.75c-6.21,5.82-21.8,16.7-51.42,16.7a134.6,134.6,0,0,1-15.7-.95c-.31-2-.55-3.73-.7-5.12,43.15,5.35,61.91-11.48,66.11-16C408.87,165.09,409.44,166.89,410,168.75Z" transform="translate(-36.34 -52.83)"/>
      <path class="cls-16" d="M413.82,183.48c-12,6.77-36.59,18.18-65.6,18.18q-1.12,0-2.25,0-.51-2.59-1-5c30.1.87,56.17-11.7,67.6-18.22C413,180.05,413.43,181.76,413.82,183.48Z" transform="translate(-36.34 -52.83)"/>
      <path class="cls-16" d="M416.9,198.48c-10.42,5.69-37,18.47-67.54,20-.34-1.65-.68-3.31-1-5,31.11-1.45,58.65-15.32,67.55-20.26Q416.43,195.9,416.9,198.48Z" transform="translate(-36.34 -52.83)"/>
      <path class="cls-16" d="M419.31,212.52c-11.93,7-37.91,20-66.89,20.5q-.53-2.45-1.06-5c29.41-.26,56.38-14.44,67.08-20.85C418.75,209,419,210.79,419.31,212.52Z" transform="translate(-36.34 -52.83)"/>
      <path class="cls-16" d="M421.62,228.49c-12.29,6.85-39.46,20.25-64.05,20.25l-1.77,0c-.33-1.54-.7-3.23-1.09-5,25.06,1.17,54.87-14.13,66.19-20.54C421.17,225.09,421.41,226.88,421.62,228.49Z" transform="translate(-36.34 -52.83)"/>
    </g>
    <path class="cls-9" d="M377,150.29s-.81,6.78,1.69,8.85c0,0-1.27,4.84-5,5.75-4.34,1.07-6.78-3.5-6.78-3.5s1.14-6.61-1.59-8.34Z" transform="translate(-36.34 -52.83)"/>
    <g>
      <path class="cls-17" d="M380.25,135.91s2.65-4.48-3.68-11.6c0,0-3-6.81-13.34-8.37s-18,9.7-18,15.9,3.67,0,3.67,0,.83,4.34,2,6.27c0,0-.38,6.24,3.56,6.25S380.25,135.91,380.25,135.91Z" transform="translate(-36.34 -52.83)"/>
      <path class="cls-1" d="M356.53,143.4s-4.11-2-3.28,1.68c.95,4.31,5.3,4.72,5.59,3.15S356.53,143.4,356.53,143.4Z" transform="translate(-36.34 -52.83)"/>
      <path class="cls-1" d="M378.16,136.39s2-4.1,3.63-.64c1.84,4-1.38,7-2.56,5.88S378.16,136.39,378.16,136.39Z" transform="translate(-36.34 -52.83)"/>
      <path class="cls-1" d="M372,155c-6.83,2.29-12.18-.88-16.67-14.26-2.31-6.91-.22-12.32,7.43-14.88s12.29.58,14.61,7.49C382.23,147.7,379.1,152.6,372,155Z" transform="translate(-36.34 -52.83)"/>
      <path class="cls-10" d="M376.75,138.85a1.71,1.71,0,1,1-2.1-.38A1.53,1.53,0,0,1,376.75,138.85Z" transform="translate(-36.34 -52.83)"/>
      <path class="cls-10" d="M362.82,143.93a1.71,1.71,0,1,1-1.95-.86A1.53,1.53,0,0,1,362.82,143.93Z" transform="translate(-36.34 -52.83)"/>
      <path class="cls-12" d="M371.29,133a.34.34,0,0,1-.28,0,4.15,4.15,0,0,0-2.95-.07.35.35,0,0,1-.46-.21.36.36,0,0,1,.21-.46,4.83,4.83,0,0,1,3.54.1.37.37,0,0,1,.15.49A.35.35,0,0,1,371.29,133Z" transform="translate(-36.34 -52.83)"/>
      <path class="cls-12" d="M358.43,137.27a.42.42,0,0,1-.27,0,.36.36,0,0,1-.17-.48,4.8,4.8,0,0,1,2.75-2.21.35.35,0,0,1,.45.24.37.37,0,0,1-.24.45,4.15,4.15,0,0,0-2.31,1.83A.36.36,0,0,1,358.43,137.27Z" transform="translate(-36.34 -52.83)"/>
      <path class="cls-11" d="M371.92,136.78c.28.84.13,1.66-.34,1.82s-1.08-.4-1.37-1.25-.13-1.67.34-1.82S371.63,135.93,371.92,136.78Z" transform="translate(-36.34 -52.83)"/>
      <path class="cls-11" d="M362.8,139.83c.28.85.13,1.67-.34,1.83s-1.09-.4-1.37-1.25-.13-1.67.34-1.83S362.51,139,362.8,139.83Z" transform="translate(-36.34 -52.83)"/>
      <path class="cls-11" d="M365.84,148.91s6.28-1.24,8.88-3.77c0,0-.37,4.69-3.79,5.42A4.93,4.93,0,0,1,365.84,148.91Z" transform="translate(-36.34 -52.83)"/>
      <path class="cls-10" d="M370.06,145.11a6.77,6.77,0,0,1-1.62.29l0-.77c.78,0,2-.3,2.09-.67.06-.13-.06-.35-.3-.61-1.7-1.77-3.68-7-3.77-7.24l.72-.27c0,.06,2,5.33,3.6,7a1.35,1.35,0,0,1,.47,1.42A1.75,1.75,0,0,1,370.06,145.11Z" transform="translate(-36.34 -52.83)"/>
      <path class="cls-12" d="M360.82,122.78c-15.28,5.67-6.1,20.08-6.1,20.08l2.21,2c-1-4.14-.28-6.43-.28-6.43a9.38,9.38,0,0,1-.85-6c1.94-1.64,6.69-4.73,15.49-5.67.07.08,2.36,2.43,2.61,4.72a22.38,22.38,0,0,1,5,7l.26-3.54S375.65,117.28,360.82,122.78Z" transform="translate(-36.34 -52.83)"/>
    </g>
  </g>
  <g>
    <g>
      <path class="cls-7" d="M359.52,389.76l-6.73,1.57S342.27,335,339.85,329c-2.08-5.14-11-24.8-13.92-39.9a10.51,10.51,0,0,1-2.31-.33h0l-1-.21-1-.21c-.25,15.05-3.52,33.61-4.52,38.81-1.21,6.31-.56,63.7-.56,63.7l-6.91-.23c-13.11-46.47-6.19-63.93-6.19-63.93s-12-41.83-7.76-56.58A99.09,99.09,0,0,1,300.54,257c.14-.31.27-.61.42-.9a87.9,87.9,0,0,1,6.11-11.31l14.05,1.76.13-.23.41.08v4.41l1.78-.09.4,0h0l5.83-.31.8,0,5.1-.27s3.06,4.87,7.42,12.7l.49.9c1.55,2.81,3.25,6,5,9.4,7.05,13.65,4.64,52.83,4.64,52.83S363.34,341.63,359.52,389.76Z" transform="translate(-36.34 -52.83)"/>
      <path class="cls-18" d="M311.7,246.39c-.05.1-3.67,8.71-11.16,10.59.14-.31.27-.61.42-.9,6.72-2.09,10-9.88,10-10Z" transform="translate(-36.34 -52.83)"/>
      <path class="cls-18" d="M343.49,263.65c-8.39-1.8-12.67-10.58-13.81-13.29-.2-.49-.3-.78-.31-.8l.71-.25s.14.4.4,1c1.2,2.78,5.13,10.47,12.52,12.43Z" transform="translate(-36.34 -52.83)"/>
      <path class="cls-18" d="M323.61,288.76l-1-.21a59.76,59.76,0,0,1-5.26-15.16c-2.62-11.62,3.34-24,3.4-24.12l.68.33c-.06.12-5.91,12.27-3.35,23.63.11.48.22.95.33,1.4l.18.73A53.9,53.9,0,0,0,323.61,288.76Z" transform="translate(-36.34 -52.83)"/>
      <path class="cls-18" d="M318.22,275.4h-.11l.05-.75a1.62,1.62,0,0,0,1.23-.62c.5-.56,1.56-2.36.7-6.77-1.15-5.92,3.23-16.29,3.42-16.73l.69.3c-.05.1-4.48,10.6-3.37,16.29.89,4.56-.17,6.6-.88,7.41A2.37,2.37,0,0,1,318.22,275.4Z" transform="translate(-36.34 -52.83)"/>
    </g>
    <path class="cls-8" d="M318.37,191.76s2.23-4-.9-10.95-2.49-26.05,13.19-25.23c0,0,9.3-1.55,14,4.55s8.5,27.56,3.59,43.49S312.07,215.29,318.37,191.76Z" transform="translate(-36.34 -52.83)"/>
    <path class="cls-1" d="M335.59,250.05a32.3,32.3,0,0,1-28.51-5.28s-2.57-52.83,2.32-56.37c2.14-1.55,6.36-.31,10.43,1.58a78.36,78.36,0,0,1,10.27,6s9.11-1.29,16.29-.5c4.57.49,8.35,1.83,8.52,4.86C355.36,208.1,335.59,250.05,335.59,250.05Z" transform="translate(-36.34 -52.83)"/>
    <path class="cls-9" d="M346.78,195.55c-3.08-.32-3.65,2-6.73,3.13a42.88,42.88,0,0,1-8.19,2.13c-1.4.13-2.14,1.87-2.14,1.87s-.5-2.35-1.26-2.55-7.27-6.76-8.63-10.15a78.36,78.36,0,0,1,10.27,6s9.11-1.29,16.29-.5Z" transform="translate(-36.34 -52.83)"/>
    <g>
      <path class="cls-2" d="M306.56,396.48c.43-2.88-.64-4.92.11-6.31,1.17-2.14,2.39.57,2.39.57.1-3.27,5.57-3.26,6.12-1.77a9.33,9.33,0,0,0,.48,1.1c.34-.78.92-1.55,1.67-1.1,2.92,1.75-.71,6.27,1.95,9.56,3.38,4.19,1.3,10.53,1.3,10.53H304.36C302.47,400.17,306.14,399.34,306.56,396.48Z" transform="translate(-36.34 -52.83)"/>
      <path class="cls-3" d="M316.58,395.4s-3.84-2-8.92.66l1-1.84a8.91,8.91,0,0,1,7.45-.53Z" transform="translate(-36.34 -52.83)"/>
      <path class="cls-3" d="M317.25,398.45a14.56,14.56,0,0,0-10.55.77l1-1.94s4.83-2.09,8.92-.53Z" transform="translate(-36.34 -52.83)"/>
    </g>
    <g>
      <path class="cls-2" d="M362.5,396.48c-.42-2.88.64-4.92-.11-6.31-1.16-2.14-2.39.57-2.39.57-.1-3.27-5.57-3.26-6.12-1.77a9.33,9.33,0,0,1-.48,1.1c-.34-.78-.92-1.55-1.67-1.1-2.92,1.75.72,6.27-1.94,9.56-3.39,4.19-1.3,10.53-1.3,10.53H364.7C366.6,400.17,362.92,399.34,362.5,396.48Z" transform="translate(-36.34 -52.83)"/>
      <path class="cls-3" d="M352.48,395.4s3.84-2,8.92.66l-1-1.84a8.91,8.91,0,0,0-7.45-.53Z" transform="translate(-36.34 -52.83)"/>
      <path class="cls-3" d="M351.82,398.45a14.53,14.53,0,0,1,10.54.77l-1-1.94s-4.83-2.09-8.92-.53Z" transform="translate(-36.34 -52.83)"/>
    </g>
    <path class="cls-9" d="M328.92,178.45s1.17,14.11-2.76,16.12c0,0,2.9,5.35,10.68,2.1,0,0-1.32-7.26,3.82-15.87C344.11,175,328.92,178.45,328.92,178.45Z" transform="translate(-36.34 -52.83)"/>
    <g>
      <path class="cls-1" d="M343.09,173.61s2.92-3.4,3.59.26c.77,4.24-3,6.25-3.84,4.95S343.09,173.61,343.09,173.61Z" transform="translate(-36.34 -52.83)"/>
      <path class="cls-1" d="M321,175.52s-3.4-2.92-3.51.8c-.13,4.3,3.88,5.73,4.54,4.31S321,175.52,321,175.52Z" transform="translate(-36.34 -52.83)"/>
      <path class="cls-1" d="M333.53,189.89c7-.53,10.62-5.41,9.58-19.15-.54-7.08-4.48-11.15-12.33-10.55s-10.83,5.19-10.29,12.28C321.61,187.23,326.29,190.45,333.53,189.89Z" transform="translate(-36.34 -52.83)"/>
      <path class="cls-10" d="M323.18,177.19a1.67,1.67,0,1,0,1.75-1.14A1.5,1.5,0,0,0,323.18,177.19Z" transform="translate(-36.34 -52.83)"/>
      <path class="cls-10" d="M337.63,176.47a1.67,1.67,0,1,0,1.43-1.51A1.49,1.49,0,0,0,337.63,176.47Z" transform="translate(-36.34 -52.83)"/>
      <path class="cls-8" d="M325.67,169.79a.35.35,0,0,0,.42-.1,4.05,4.05,0,0,1,2.63-1.18.35.35,0,0,0,0-.7,4.64,4.64,0,0,0-3.14,1.44.35.35,0,0,0,.05.49Z" transform="translate(-36.34 -52.83)"/>
      <path class="cls-8" d="M335.83,167.92a.29.29,0,0,0,.18,0,4.08,4.08,0,0,1,2.78.77.35.35,0,0,0,.49,0,.36.36,0,0,0,0-.5,4.78,4.78,0,0,0-3.32-.95.36.36,0,0,0-.31.39A.33.33,0,0,0,335.83,167.92Z" transform="translate(-36.34 -52.83)"/>
      <path class="cls-11" d="M326.74,173.49c.06.87.51,1.55,1,1.51s.82-.77.76-1.64-.51-1.55-1-1.51S326.67,172.62,326.74,173.49Z" transform="translate(-36.34 -52.83)"/>
      <path class="cls-11" d="M336.42,172.69c.07.87.51,1.55,1,1.51s.82-.77.75-1.64-.51-1.55-1-1.51S336.35,171.82,336.42,172.69Z" transform="translate(-36.34 -52.83)"/>
      <path class="cls-11" d="M335.86,181.29s-4.32.94-6.65-.06c0,0,1.51,3.14,3.87,2.67A3.51,3.51,0,0,0,335.86,181.29Z" transform="translate(-36.34 -52.83)"/>
      <path class="cls-11" d="M329.06,172.88s-.8-2.1-1.63-1.88-1.33,2.11-1.33,2.11l-1.3-.57,1.26.07s.5-2,1.34-2C328.58,170.48,329.06,172.88,329.06,172.88Z" transform="translate(-36.34 -52.83)"/>
      <path class="cls-11" d="M335.89,172.62s.47-2.19,1.33-2.1,1.63,1.88,1.63,1.88l1.19-.76-1.23.26s-.79-1.87-1.62-1.81C336,170.18,335.89,172.62,335.89,172.62Z" transform="translate(-36.34 -52.83)"/>
      <path class="cls-10" d="M332.06,178a2.12,2.12,0,0,0,.52.17l.14-.75c-.64-.12-.8-.49-.83-.79a.92.92,0,0,1,.41-.9c.13,0,.27,0,.43.24l.61-.46A1.1,1.1,0,0,0,332,175a1.66,1.66,0,0,0-.88,1.68A1.55,1.55,0,0,0,332.06,178Z" transform="translate(-36.34 -52.83)"/>
      <path class="cls-8" d="M333.3,162.43s2.59-.84,3.68,3.11c1.87,6.86,3.22,18,7.67,23.52,3.22,4,5.19,2.37,5.19,2.37a16.32,16.32,0,0,0-.5-7.92c-1.38-3.95.37-18.18-4.69-23.38s-14-1.88-14-1.88-4.3-2.55-8.5,0-5.39,14-1.11,19.1c0,0-.21-4.31,1.66-6S325.64,160.31,333.3,162.43Z" transform="translate(-36.34 -52.83)"/>
    </g>
    <g>
      <path class="cls-1" d="M300.4,106.11c-1.62,5.19,2.35,7.54-.59,11.09-1.82,2.19-4.57.4-4.57.4a35.5,35.5,0,0,0-6.1-8c-1.62-1.59-.46-1.61-.46-1.61l-.49-.37c-1.21-.92-2.25-1.41-1.1-1.77s4.85,2,4.85,2c-4.25-4.73-5.85-4.25-4.73-4.74,1.53-.66,5.81,2.87,5.94,3-2-3.25-3.86-4.33-2.69-4.44s5.55,5.14,7.13,7.09c.36.44.57.72.57.72C299.2,105.17,300.4,106.11,300.4,106.11Z" transform="translate(-36.34 -52.83)"/>
      <path class="cls-9" d="M297.59,108.77c.36.44.57.72.57.72a3.68,3.68,0,0,0-.63,3.61A3.28,3.28,0,0,1,297.59,108.77Z" transform="translate(-36.34 -52.83)"/>
      <path class="cls-9" d="M292.33,110.64c-.39-.36-2.61-2.48-3.65-2.66l-.49-.37C289.11,106.88,291.91,110.14,292.33,110.64Z" transform="translate(-36.34 -52.83)"/>
    </g>
    <path class="cls-1" d="M299.81,117.2s-.58,34.25-2.36,41.05c0,0,6.23,21.52,15.56,29.33,0,0,1.45,5.83-6.61,17.32,0,0-15.69-28.06-18.21-44.12l7.05-43.18Z" transform="translate(-36.34 -52.83)"/>
    <path class="cls-17" d="M320.43,190.26c.8,2.84,1.24,12.81,10.7,17.93s19.58-2.38,22.33-10.54c0,0,1.15-1.74,4.89,2.48,0,0,19.67,9.53,22.2,14.48s1,23.88-6.85,24.16-17.36-8.46-19.86-2.71-17.13,26.28-47.44,9.76c0,0-3.81-4.76-3.81-9s-1.94-32.28-1.94-32.28-11.17-3.23-8.37-29.6c0,0,7.7,4.26,7.5-9.81,0,0,6.35-3,8.45,8.87,1.41,7.92,9.24,13.7,9.24,13.7S319.21,186,320.43,190.26Z" transform="translate(-36.34 -52.83)"/>
    <path class="cls-1" d="M385,224.42c6.69-2.8,21.41-14.95,26.67-22l-3.15-2.92s-17.34,11.76-24,13.85-10.17,5.91-9.36,10.64S383.62,225,385,224.42Z" transform="translate(-36.34 -52.83)"/>
    <g>
      <path class="cls-1" d="M417.19,192.53c-3.26,4.35-7.49,2.51-8.64,7-.72,2.76,2.34,3.95,2.34,3.95a35,35,0,0,1,10.07.25c2.24.38,1.58-.57,1.58-.57l.58.17c1.46.45,2.46,1,2.08-.13s-4.5-2.74-4.5-2.74c6.32.67,6.88,2.25,6.61,1.06-.36-1.63-5.73-3-5.89-3.08,3.84-.24,5.78.59,5.18-.42s-7.41-1.49-9.92-1.62l-.92,0C418.65,193,417.19,192.53,417.19,192.53Z" transform="translate(-36.34 -52.83)"/>
      <path class="cls-9" d="M416.68,196.37l-.92,0a3.69,3.69,0,0,1-2.55,2.63A3.29,3.29,0,0,0,416.68,196.37Z" transform="translate(-36.34 -52.83)"/>
      <path class="cls-9" d="M418.24,201.73c.53.1,3.54.65,4.3,1.4l.58.17C423.18,202.13,418.9,201.77,418.24,201.73Z" transform="translate(-36.34 -52.83)"/>
    </g>
  </g>
  <g>
    <path class="cls-1" d="M228.67,270.1a85.9,85.9,0,0,1,12.68-25.69l12.73,2.11.13-.23,1,.21h.15v0l13.15,2.62a123.14,123.14,0,0,1,9.41,25.43c3.76,14.88-7.49,52.49-7.49,52.49s6.34,17.65-8.33,63.65h-6.91s2.58-57.29,1.58-63.65c-.87-5.47-2-25.55-1.41-40.92a9,9,0,0,1-2.5.18h0c0,15.38-1.74,35.37-2.78,40.82-1.22,6.31-.57,63.69-.57,63.69l-6.91-.23c-13.11-46.47-6.18-63.92-6.18-63.92S224.41,284.86,228.67,270.1Z" transform="translate(-36.34 -52.83)"/>
    <path class="cls-7" d="M287.87,200.29c-.45-7.81-24.82-4.37-24.82-4.37s-15.81-11.07-20.7-7.53c-1.73,1.26-2.53,8.69-2.83,17.77-1.84,3.25-3.43,8.15-.16,12.6.06,13.34.67,26,.67,26A32.32,32.32,0,0,0,268.55,250s5.83-12.38,11.09-24.94c3.38-2.74,4.11-6.7,4-10C286.2,208.42,288,202.71,287.87,200.29Z" transform="translate(-36.34 -52.83)"/>
    <path class="cls-12" d="M284.81,160.52c-7.07-12.07-24.95-10.59-31.06-2.72-7.4,9.52-3.47,31.69-3.47,31.69s17-14.2,27.25,5.21C277.53,194.7,292.72,174,284.81,160.52Z" transform="translate(-36.34 -52.83)"/>
    <g>
      <path class="cls-5" d="M239.52,396.48c.42-2.88-.64-4.92.11-6.31,1.16-2.14,2.39.57,2.39.57.1-3.27,5.57-3.26,6.12-1.77a9.33,9.33,0,0,0,.48,1.1c.34-.78.92-1.55,1.66-1.1,2.93,1.75-.71,6.27,1.95,9.56,3.39,4.19,1.3,10.53,1.3,10.53H237.32C235.42,400.17,239.1,399.34,239.52,396.48Z" transform="translate(-36.34 -52.83)"/>
      <path class="cls-13" d="M249.53,395.4s-3.83-2-8.91.66l1-1.84a8.9,8.9,0,0,1,7.45-.53Z" transform="translate(-36.34 -52.83)"/>
      <path class="cls-13" d="M250.2,398.45a14.53,14.53,0,0,0-10.54.77l1-1.94s4.83-2.09,8.91-.53Z" transform="translate(-36.34 -52.83)"/>
    </g>
    <g>
      <path class="cls-5" d="M265.44,396.48c-.42-2.88.64-4.92-.11-6.31-1.17-2.14-2.39.57-2.39.57-.1-3.27-5.57-3.26-6.12-1.77a9.33,9.33,0,0,1-.48,1.1c-.34-.78-.92-1.55-1.67-1.1-2.92,1.75.72,6.27-1.94,9.56-3.39,4.19-1.31,10.53-1.31,10.53h16.22C269.54,400.17,265.86,399.34,265.44,396.48Z" transform="translate(-36.34 -52.83)"/>
      <path class="cls-13" d="M255.42,395.4s3.84-2,8.92.66l-1-1.84a8.91,8.91,0,0,0-7.45-.53Z" transform="translate(-36.34 -52.83)"/>
      <path class="cls-13" d="M254.76,398.45a14.53,14.53,0,0,1,10.54.77l-1-1.94s-4.83-2.09-8.92-.53Z" transform="translate(-36.34 -52.83)"/>
    </g>
    <path class="cls-9" d="M261.88,178.45a37.19,37.19,0,0,1-2.76,16.12s2.9,5.35,10.67,2.1c0,0-1.31-7.26,3.83-15.87C277.07,175,261.88,178.45,261.88,178.45Z" transform="translate(-36.34 -52.83)"/>
    <g>
      <path class="cls-1" d="M279.09,174.46s3.69-2.53,3.4,1.18c-.34,4.29-4.48,5.27-5,3.8S279.09,174.46,279.09,174.46Z" transform="translate(-36.34 -52.83)"/>
      <path class="cls-1" d="M257.23,170.61s-2.54-3.69-3.6-.12c-1.23,4.12,2.28,6.53,3.28,5.33S257.23,170.61,257.23,170.61Z" transform="translate(-36.34 -52.83)"/>
      <path class="cls-1" d="M265.66,187.74c6.92,1.29,11.66-2.5,14.18-16,1.3-7-1.45-11.93-9.19-13.38s-11.8,2.24-13.11,9.22C254.83,182.09,258.52,186.41,265.66,187.74Z" transform="translate(-36.34 -52.83)"/>
      <path class="cls-10" d="M258.93,172.8a1.67,1.67,0,1,0,2-.65A1.49,1.49,0,0,0,258.93,172.8Z" transform="translate(-36.34 -52.83)"/>
      <path class="cls-10" d="M273.08,175.83a1.67,1.67,0,1,0,1.77-1.1A1.49,1.49,0,0,0,273.08,175.83Z" transform="translate(-36.34 -52.83)"/>
      <path class="cls-12" d="M263.24,166.29a.35.35,0,0,0,.43,0,4.1,4.1,0,0,1,2.84-.47.34.34,0,0,0,.42-.26.35.35,0,0,0-.27-.42,4.67,4.67,0,0,0-3.4.58.36.36,0,0,0-.08.49Z" transform="translate(-36.34 -52.83)"/>
      <path class="cls-12" d="M273.54,167.1a.3.3,0,0,0,.17.08,4,4,0,0,1,2.48,1.45.34.34,0,0,0,.48.11.36.36,0,0,0,.11-.49,4.65,4.65,0,0,0-3-1.77.35.35,0,0,0-.27.62Z" transform="translate(-36.34 -52.83)"/>
      <path class="cls-11" d="M263.32,170.14c-.16.86.09,1.63.57,1.71s1-.53,1.15-1.39-.09-1.62-.57-1.71S263.48,169.28,263.32,170.14Z" transform="translate(-36.34 -52.83)"/>
      <path class="cls-11" d="M272.74,172c-.16.86.1,1.63.58,1.71s1-.53,1.15-1.39-.1-1.63-.57-1.71S272.9,171.18,272.74,172Z" transform="translate(-36.34 -52.83)"/>
      <path class="cls-11" d="M270.13,180s-4.42-.2-6.42-1.77c0,0,.66,3.42,3.06,3.58A3.51,3.51,0,0,0,270.13,180Z" transform="translate(-36.34 -52.83)"/>
      <path class="cls-11" d="M265.72,170.15s-.24-2.24-1.09-2.24-1.83,1.69-1.83,1.69l-1.11-.88,1.2.39s1-1.77,1.81-1.62C265.87,167.71,265.72,170.15,265.72,170.15Z" transform="translate(-36.34 -52.83)"/>
      <path class="cls-11" d="M272.38,171.66s1-2,1.83-1.69,1.09,2.23,1.09,2.23l1.35-.42-1.26-.07s-.28-2-1.1-2.16C273.12,169.32,272.38,171.66,272.38,171.66Z" transform="translate(-36.34 -52.83)"/>
      <path class="cls-10" d="M267.31,175.84a2,2,0,0,0,.45.29l.33-.68a.88.88,0,0,1-.59-1,1,1,0,0,1,.62-.77c.14,0,.26.1.36.35l.7-.29A1.08,1.08,0,0,0,268,173a1.67,1.67,0,0,0-1.29,1.4A1.55,1.55,0,0,0,267.31,175.84Z" transform="translate(-36.34 -52.83)"/>
      <path class="cls-12" d="M256.78,173s-2.87-8.38,2.34-15.26S278.41,156,281,161.25s-2.46,16-2.46,16,3.89-14.18-3.95-16.52c0,0-1,3.55-7.05,6.07S258,168.9,258,168.9Z" transform="translate(-36.34 -52.83)"/>
    </g>
    <path class="cls-9" d="M281.55,195.75s8.88.16,30.65,22c3,3-.42,12.54-9.45,6.68-9.93-6.46-16.53-13.14-18.6-10.67C284.15,213.78,279,201.27,281.55,195.75Z" transform="translate(-36.34 -52.83)"/>
    <path class="cls-1" d="M313.48,216.51c-.07-7.25-5.76-25.47-10.31-33l-3.89,1.82s4.34,20.49,3.77,27.45,1.63,11.65,6.32,12.68S313.5,218,313.48,216.51Z" transform="translate(-36.34 -52.83)"/>
    <g>
      <path class="cls-1" d="M296.09,174.7c2.8,4.66-.5,7.88,3.19,10.63,2.29,1.71,4.54-.68,4.54-.68a35.34,35.34,0,0,1,4-9.23c1.2-1.93.08-1.68.08-1.68a6,6,0,0,1,.38-.47c1-1.18,1.85-1.91.65-2s-4.23,3.13-4.23,3.13c3-5.59,4.68-5.51,3.48-5.72-1.65-.28-5,4.16-5.07,4.3,1.22-3.65,2.72-5.13,1.56-5s-4.18,6.31-5.25,8.58l-.39.83C297,173.5,296.09,174.7,296.09,174.7Z" transform="translate(-36.34 -52.83)"/>
      <path class="cls-9" d="M299.45,176.62l-.39.83a3.68,3.68,0,0,1,1.48,3.36A3.29,3.29,0,0,0,299.45,176.62Z" transform="translate(-36.34 -52.83)"/>
      <path class="cls-9" d="M305,177.19c.29-.45,1.94-3,2.92-3.45a6,6,0,0,1,.38-.47C307.24,172.77,305.29,176.6,305,177.19Z" transform="translate(-36.34 -52.83)"/>
    </g>
    <path class="cls-9" d="M245.35,187.71s-8.77-1.86-34.55,15.08c-3.58,2.35-2.16,12.35,7.87,8.47,11.05-4.29,19.39-9.54,20.91-6.7C239.58,204.56,246.75,193.63,245.35,187.71Z" transform="translate(-36.34 -52.83)"/>
    <path class="cls-1" d="M209.79,201.29c1.56-7.09,10.87-23.75,16.86-30.18l3.44,2.57s-8.45,19.17-9.32,26.09-4,11.07-8.78,11.13S209.47,202.78,209.79,201.29Z" transform="translate(-36.34 -52.83)"/>
    <g>
      <path class="cls-1" d="M235.39,163.93c-3.7,4-1.13,7.81-5.31,9.75-2.59,1.2-4.3-1.6-4.3-1.6a35.47,35.47,0,0,0-2.05-9.86c-.78-2.13.27-1.65.27-1.65-.09-.19-.18-.37-.28-.55-.7-1.35-1.42-2.24-.24-2.06,1.34.18,3.51,3.93,3.51,3.93-1.8-6.09-3.45-6.36-2.23-6.31,1.66.06,4,5.09,4.08,5.24-.45-3.82-1.62-5.58-.51-5.17s2.79,7,3.37,9.47c.14.55.21.9.21.9C234.71,162.57,235.39,163.93,235.39,163.93Z" transform="translate(-36.34 -52.83)"/>
      <path class="cls-9" d="M231.7,165.12c.14.55.21.9.21.9a3.68,3.68,0,0,0-2.13,3A3.29,3.29,0,0,1,231.7,165.12Z" transform="translate(-36.34 -52.83)"/>
      <path class="cls-9" d="M226.15,164.54c-.2-.5-1.28-3.36-2.15-4-.09-.19-.18-.37-.28-.55C224.87,159.76,226,163.91,226.15,164.54Z" transform="translate(-36.34 -52.83)"/>
    </g>
    <path class="cls-12" d="M239.92,242.16s-29.72,40.7-20.39,83.8c0,0,10.06,9.35,17.94,6.1s16.05,8.49,23.09,4.74,13.26-6.49,18.15-4.49S291.83,326,291.83,326s-3.64-47.65-21.7-79.13C270.13,246.83,255.41,253.56,239.92,242.16Z" transform="translate(-36.34 -52.83)"/>
    <path class="cls-19" d="M252.23,398.53a13.37,13.37,0,0,1,1.94,10.53h-2.75A30.84,30.84,0,0,1,252.23,398.53Z" transform="translate(-36.34 -52.83)"/>
  </g>
  <g>
    <path class="cls-1" d="M155.77,287.94s5.43,17.07,18.68,40c0,0-2.27,24.26,35.34,69.25l5.19-2.85s-19.35-45.24-22.49-58.64-1.8-31.3-11.92-59.27Z" transform="translate(-36.34 -52.83)"/>
    <path class="cls-7" d="M178.71,253.51l-17.8-7.22c-3.09,9.87-11.08,17-10.44,32.49.32,7.67,5.3,15.53,5.3,15.53,21-.75,28.16-9.55,28.16-9.55L180.74,270S178.58,260,178.71,253.51Z" transform="translate(-36.34 -52.83)"/>
    <path class="cls-1" d="M136.53,276.49s-.58,17.91,4.26,43.93c0,0-10.24,22.12,10.2,77.08l5.85-.95s-3.14-49.1-1.64-62.8,9.38-25.74,8.55-59.84Z" transform="translate(-36.34 -52.83)"/>
    <path class="cls-7" d="M178.7,253.52l-7,11.94L170,268.35l-3.64,6.18L164,291l-.11.74-.05.36c-18.05-2.08-27.66,3.54-27.66,3.54l-.17-1.55,0-.5-.1-.27c-1.68-4.92-4-18.22-1.24-27.27,4.57-14.81,12.78-13.41,19-21.67C153.61,244.42,178.7,253.52,178.7,253.52Z" transform="translate(-36.34 -52.83)"/>
    <path class="cls-4" d="M147.41,392.39s2.31,5.14,1.6,8.58c-.43,2.08-2.67,4.75-.87,8.09h14a6.9,6.9,0,0,0-1.67-7.25c-1.82-1.94-3.17-10.92-3.17-10.92-1.57.25-1.16,1.5-1.16,1.5s0-4.24-3.5-3.67c-4.26.68-3.25,4.42-3.25,4.42A1.44,1.44,0,0,0,147.41,392.39Z" transform="translate(-36.34 -52.83)"/>
    <path class="cls-4" d="M231.76,409.06H208.13s-.66-5,.38-6.7c1.5-2.42-3.69-7.78-3.69-7.78s3.15-3.93,5.94-1.7c0,0-.25-4.92,3.25-4.87,0,0,3.25,8.34,7,11.32a2.48,2.48,0,0,0,.26.19c2.81,2,7.85,2.53,9.83,5.28A5.08,5.08,0,0,1,231.76,409.06Z" transform="translate(-36.34 -52.83)"/>
    <g>
      <path d="M165,291.33l-.22.71-.88-.26c-14.83-4.12-25,.73-27.88,2.35l0-.5-.1-.27a30.84,30.84,0,0,1,7.3-2.8,102.57,102.57,0,0,1,0-21.49c1.29-11.49,12.54-18.42,12.66-18.49l.38.65c-.09.05-8,5-11.17,13.3,10.44-.12,14.59-13.18,14.63-13.31l.72.22c0,.14-4.39,13.84-15.49,13.84h-.13a18.58,18.58,0,0,0-.86,3.88,102.06,102.06,0,0,0,0,21.22A40.75,40.75,0,0,1,164,291Z" transform="translate(-36.34 -52.83)"/>
      <path d="M172.61,256.91c0,.1-1,10.33-5.75,18.08l.64.39c4.82-7.89,5.84-18.3,5.85-18.4Z" transform="translate(-36.34 -52.83)"/>
    </g>
    <path class="cls-4" d="M204.89,252.31s-1.75,8.25-3.63,8.87-.25-4.24-.25-4.24-13-5.23-18.3-5.62S184.89,240.81,204.89,252.31Z" transform="translate(-36.34 -52.83)"/>
    <path class="cls-4" d="M202.64,253.81s-13.69-6.25-23.16-5.75,13.16-31,18.78-27.75S205.14,249.81,202.64,253.81Z" transform="translate(-36.34 -52.83)"/>
    <path class="cls-4" d="M168.72,193.37s1.34-3.44,8.13-4.06,12.76,6.42,11.46,10.58S168.72,193.37,168.72,193.37Z" transform="translate(-36.34 -52.83)"/>
    <path class="cls-5" d="M179.48,163.56s-.47-8.75-8.66-10.13-14.68.63-11.81,12.38,1,16.43-4.37,17-5-5.76-5-5.76a7.06,7.06,0,0,0,4.75,7.92s-6.21.5-4,4.38,9.07,3.25,11.77,0c0,0,.21,2.64,3.58,1.69a2,2,0,0,1-1.25-2.19c.13-1.75,9.41,1.2,12.33-9.75s-2.91-12.75-2.91-12.75Z" transform="translate(-36.34 -52.83)"/>
    <path class="cls-1" d="M195.06,198.29c-5-.23-5.16,4.72-2.62,9.55s26.84,26.7,30.58,22.58c1.45-1.59-2.72-8.89-2.72-8.89a192.88,192.88,0,0,1-15.92-16.25C200.25,200.59,197.65,198.41,195.06,198.29Z" transform="translate(-36.34 -52.83)"/>
    <path class="cls-1" d="M226.33,222.51c1.36-7.12-.64-26.11-3.61-34.38l-4.17,1s.22,21-1.72,27.65-.69,11.75,3.7,13.69S226,224,226.33,222.51Z" transform="translate(-36.34 -52.83)"/>
    <g>
      <path class="cls-1" d="M213.7,183.55c4.53,3,2.93,7.33,7.45,8.23a2.83,2.83,0,0,0,2.23-.41,3.37,3.37,0,0,0,1.35-3.33,38.67,38.67,0,0,1-.1-8.89c.26-2.26-.65-1.54-.65-1.54,0-.21.09-.4.14-.6.36-1.48.85-2.51-.25-2.06-1.26.49-2.48,4.64-2.48,4.64.31-6.34,1.86-7,.68-6.65-1.61.44-2.7,5.89-2.74,6.05-.46-3.82.27-5.8-.71-5.15s-1.07,7.49-1.06,10c0,.57,0,.92,0,.92C214,182.07,213.7,183.55,213.7,183.55Z" transform="translate(-36.34 -52.83)"/>
      <path class="cls-9" d="M217.56,183.84c0,.57,0,.92,0,.92a3.69,3.69,0,0,1,2.77,2.4A3.29,3.29,0,0,0,217.56,183.84Z" transform="translate(-36.34 -52.83)"/>
      <path class="cls-9" d="M222.83,182c.07-.53.45-3.56,1.15-4.36,0-.21.09-.4.14-.6C222.94,177,222.83,181.32,222.83,182Z" transform="translate(-36.34 -52.83)"/>
    </g>
    <path class="cls-4" d="M187.76,198s6.75-2.78,15,2.15A44.26,44.26,0,0,1,216,212.89s.08-14.69,2.57-17.14c0,0,3.08,3.7,6.91,4.38,0,0,9.83,20.36,3.58,33s-24.75,0-24.75,0Z" transform="translate(-36.34 -52.83)"/>
    <path class="cls-2" d="M153.58,244.41s4.95-13,2.42-20.39c-4.31-12.66-1.95-23.36,2.58-26.52,7.33-5.11,22.68.73,22.68.73s14.94-1.58,16.46,3,5.1,22.92-2,32.73-17,25-17,25S157.58,256.94,153.58,244.41Z" transform="translate(-36.34 -52.83)"/>
    <path class="cls-4" d="M162.18,252.31s-2,7-4.67,6.57-14-6.54-14-7.56,1.62-3.26,1.62-3.26-.63-5.38.75-5.88S162.18,252.31,162.18,252.31Z" transform="translate(-36.34 -52.83)"/>
    <path class="cls-17" d="M186.18,195.75s15.58,27.08,14.83,61.19c0,0,7.08-1.88,8.42-14.63s-3.23-37.18-9.45-43.59C200,198.72,195.52,194.06,186.18,195.75Z" transform="translate(-36.34 -52.83)"/>
    <path class="cls-17" d="M173,194.63s11.63,41.55-10.83,57.68a26.06,26.06,0,0,1-16.17-7.9c-6.75-7.35,2.38-46.91,2.38-46.91S160.41,189.55,173,194.63Z" transform="translate(-36.34 -52.83)"/>
    <path class="cls-4" d="M175.4,207.64s-.06-12.5-1.47-15.79-5.21,1.52-5.21,1.52S169.76,199.17,175.4,207.64Z" transform="translate(-36.34 -52.83)"/>
    <path class="cls-4" d="M191.21,206.45s1.43-12.31-2.82-14.47-4.34,5.52-4.34,5.52S187.79,197.12,191.21,206.45Z" transform="translate(-36.34 -52.83)"/>
    <path class="cls-9" d="M179,181.22a37.06,37.06,0,0,1-2.13,16.22s4.48,6.62,8.76,2.26a42.7,42.7,0,0,1,5.2-16.58C194,177.22,179,181.22,179,181.22Z" transform="translate(-36.34 -52.83)"/>
    <g>
      <path class="cls-1" d="M172.11,181.51s-3.78-2.39-3.36,1.3c.5,4.28,4.67,5.11,5.12,3.62S172.11,181.51,172.11,181.51Z" transform="translate(-36.34 -52.83)"/>
      <path class="cls-1" d="M193.81,176.88s2.4-3.78,3.59-.26c1.38,4.08-2,6.62-3.08,5.45S193.81,176.88,193.81,176.88Z" transform="translate(-36.34 -52.83)"/>
      <path class="cls-1" d="M186,194.3c-6.86,1.53-11.74-2.08-14.75-15.52-1.55-6.94,1-12,8.71-13.7s11.88,1.81,13.43,8.74C196.62,188.26,193.09,192.71,186,194.3Z" transform="translate(-36.34 -52.83)"/>
      <path class="cls-10" d="M192.19,179.12a1.66,1.66,0,0,1-3,1.25,1.67,1.67,0,0,1,3-1.25Z" transform="translate(-36.34 -52.83)"/>
      <path class="cls-10" d="M178.16,182.66a1.67,1.67,0,1,1-1.8-1A1.48,1.48,0,0,1,178.16,182.66Z" transform="translate(-36.34 -52.83)"/>
      <path class="cls-5" d="M187.41,172.86a.35.35,0,0,1-.19-.06,4.08,4.08,0,0,0-2.86-.36.34.34,0,0,1-.42-.25.35.35,0,0,1,.25-.43,4.69,4.69,0,0,1,3.42.46.35.35,0,0,1,.1.48A.34.34,0,0,1,187.41,172.86Z" transform="translate(-36.34 -52.83)"/>
      <path class="cls-5" d="M174.49,175.75a.31.31,0,0,1-.18-.05.35.35,0,0,1-.12-.48,4.7,4.7,0,0,1,2.9-1.87.36.36,0,0,1,.41.28.35.35,0,0,1-.28.41,4,4,0,0,0-2.43,1.54A.34.34,0,0,1,174.49,175.75Z" transform="translate(-36.34 -52.83)"/>
      <path class="cls-11" d="M187.71,176.63c.19.85,0,1.62-.51,1.73s-1-.5-1.2-1.35,0-1.63.51-1.74S187.52,175.77,187.71,176.63Z" transform="translate(-36.34 -52.83)"/>
      <path class="cls-11" d="M178.18,178.76c.19.85,0,1.63-.51,1.73s-1-.49-1.2-1.35,0-1.63.51-1.73S178,177.91,178.18,178.76Z" transform="translate(-36.34 -52.83)"/>
      <path class="cls-11" d="M181.52,186.54a12.07,12.07,0,0,0,6.58-2s.75,5.12-2.74,5.58C182.93,190.46,181.52,186.54,181.52,186.54Z" transform="translate(-36.34 -52.83)"/>
      <path class="cls-11" d="M185.31,176.72s.16-2.24,1-2.27,1.89,1.62,1.89,1.62l1.07-.92-1.18.43s-1-1.73-1.87-1.55C185.07,174.28,185.31,176.72,185.31,176.72Z" transform="translate(-36.34 -52.83)"/>
      <path class="cls-11" d="M178.71,178.47s-1.1-2-1.89-1.63-1,2.28-1,2.28l-1.36-.38,1.25-.11s.21-2,1-2.2C177.89,176.16,178.71,178.47,178.71,178.47Z" transform="translate(-36.34 -52.83)"/>
      <path class="cls-10" d="M183.49,182.77l-.36-.67a.87.87,0,0,0,.56-1,.93.93,0,0,0-.65-.75c-.14,0-.26.11-.35.35l-.71-.26a1.08,1.08,0,0,1,1.12-.84,1.67,1.67,0,0,1,.39,3.16Z" transform="translate(-36.34 -52.83)"/>
      <path class="cls-11" d="M172.65,183.93a43,43,0,0,1-1.17-7.05,10.54,10.54,0,0,1,7.34-11,14.75,14.75,0,0,1,5.48-.58,8.49,8.49,0,0,1,7,5.1,47.85,47.85,0,0,1,3.06,9.2,23.19,23.19,0,0,0,.08-10.17c-1.14-6.16-6.16-11.28-17.91-8.75C166.51,162.89,162.18,175,172.65,183.93Z" transform="translate(-36.34 -52.83)"/>
      <path class="cls-11" d="M187.29,163.81S186,173.36,173,174.56c0,0,7.88-2.78,7.88-8.32,0,0-3.13,7.1-10.63,6.27C170.26,172.51,169.56,161.09,187.29,163.81Z" transform="translate(-36.34 -52.83)"/>
    </g>
    <path class="cls-1" d="M147.72,200.56c6.34,1.89,10.61,12.13,9.28,13.3s-31.2,6.94-31.2,6.94L144,247.05l-3.08,4.48s-28.37-25.09-28.21-33.69S147.72,200.56,147.72,200.56Z" transform="translate(-36.34 -52.83)"/>
    <path class="cls-1" d="M144.07,246.26a62.61,62.61,0,0,1,6.44,1.06c2.49.62,5.81,1.25,5.91,1.76s-5.5,0-5.5,0,4.57,1.88,4.67,2.6-5.81-.52-5.81-.52,3.74,2.28,3.53,2.9-4.81-.93-4.81-.93a14.61,14.61,0,0,0,1.74,3.21s-.89.49-2.69-1.51-4.7-1.37-7-3.15S142,246,144.07,246.26Z" transform="translate(-36.34 -52.83)"/>
    <path class="cls-4" d="M148.39,197.5s11.12,1.28,11.62,17.67-24.35,11.15-24.35,11.15,6.07,7,4.19,14.75c0,0-6.76,0-6.55,3.34,0,0-10.42.65-20.6-13.48S116.85,201,148.39,197.5Z" transform="translate(-36.34 -52.83)"/>
    <path class="cls-4" d="M204.77,213.21c.73,2.41.16,4.71-1.28,5.15s-3.19-1.16-3.92-3.57-.17-4.71,1.27-5.15S204,210.8,204.77,213.21Z" transform="translate(-36.34 -52.83)"/>
    <ellipse class="cls-4" cx="168.72" cy="215.87" rx="4.98" ry="4.14" transform="translate(-90.8 321.98) rotate(-87.45)"/>
    <path class="cls-17" d="M135.64,209.41c-2.68.6-5.26-.72-5.76-2.95s1.27-4.53,4-5.13,5.26.72,5.76,2.95S138.32,208.81,135.64,209.41Z" transform="translate(-36.34 -52.83)"/>
    <path class="cls-17" d="M148.69,403.89s3.83-5,11.66-1a2.54,2.54,0,0,1-3.33,2.83C153.35,405.06,151.19,407.72,148.69,403.89Z" transform="translate(-36.34 -52.83)"/>
    <path class="cls-17" d="M231.1,404.8c-5,2.42-15.42-3.32-15.42-3.32,1.65.28,4.12-1,5.59-2C224.08,401.54,229.12,402.05,231.1,404.8Z" transform="translate(-36.34 -52.83)"/>
  </g>
  <rect class="cls-20" x="0.5" y="0.5" width="434.37" height="66.04"/>
</svg>
