<svg xmlns="http://www.w3.org/2000/svg" viewBox="0 0 273.64 286.05"><defs><style>.cls-1{isolation:isolate;}.cls-2{fill:#badbd1;}.cls-3{fill:#506867;mix-blend-mode:multiply;}.cls-4{fill:#ff8b66;}.cls-5{fill:#cfd8dc;}.cls-6{fill:#adbec4;}.cls-7{fill:#0c476b;}.cls-8{fill:#0e3944;}.cls-9{fill:#f2a668;}.cls-10{fill:#f24052;}.cls-11{fill:#ef6e4b;}.cls-12{fill:#db614d;}.cls-13{fill:#1a4850;}.cls-14{fill:#ffb878;}.cls-15{fill:#205260;}.cls-16{fill:#8b383e;}.cls-17{fill:#662c33;}.cls-18{fill:#8bbddb;}.cls-19{fill:#105e99;}.cls-20{fill:#6097b2;}.cls-21{fill:#07262d;}.cls-22{fill:#bcbcbc;}</style></defs><title>uchamp_bg2</title><g class="cls-1"><g id="Poster"><polygon class="cls-2" points="9.79 104.06 69.94 0 130.1 104.06 9.79 104.06"/><polygon class="cls-3" points="273.64 74.06 151.64 286.06 29.64 74.06 273.64 74.06"/><path class="cls-4" d="M141.31,254.3s4.66,13.64,4.95,17.94a2.94,2.94,0,0,0,3.16.11s.05-13-1.9-17.06S141.31,254.3,141.31,254.3Z" transform="translate(-3.4 -17.45)"/><path class="cls-5" d="M140.3,278.23h9.8a5.31,5.31,0,0,0-.22-3.14,8.55,8.55,0,0,0,.27-2.48c-.17-.61-2.18-1.35-2.73-.72a1.9,1.9,0,0,0-.37,1.33c-.27-1.7-1-1.85-1.66-1.18s.15.36,0,1.46a1.55,1.55,0,0,1-.05.23,1.3,1.3,0,0,1-.27.43,1.76,1.76,0,0,1-.39.32l-.24.15a4,4,0,0,1-.52.21,4.65,4.65,0,0,1-.93.19c-1.35.14-1.88.24-2.5,1a1.18,1.18,0,0,0-.23,1.37Z" transform="translate(-3.4 -17.45)"/><path class="cls-6" d="M145.35,273.73a1.3,1.3,0,0,1-.27.43,1.1,1.1,0,0,1,1.36.31l.25-.35A1,1,0,0,0,145.35,273.73Z" transform="translate(-3.4 -17.45)"/><path class="cls-6" d="M145.55,275.26l.34-.24a1.12,1.12,0,0,0-.81-.86,1.76,1.76,0,0,1-.39.32A1.22,1.22,0,0,1,145.55,275.26Z" transform="translate(-3.4 -17.45)"/><path class="cls-6" d="M144.6,275.67l.36-.2a1.21,1.21,0,0,0-.51-.84,4,4,0,0,1-.52.21A1.24,1.24,0,0,1,144.6,275.67Z" transform="translate(-3.4 -17.45)"/><path class="cls-5" d="M161.33,275.65a2.24,2.24,0,0,0,.73-.92,10.23,10.23,0,0,0,0-2.61,2.34,2.34,0,0,1,2.06-2.83c1.67-.4,2.67.48,2.28,4.18h0a9.26,9.26,0,0,1-.27,4.76H161S160.17,276.32,161.33,275.65Z" transform="translate(-3.4 -17.45)"/><path class="cls-4" d="M156.81,255.74a18.54,18.54,0,0,0,1.89,7.46c1.93,3.85,4.31,9.14,4.31,9.14s1.59,1.7,2.6-1.12c0,0-.71-9.81-2.35-13.4S156.81,255.74,156.81,255.74Z" transform="translate(-3.4 -17.45)"/><path class="cls-5" d="M165.24,272.69s.48-1.07,0-1.53-.92.39-1.65.2-.89-.75-1.08,0S162.6,274.58,165.24,272.69Z" transform="translate(-3.4 -17.45)"/><path class="cls-6" d="M162.51,272.64s2,.76,3,0l-.26.93s-2.12.24-2.41-.34Z" transform="translate(-3.4 -17.45)"/><path class="cls-6" d="M162.54,273.79a5.34,5.34,0,0,1,2.64.22v.46s-2.32-.6-3.08,0Z" transform="translate(-3.4 -17.45)"/><path class="cls-6" d="M165.27,275.42a1.64,1.64,0,0,0-1.43-1A2.65,2.65,0,0,0,162,275,3.35,3.35,0,0,1,165.27,275.42Z" transform="translate(-3.4 -17.45)"/><path class="cls-7" d="M164.77,254.76a6.06,6.06,0,0,1-.58,1.07l-.16.22c-1.07,1.46-3.43,3.4-7.74,1.48l-.26-.7-.08-.24a17.44,17.44,0,0,1-.77-2.84c-1.13-6.87-1.55-11.84-2.14-14.66-1.66,4.38-5.37,12.89-5.53,13.26s.62,3.38.62,3.38c-3.1,1.11-7.54-.31-7.54-.31A39.79,39.79,0,0,1,139,248c-.16-2.36,5.26-15.6,7.8-21.67.06-.16.13-.31.19-.46.67-1.59,1.1-2.58,1.1-2.58l4.33,1.61L163,230.12a8.11,8.11,0,0,1,.36,2.62,1.23,1.23,0,0,1,0,.19c.1,1.42.19,3.55.25,6.74v.2c0,.69,0,1.44,0,2.23v.19c0,1.84,0,3.94,0,6.36v.2c0,.76,0,1.53,0,2.35a10.63,10.63,0,0,0,.86,3c0,.07.06.13.08.19C164.69,254.6,164.77,254.76,164.77,254.76Z" transform="translate(-3.4 -17.45)"/><path class="cls-8" d="M164.19,255.83l-.16.22a14.09,14.09,0,0,1-1.4-3.48,93.72,93.72,0,0,1,0-13.66,52.79,52.79,0,0,0-.86-12l.22,0a52.4,52.4,0,0,1,.87,12.09,92.69,92.69,0,0,0,0,13.59A13.58,13.58,0,0,0,164.19,255.83Z" transform="translate(-3.4 -17.45)"/><path class="cls-8" d="M162.55,232.1a7.3,7.3,0,0,1-4.23-4.4l.22-.08a7,7,0,0,0,4.09,4.24Z" transform="translate(-3.4 -17.45)"/><path class="cls-8" d="M150.13,225.31c-.07.06-.2.07-.5.09a4.53,4.53,0,0,0-2.79.94c.06-.16.13-.31.19-.46a5.05,5.05,0,0,1,2.59-.74,2.05,2.05,0,0,0,.38,0Z" transform="translate(-3.4 -17.45)"/><path class="cls-8" d="M152.93,239.14c-2.44-5.36.72-12.58.76-12.65l.2.11c0,.07-3.14,7.18-.75,12.43Z" transform="translate(-3.4 -17.45)"/><path class="cls-8" d="M152.45,233.91a1.24,1.24,0,0,1-.37-.06l.07-.24a1.05,1.05,0,0,0,.87-.14,2.1,2.1,0,0,0,.66-1.51,16.51,16.51,0,0,1,1.88-5.18l.2.13a16.34,16.34,0,0,0-1.85,5.08,2.27,2.27,0,0,1-.77,1.7A1.19,1.19,0,0,1,152.45,233.91Z" transform="translate(-3.4 -17.45)"/><path class="cls-9" d="M140.66,174.78s.38-1,2-1a2,2,0,0,1,1.72.75c.75,2.4,1.55,11.57,1.83,11.9.15.16,9.45,8,9.45,8-5,.11-5.21,9.27-5.21,9.27-.16-2.23-7.16-7.86-8.94-11.54C139.86,188.73,139.06,180.35,140.66,174.78Z" transform="translate(-3.4 -17.45)"/><path class="cls-2" d="M170.75,207.51c-.77,9.24-3.8,18.17-4.86,21.9-.22.8-.36,1.25-.36,1.25s-16.5-2.35-18.45-7.25l.09-.38c.49-2.23,2.92-11.25,3.2-18.63.31-8.21,2.82-11.11,4.34-10.74,0,0,3.41,3,5.59,3s7.4-2.62,7.4-2.62S171.67,196.27,170.75,207.51Z" transform="translate(-3.4 -17.45)"/><ellipse class="cls-10" cx="156.92" cy="174.71" rx="0.99" ry="1.09"/><path class="cls-9" d="M180.71,175.43s-.39-1-2-1a2,2,0,0,0-1.73.75c-.74,2.4-1.54,11.57-1.83,11.89s-9.45,8-9.45,8a10.45,10.45,0,0,0,5.22,9.27c.16-2.24,7.15-7.86,8.93-11.54C181.51,189.38,182.31,181,180.71,175.43Z" transform="translate(-3.4 -17.45)"/><path class="cls-9" d="M158.23,196.48s-.9.4-1.09.83a2.36,2.36,0,0,0,1.84,2.34c1.34.14,3.87-1.55,3.76-2.1S160.75,196.3,158.23,196.48Z" transform="translate(-3.4 -17.45)"/><path class="cls-11" d="M158.1,194.42s.5,2.26-.26,3.15c0,0,1.24,2.2,4,0a3.54,3.54,0,0,1,0-2.44Z" transform="translate(-3.4 -17.45)"/><path class="cls-10" d="M166,188.3a1.09,1.09,0,0,0-.81-1.09,1.15,1.15,0,0,0,.29-.78,1.06,1.06,0,0,0-1-1.1,1.23,1.23,0,0,0,.16-.61,1.05,1.05,0,0,0-1-1.1.94.94,0,0,0-.62.24,1.06,1.06,0,0,0-1-1.1,1,1,0,0,0-.84.5,1,1,0,0,0-.95-.75,1,1,0,0,0-.87.56,1,1,0,0,0-.7-.31,1.06,1.06,0,0,0-1,1,.9.9,0,0,0-.53-.17,1.05,1.05,0,0,0-1,1.1,1.09,1.09,0,0,0,0,.26h0a1.05,1.05,0,0,0-1,1.1,1.19,1.19,0,0,0,.28.77,1.09,1.09,0,0,0-.81,1.09,1.1,1.1,0,0,0,.66,1,1.16,1.16,0,0,0-.42.9,1.07,1.07,0,0,0,.88,1.09,2.21,2.21,0,0,0,.91,1.39c.46.47,4.18.93,5.95.76a1,1,0,0,0,.73.34,1.06,1.06,0,0,0,1-1.1v0a1.06,1.06,0,0,0,.91-1.09,1.35,1.35,0,0,0,0-.29,1.12,1.12,0,0,0,.62-1,1.17,1.17,0,0,0-.24-.71A1.1,1.1,0,0,0,166,188.3Z" transform="translate(-3.4 -17.45)"/><path class="cls-4" d="M163.59,190.39s1-1.16,1.18.19c.15,1.56-1.14,2.19-1.4,1.7S163.59,190.39,163.59,190.39Z" transform="translate(-3.4 -17.45)"/><path class="cls-4" d="M156.21,190.47s-1.05-1.16-1.18.19c-.15,1.57,1.14,2.2,1.4,1.7S156.21,190.47,156.21,190.47Z" transform="translate(-3.4 -17.45)"/><path class="cls-4" d="M160,196.05c2.34,0,3.65-1.68,3.65-6.71,0-2.59-1.2-4.18-3.81-4.18s-3.72,1.59-3.72,4.18C156.13,194.75,157.6,196.05,160,196.05Z" transform="translate(-3.4 -17.45)"/><path class="cls-12" d="M156.9,191.14a.54.54,0,0,0,.46.57.5.5,0,0,0,.61-.37.54.54,0,0,0-.46-.57A.5.5,0,0,0,156.9,191.14Z" transform="translate(-3.4 -17.45)"/><path class="cls-12" d="M161.71,191.28a.5.5,0,0,0,.56.43.51.51,0,0,0,.51-.51.48.48,0,0,0-.56-.43A.51.51,0,0,0,161.71,191.28Z" transform="translate(-3.4 -17.45)"/><path class="cls-10" d="M157.93,188.44a.1.1,0,0,0,.09,0,1.23,1.23,0,0,1,.94-.21.11.11,0,0,0,.13-.1A.12.12,0,0,0,159,188a1.48,1.48,0,0,0-1.12.25.14.14,0,0,0,0,.18S157.9,188.44,157.93,188.44Z" transform="translate(-3.4 -17.45)"/><path class="cls-10" d="M162.4,188.46a.14.14,0,0,0,.08-.05.14.14,0,0,0,0-.18,1.46,1.46,0,0,0-1.11-.29.13.13,0,0,0-.1.15.12.12,0,0,0,.13.11,1.26,1.26,0,0,1,.93.23Z" transform="translate(-3.4 -17.45)"/><path class="cls-13" d="M158.17,189.89c0,.32.13.58.29.58s.3-.26.3-.58-.13-.58-.3-.58S158.17,189.57,158.17,189.89Z" transform="translate(-3.4 -17.45)"/><path class="cls-13" d="M161.29,189.89c0,.32.13.58.29.58s.3-.26.3-.58-.13-.58-.3-.58S161.29,189.57,161.29,189.89Z" transform="translate(-3.4 -17.45)"/><path class="cls-10" d="M162.63,186.39l-5.2-.41s-1.3,1.5-1.21,5.18c0,0-2.09-6.63,4-6.63s3.35,6.48,3.35,6.48S163.76,187.63,162.63,186.39Z" transform="translate(-3.4 -17.45)"/><path class="cls-12" d="M159.86,191.6l.18-.19-.46-.5a5.91,5.91,0,0,0,.44-2.38h-.25a5.05,5.05,0,0,1-.45,2.29l-.08.1Z" transform="translate(-3.4 -17.45)"/><path class="cls-13" d="M161.41,192.44a14.34,14.34,0,0,1-3.46-.23,1.74,1.74,0,1,0,3.46.23Z" transform="translate(-3.4 -17.45)"/><path class="cls-14" d="M142.82,173.56s-1.73.09-1.73.7,0,1.35,1.46,1.26,1.46-.71,1.48-1.3S143.29,173.51,142.82,173.56Z" transform="translate(-3.4 -17.45)"/><path class="cls-14" d="M179.15,173.91s-1.73,0-1.76.6,0,1.34,1.39,1.34,1.5-.62,1.55-1.22S179.62,173.89,179.15,173.91Z" transform="translate(-3.4 -17.45)"/><path class="cls-4" d="M140.1,169.76a9,9,0,0,1,.65,1.52,5.16,5.16,0,0,0,.6,2,2,2,0,0,1,.15,1.28,2.14,2.14,0,0,0,2.31-.16,3.27,3.27,0,0,1,0-1.05c.21-.46.91-.7,1.15-1.63a7.38,7.38,0,0,1,.94-2s-.2-.48-.57-.19-.61,1-.82,1.12l-.12,0h0a.49.49,0,0,1-.41-.12l0,0a5,5,0,0,1-.41-2.29c0-.79,0-1.89-.45-1.7s0,.62-.37,2.38l-.17,0a7.59,7.59,0,0,1-.41-2.18c0-.77-.51-.48-.6-.24a6.45,6.45,0,0,0,.08,1.56c0,.37,0,.75.07,1l-.2.11c-.69-1.33-.45-1.88-.86-1.91s-.26,1.1,0,1.53a4.5,4.5,0,0,1,.25.95c-.71-.91-.63-1.38-1-1.32S139.85,169.45,140.1,169.76Z" transform="translate(-3.4 -17.45)"/><path class="cls-11" d="M143.17,171.85a2,2,0,0,1,1.21-1.1.49.49,0,0,1-.41-.12A1.36,1.36,0,0,0,143.17,171.85Z" transform="translate(-3.4 -17.45)"/><path class="cls-4" d="M181.33,170a8.41,8.41,0,0,0-.66,1.52,5,5,0,0,1-.59,2,2,2,0,0,0-.16,1.28,2.13,2.13,0,0,1-2.3-.16,3.27,3.27,0,0,0,0-1.05c-.22-.46-.91-.7-1.15-1.63a7.6,7.6,0,0,0-.95-2s.2-.48.57-.19.62,1,.82,1.12l.12,0h0a.48.48,0,0,0,.41-.12l0,0a4.85,4.85,0,0,0,.4-2.29c0-.79,0-1.89.45-1.7s0,.63.38,2.38l.16,0a6.86,6.86,0,0,0,.41-2.18c.05-.77.51-.48.61-.24a7,7,0,0,1-.08,1.56c0,.37-.05.75-.07,1l.19.11c.7-1.33.46-1.88.86-1.91s.26,1.1.05,1.53a3.89,3.89,0,0,0-.26.95c.71-.91.63-1.38,1-1.32S181.58,169.7,181.33,170Z" transform="translate(-3.4 -17.45)"/><path class="cls-11" d="M178.25,172.1A2.06,2.06,0,0,0,177,171a.48.48,0,0,0,.41-.12A1.34,1.34,0,0,1,178.25,172.1Z" transform="translate(-3.4 -17.45)"/><path class="cls-9" d="M165.89,229.41c-.22.8-.36,1.25-.36,1.25s-16.5-2.35-18.45-7.25l.09-.38C148.21,224.94,160.86,229.58,165.89,229.41Z" transform="translate(-3.4 -17.45)"/><path class="cls-8" d="M225.84,278.36h8a19.65,19.65,0,0,0-.34-7l-3.66-.69c-.34,2.22-.74,3.09-1.3,3.54h0a5.21,5.21,0,0,1-1.5.66,2.06,2.06,0,0,0-1.24,1.27A4.12,4.12,0,0,0,225.84,278.36Z" transform="translate(-3.4 -17.45)"/><path class="cls-15" d="M225.83,276.12c2,.27,6.33.74,6.06-.52-.22-1.05-2-1.34-3.32-1.41h0a5.21,5.21,0,0,1-1.5.66A2.06,2.06,0,0,0,225.83,276.12Z" transform="translate(-3.4 -17.45)"/><path class="cls-8" d="M252.72,278.36h8a4.64,4.64,0,0,0,.14-1.7,2.11,2.11,0,0,0-1.37-1.81,4,4,0,0,1-1.66-.81c-.48-.49-.83-1.4-1.13-3.39l-3.67.69A19.78,19.78,0,0,0,252.72,278.36Z" transform="translate(-3.4 -17.45)"/><path class="cls-15" d="M260.88,276.66a2.11,2.11,0,0,0-1.37-1.81,4,4,0,0,1-1.66-.81c-1,.34-2.44,1-2.88,1.93C254.36,277.28,259.05,277.08,260.88,276.66Z" transform="translate(-3.4 -17.45)"/><path class="cls-16" d="M257.29,271.25s-.61,2.19-4.6.68c0,0-3-24.51-3.43-25s-5.17-16.55-5.17-16.55h-1.48s-4.71,16-5.17,16.55-3.42,25-3.42,25c-4,1.51-4.61-.68-4.61-.68l1.92-26.42,4-27.24,8,1,8-1,1,7.12.05.27,2.91,19.85Z" transform="translate(-3.4 -17.45)"/><path class="cls-17" d="M252.46,225a5.57,5.57,0,0,1-3.6-3.55l.22-.07a5.39,5.39,0,0,0,3.33,3.35Z" transform="translate(-3.4 -17.45)"/><path class="cls-17" d="M243.9,227.92a1,1,0,0,1-.81.37c0,.66,0,1.35,0,2.05h-.24a44.87,44.87,0,0,0-.16-5.81l.23,0s.16,1.58.19,3.53a.84.84,0,0,0,.66-.28c.76-.89.32-3.46.31-3.48l.23-.05C244.3,224.33,244.75,226.94,243.9,227.92Z" transform="translate(-3.4 -17.45)"/><path class="cls-4" d="M265.51,169.67a7.2,7.2,0,0,0-1.35.77,4.31,4.31,0,0,1-1.59,1.24c-.52.16-.56,1.18-.56,1.18s-2,.92-2.32-.47c0,0,.83-2,.87-2.28.08-.51-.34-1.17,0-2.07a7.74,7.74,0,0,0,.33-2.2.36.36,0,0,1,.56.23c.14.49-.08,1.24,0,1.43a.44.44,0,0,0,.08.11h0a.49.49,0,0,0,.39.18h0c.51-.12,1.27-1.09,1.57-1.55.42-.65,1.05-1.51,1.3-1.07s-.32.53-1,2.15l.12.13a6.31,6.31,0,0,0,1.52-1.47c.46-.58.67,0,.62.21s-.59.77-.92,1.19l-.59.74.09.22c1.28-.61,1.4-1.2,1.73-1s-.39,1.05-.8,1.25a3.45,3.45,0,0,0-.72.59c1.06-.25,1.26-.68,1.49-.42S265.88,169.59,265.51,169.67Z" transform="translate(-3.4 -17.45)"/><path class="cls-11" d="M261.92,169.3a2.44,2.44,0,0,0-.36-1.68.49.49,0,0,0,.39.18A1.45,1.45,0,0,1,261.92,169.3Z" transform="translate(-3.4 -17.45)"/><path class="cls-4" d="M205.28,182.27a6.72,6.72,0,0,1,1.52.18,4,4,0,0,0,1.89.5c.53-.06.91.88.91.88s2.14.06,2-1.38c0,0-1.46-1.54-1.58-1.76-.24-.45-.07-1.23-.67-1.93a7.61,7.61,0,0,1-1-1.92.38.38,0,0,0-.45.44c0,.5.49,1.11.45,1.34a.57.57,0,0,1,0,.14h0a.5.5,0,0,1-.3.32h0a3.83,3.83,0,0,1-2-.81c-.6-.43-1.47-1-1.55-.47s.46.37,1.65,1.6l-.07.17a5.75,5.75,0,0,1-1.9-.76c-.63-.35-.65.23-.51.45s.81.47,1.26.73l.79.45v.24c-1.4,0-1.7-.55-1.93-.19s.71.82,1.16.84a3.51,3.51,0,0,1,.87.25c-1.07.2-1.4-.12-1.53.22S204.91,182.35,205.28,182.27Z" transform="translate(-3.4 -17.45)"/><path class="cls-11" d="M208.5,180.47a2.45,2.45,0,0,1-.23-1.7.5.5,0,0,1-.3.32A1.35,1.35,0,0,0,208.5,180.47Z" transform="translate(-3.4 -17.45)"/><path class="cls-2" d="M262.54,173.3s-.21.87-.56,2.17c-.14.53-.3,1.13-.48,1.78-.28,1-.6,2.12-.94,3.22-.18.6-.37,1.2-.56,1.78a31.52,31.52,0,0,1-1.46,3.78l-.19.38a8.31,8.31,0,0,1-.78,1.12,26,26,0,0,1-2.06,2.27c-.41.42-.84.84-1.28,1.26-.73.69-1.49,1.39-2.24,2.07l-1.39,1.23c-2.32,2-4.24,3.6-4.24,3.6l-3.47-7.78c1-.73,2.81-2,4.72-3.23l1.35-.89,2-1.32,1.38-.89,1.45-.94.61-.39.42-.9,1.28-2.72c.23-.48.47-1,.73-1.51.39-.82.8-1.67,1.2-2.48.25-.53.51-1,.74-1.51.67-1.32,1.23-2.38,1.52-2.8A3.9,3.9,0,0,1,262.54,173.3Z" transform="translate(-3.4 -17.45)"/><path class="cls-18" d="M252,193.13l-1.39,1.23a15.24,15.24,0,0,0-3-7.41l1.35-.89A16.78,16.78,0,0,1,252,193.13Z" transform="translate(-3.4 -17.45)"/><path class="cls-18" d="M255.51,189.8c-.41.42-.84.84-1.28,1.26a13.32,13.32,0,0,0-3.26-6.32l1.38-.89A14.88,14.88,0,0,1,255.51,189.8Z" transform="translate(-3.4 -17.45)"/><path class="cls-18" d="M258.54,186l-.19.38a8.31,8.31,0,0,1-.78,1.12,16.92,16.92,0,0,0-3.77-4.62l.61-.39.42-.9A18.08,18.08,0,0,1,258.54,186Z" transform="translate(-3.4 -17.45)"/><path class="cls-18" d="M260.56,180.47c-.18.6-.37,1.2-.56,1.78a20.78,20.78,0,0,0-3.89-3.35c.23-.48.47-1,.73-1.51A22.92,22.92,0,0,1,260.56,180.47Z" transform="translate(-3.4 -17.45)"/><path class="cls-18" d="M262,175.47c-.14.53-.3,1.13-.48,1.78a12.07,12.07,0,0,0-3.46-2.34c.25-.53.51-1,.74-1.51A13.71,13.71,0,0,1,262,175.47Z" transform="translate(-3.4 -17.45)"/><path class="cls-2" d="M233.27,192.2l-.62,8.63s-2.18-.63-4.9-1.54l-1.61-.55c-1-.34-2-.7-2.93-1.07-.52-.2-1-.4-1.52-.61a27.73,27.73,0,0,1-3-1.41,7,7,0,0,1-1.07-.72,3.22,3.22,0,0,1-.29-.26,24.36,24.36,0,0,1-2.27-2.55c-.34-.44-.7-.89-1-1.36-.7-.92-1.4-1.88-2-2.78l-1-1.38c-1.1-1.59-1.86-2.75-1.86-2.75a2.77,2.77,0,0,1,1.43-2.58,36.74,36.74,0,0,1,2.93,2.48l1.21,1.09,2.07,1.9,1.19,1.1,1.47,1.38.54.5.9.16,2,.34,1.56.27,2.12.38,1.54.28C230.19,191.54,232.16,191.93,233.27,192.2Z" transform="translate(-3.4 -17.45)"/><path class="cls-18" d="M227.75,199.29l-1.61-.55a26.81,26.81,0,0,1,.43-7.87l1.54.28A25.44,25.44,0,0,0,227.75,199.29Z" transform="translate(-3.4 -17.45)"/><path class="cls-18" d="M224.45,190.49a26.13,26.13,0,0,0-1.24,7.18c-.52-.2-1-.4-1.52-.61a27.22,27.22,0,0,1,1.2-6.84Z" transform="translate(-3.4 -17.45)"/><path class="cls-18" d="M220.9,189.88a33.49,33.49,0,0,0-2.2,5.77,7,7,0,0,1-1.07-.72,3.22,3.22,0,0,1-.29-.26,36.52,36.52,0,0,1,2.12-5.45l.54.5Z" transform="translate(-3.4 -17.45)"/><path class="cls-18" d="M218,187.84a33.58,33.58,0,0,0-2.92,4.28c-.34-.44-.7-.89-1-1.36a36.29,36.29,0,0,1,2.78-4Z" transform="translate(-3.4 -17.45)"/><path class="cls-18" d="M214.73,184.84A30.46,30.46,0,0,0,212,188l-1-1.38a31.49,31.49,0,0,1,2.5-2.85Z" transform="translate(-3.4 -17.45)"/><path class="cls-2" d="M254,219.65s-4.33,5-10.23,6.22A55.1,55.1,0,0,1,234,227s-.27-1.3-.67-3.34c-.1-.52-.22-1.1-.34-1.71-.22-1.1-.46-2.33-.71-3.63-.11-.56-.22-1.12-.33-1.7-.2-1.06-.41-2.15-.62-3.24-.1-.56-.21-1.13-.31-1.69-.26-1.39-.51-2.76-.74-4.06-.1-.59-.2-1.16-.3-1.72-.26-1.56-.49-3-.66-4.11-.09-.69-.17-1.28-.21-1.75,0-.17,0-.33,0-.47-.08-1.18-.12-2.27-.13-3.26,0-.64,0-1.23,0-1.76,0-1.87.13-3,.13-3,1.22-.92,9.66,2.05,9.66,2.05s6.24-5.89,7.21-5.47a4,4,0,0,1,1.58,1.56,12,12,0,0,1,.81,1.53,28.67,28.67,0,0,1,1.27,3.39c.18.58.35,1.2.53,1.83.28,1,.55,2.15.8,3.28.13.57.26,1.15.38,1.74.23,1.1.45,2.22.64,3.34.11.59.21,1.18.31,1.77.17,1,.34,2,.48,3,.1.62.19,1.23.27,1.82.19,1.31.35,2.53.49,3.61.09.67.16,1.28.23,1.83C253.9,218.55,254,219.65,254,219.65Z" transform="translate(-3.4 -17.45)"/><path class="cls-18" d="M248.29,191.18c-1.88,2.12-5.2,5.22-9,6.06a11.66,11.66,0,0,1-2.52.24,33,33,0,0,1-7.85-1.19c0-.64,0-1.23,0-1.76,3.34.89,7.38,1.63,10.07,1,3.6-.78,6.82-4,8.51-5.92A12,12,0,0,1,248.29,191.18Z" transform="translate(-3.4 -17.45)"/><path class="cls-18" d="M250.09,196.4c-1.93,2-6.76,5.69-15.94,5.69a39.06,39.06,0,0,1-4.87-.32c-.09-.69-.17-1.28-.21-1.75,13.37,1.82,19.18-3.91,20.49-5.45C249.74,195.15,249.91,195.77,250.09,196.4Z" transform="translate(-3.4 -17.45)"/><path class="cls-18" d="M251.27,201.42c-3.73,2.3-11.34,6.19-20.33,6.19h-.7c-.1-.59-.2-1.16-.3-1.72,9.33.3,17.41-4,20.95-6.2C251,200.25,251.15,200.83,251.27,201.42Z" transform="translate(-3.4 -17.45)"/><path class="cls-18" d="M252.22,206.53c-3.23,1.93-11.45,6.29-20.93,6.82-.1-.56-.21-1.13-.31-1.69,9.64-.5,18.18-5.22,20.93-6.9C252,205.35,252.12,205.94,252.22,206.53Z" transform="translate(-3.4 -17.45)"/><path class="cls-18" d="M253,211.31c-3.7,2.38-11.75,6.81-20.73,7-.11-.56-.22-1.12-.33-1.7,9.12-.09,17.48-4.92,20.79-7.1C252.8,210.11,252.89,210.72,253,211.31Z" transform="translate(-3.4 -17.45)"/><path class="cls-18" d="M253.69,216.75c-3.81,2.33-12.23,6.89-19.85,6.89h-.55c-.1-.52-.22-1.1-.34-1.71,7.77.4,17-4.81,20.51-7C253.55,215.59,253.62,216.2,253.69,216.75Z" transform="translate(-3.4 -17.45)"/><path class="cls-11" d="M239.85,190.11s-.25,2.31.52,3c0,0-.39,1.64-1.56,2-1.34.36-2.1-1.2-2.1-1.2s.36-2.25-.49-2.84Z" transform="translate(-3.4 -17.45)"/><path class="cls-19" d="M240.87,185.22s.82-1.53-1.15-3.95a5.3,5.3,0,0,0-4.13-2.86c-3.2-.53-5.58,3.31-5.58,5.42s1.14,0,1.14,0a9.44,9.44,0,0,0,.62,2.13s-.12,2.13,1.1,2.13S240.87,185.22,240.87,185.22Z" transform="translate(-3.4 -17.45)"/><path class="cls-4" d="M233.52,187.77s-1.28-.7-1,.57c.29,1.47,1.64,1.61,1.73,1.07S233.52,187.77,233.52,187.77Z" transform="translate(-3.4 -17.45)"/><path class="cls-4" d="M240.22,185.38s.63-1.4,1.12-.22c.57,1.37-.42,2.37-.79,2S240.22,185.38,240.22,185.38Z" transform="translate(-3.4 -17.45)"/><path class="cls-4" d="M238.32,191.71c-2.12.78-3.77-.3-5.16-4.86-.72-2.35-.07-4.19,2.3-5.07s3.81.2,4.52,2.55C241.48,189.23,240.51,190.9,238.32,191.71Z" transform="translate(-3.4 -17.45)"/><path class="cls-12" d="M239.78,186.22a.54.54,0,0,1-.26.67.45.45,0,0,1-.65-.13.54.54,0,0,1,.26-.67A.45.45,0,0,1,239.78,186.22Z" transform="translate(-3.4 -17.45)"/><path class="cls-12" d="M235.46,188a.51.51,0,0,1-.39.58.46.46,0,0,1-.6-.29.51.51,0,0,1,.39-.58A.45.45,0,0,1,235.46,188Z" transform="translate(-3.4 -17.45)"/><path class="cls-14" d="M238.09,184.21a.1.1,0,0,1-.09,0,1.13,1.13,0,0,0-.91,0A.12.12,0,0,1,237,184a1.37,1.37,0,0,1,1.1,0,.14.14,0,0,1,0,.17A.09.09,0,0,1,238.09,184.21Z" transform="translate(-3.4 -17.45)"/><path class="cls-14" d="M234.1,185.68a.08.08,0,0,1-.08,0,.13.13,0,0,1-.05-.16,1.52,1.52,0,0,1,.85-.76.12.12,0,0,1,.14.09.13.13,0,0,1-.07.15,1.29,1.29,0,0,0-.72.62A.12.12,0,0,1,234.1,185.68Z" transform="translate(-3.4 -17.45)"/><path class="cls-13" d="M238.28,185.51c.09.29,0,.57-.1.62s-.34-.14-.43-.42,0-.57.11-.63S238.2,185.22,238.28,185.51Z" transform="translate(-3.4 -17.45)"/><path class="cls-13" d="M235.46,186.55c.08.29,0,.57-.11.62s-.33-.13-.42-.42,0-.57.1-.62S235.37,186.26,235.46,186.55Z" transform="translate(-3.4 -17.45)"/><path class="cls-13" d="M236.4,189.64a6.53,6.53,0,0,0,2.75-1.28S239,190,238,190.21A1.47,1.47,0,0,1,236.4,189.64Z" transform="translate(-3.4 -17.45)"/><path class="cls-12" d="M237.71,188.35a2.79,2.79,0,0,1-.5.1l0-.26c.25,0,.61-.11.65-.23s0-.12-.09-.21a10.52,10.52,0,0,1-1.17-2.47l.22-.09a10.88,10.88,0,0,0,1.12,2.38.46.46,0,0,1,.14.48A.53.53,0,0,1,237.71,188.35Z" transform="translate(-3.4 -17.45)"/><path class="cls-14" d="M234.84,180.75c-4.73,1.92-1.89,6.83-1.89,6.83l.69.69a4.93,4.93,0,0,1-.09-2.19,3.42,3.42,0,0,1-.26-2,8.33,8.33,0,0,1,4.8-1.93,3.44,3.44,0,0,1,.81,1.61,7.51,7.51,0,0,1,1.55,2.37l.08-1.2S239.44,178.87,234.84,180.75Z" transform="translate(-3.4 -17.45)"/><path class="cls-2" d="M234.3,271.78l-2.08.54s-3.26-19.2-4-21.23c-.65-1.75-3.4-8.45-4.32-13.59a3.2,3.2,0,0,1-.71-.11h0l-.3-.07-.3-.07a97.7,97.7,0,0,1-1.4,13.21c-.38,2.15-.18,21.7-.18,21.7l-2.14-.08c-4.06-15.83-1.92-21.77-1.92-21.77s-3.72-14.25-2.4-19.27a34.34,34.34,0,0,1,1.49-4.47l.13-.31a31.34,31.34,0,0,1,1.9-3.85l4.35.6,0-.08.13,0v1.5l.55,0h.13l1.8-.11h.25l1.58-.09s1,1.65,2.3,4.32l.15.31c.48.95,1,2,1.56,3.2,2.19,4.65,1.44,18,1.44,18S235.49,255.39,234.3,271.78Z" transform="translate(-3.4 -17.45)"/><path class="cls-20" d="M219.48,223s-1.14,3-3.46,3.61l.13-.31c2.09-.71,3.1-3.37,3.12-3.4Z" transform="translate(-3.4 -17.45)"/><path class="cls-20" d="M229.33,228.84c-2.6-.62-3.92-3.61-4.28-4.53q-.09-.26-.09-.27l.22-.09a3.42,3.42,0,0,0,.12.35c.37.94,1.59,3.56,3.88,4.23Z" transform="translate(-3.4 -17.45)"/><path class="cls-20" d="M223.17,237.39l-.3-.07a21.54,21.54,0,0,1-1.63-5.17,15.49,15.49,0,0,1,1-8.21l.21.11a15.3,15.3,0,0,0-1,8c0,.16.07.32.1.48l.06.24A20,20,0,0,0,223.17,237.39Z" transform="translate(-3.4 -17.45)"/><path class="cls-20" d="M221.5,232.84h0v-.26a.47.47,0,0,0,.38-.21c.16-.19.49-.8.22-2.3-.36-2,1-5.55,1.06-5.7l.21.1s-1.38,3.61-1,5.55a3.1,3.1,0,0,1-.27,2.52A.72.72,0,0,1,221.5,232.84Z" transform="translate(-3.4 -17.45)"/><path class="cls-10" d="M221.55,204.35a4.72,4.72,0,0,0-.28-3.72c-1-2.36-.77-8.87,4.09-8.6,0,0,2.88-.52,4.33,1.55s2.64,9.39,1.12,14.82S219.6,212.37,221.55,204.35Z" transform="translate(-3.4 -17.45)"/><path class="cls-4" d="M226.88,224.21a9.25,9.25,0,0,1-8.83-1.8s-.8-18,.72-19.2c.66-.53,2-.11,3.23.54a23.74,23.74,0,0,1,3.18,2,22.12,22.12,0,0,1,5-.17c1.42.17,2.59.63,2.64,1.66C233,209.92,226.88,224.21,226.88,224.21Z" transform="translate(-3.4 -17.45)"/><path class="cls-11" d="M230.35,205.64c-.95-.1-1.13.69-2.08,1.07a12.56,12.56,0,0,1-2.54.73c-.44,0-.67.63-.67.63s-.15-.8-.39-.87a12,12,0,0,1-2.67-3.45,23.74,23.74,0,0,1,3.18,2,22.12,22.12,0,0,1,5-.17Z" transform="translate(-3.4 -17.45)"/><path class="cls-5" d="M217.89,274.07c.13-1-.2-1.67,0-2.14.36-.73.74.19.74.19,0-1.11,1.73-1.11,1.9-.6a3.17,3.17,0,0,0,.15.37c.1-.26.28-.52.51-.37.91.59-.22,2.13.61,3.25a4.61,4.61,0,0,1,.4,3.59h-5C216.62,275.33,217.76,275.05,217.89,274.07Z" transform="translate(-3.4 -17.45)"/><path class="cls-6" d="M221,273.71a2.84,2.84,0,0,0-2.76.22l.31-.62a2.55,2.55,0,0,1,2.31-.19Z" transform="translate(-3.4 -17.45)"/><path class="cls-6" d="M221.2,274.75a4.13,4.13,0,0,0-3.27.26l.3-.66a3.8,3.8,0,0,1,2.76-.18Z" transform="translate(-3.4 -17.45)"/><path class="cls-5" d="M235.22,274.07c-.13-1,.2-1.67,0-2.14-.36-.73-.74.19-.74.19,0-1.11-1.73-1.11-1.9-.6a2,2,0,0,1-.15.37c-.1-.26-.28-.52-.51-.37-.91.59.22,2.13-.61,3.25a4.61,4.61,0,0,0-.4,3.59h5C236.49,275.33,235.35,275.05,235.22,274.07Z" transform="translate(-3.4 -17.45)"/><path class="cls-6" d="M232.12,273.71a2.84,2.84,0,0,1,2.76.22l-.31-.62a2.55,2.55,0,0,0-2.31-.19Z" transform="translate(-3.4 -17.45)"/><path class="cls-6" d="M231.91,274.75a4.13,4.13,0,0,1,3.27.26l-.3-.66a3.79,3.79,0,0,0-2.76-.18Z" transform="translate(-3.4 -17.45)"/><path class="cls-11" d="M224.82,199.82s.36,4.81-.86,5.49c0,0,.9,1.82,3.31.72a9.16,9.16,0,0,1,1.19-5.41C229.52,198.66,224.82,199.82,224.82,199.82Z" transform="translate(-3.4 -17.45)"/><path class="cls-4" d="M229.21,198.17s.9-1.15,1.11.09c.24,1.45-.92,2.13-1.19,1.69S229.21,198.17,229.21,198.17Z" transform="translate(-3.4 -17.45)"/><path class="cls-4" d="M222.36,198.82s-1.06-1-1.09.28c0,1.46,1.2,2,1.41,1.47S222.36,198.82,222.36,198.82Z" transform="translate(-3.4 -17.45)"/><path class="cls-4" d="M226.25,203.72c2.17-.18,3.29-1.84,3-6.52-.16-2.41-1.38-3.8-3.82-3.6s-3.35,1.77-3.19,4.19C222.55,202.81,224,203.91,226.25,203.72Z" transform="translate(-3.4 -17.45)"/><path class="cls-12" d="M223,199.39a.49.49,0,0,0,.46.5.47.47,0,0,0,.54-.39.48.48,0,0,0-.46-.49A.46.46,0,0,0,223,199.39Z" transform="translate(-3.4 -17.45)"/><path class="cls-12" d="M227.52,199.15a.46.46,0,0,0,.55.36.48.48,0,0,0,.44-.52.46.46,0,0,0-.55-.36A.5.5,0,0,0,227.52,199.15Z" transform="translate(-3.4 -17.45)"/><path class="cls-10" d="M223.81,196.87a.11.11,0,0,0,.13,0,1.2,1.2,0,0,1,.81-.4.13.13,0,0,0,.11-.13.11.11,0,0,0-.12-.11,1.37,1.37,0,0,0-1,.49.13.13,0,0,0,0,.17Z" transform="translate(-3.4 -17.45)"/><path class="cls-10" d="M227,196.24H227a1.18,1.18,0,0,1,.86.26.1.1,0,0,0,.15,0,.12.12,0,0,0,0-.17,1.38,1.38,0,0,0-1-.32.11.11,0,0,0-.09.13A.13.13,0,0,0,227,196.24Z" transform="translate(-3.4 -17.45)"/><path class="cls-13" d="M224.14,198.13c0,.3.16.53.31.52s.25-.26.23-.56-.16-.53-.31-.52S224.12,197.84,224.14,198.13Z" transform="translate(-3.4 -17.45)"/><path class="cls-13" d="M227.14,197.86c0,.3.16.53.31.52s.26-.27.23-.56-.15-.53-.3-.52S227.12,197.56,227.14,197.86Z" transform="translate(-3.4 -17.45)"/><path class="cls-13" d="M227,200.79a4,4,0,0,1-2.06,0s.47,1.07,1.2.91A1.16,1.16,0,0,0,227,200.79Z" transform="translate(-3.4 -17.45)"/><path class="cls-13" d="M224.86,197.93s-.25-.72-.5-.64-.42.71-.42.71l-.4-.19.39,0s.16-.67.42-.69S224.86,197.93,224.86,197.93Z" transform="translate(-3.4 -17.45)"/><path class="cls-13" d="M227,197.84s.14-.75.41-.72.5.64.5.64l.37-.26-.38.09s-.24-.63-.5-.61S227,197.84,227,197.84Z" transform="translate(-3.4 -17.45)"/><path class="cls-12" d="M225.79,199.66a.76.76,0,0,0,.16.06l0-.26a.29.29,0,0,1-.25-.27.34.34,0,0,1,.12-.3s.09,0,.14.08l.19-.16c-.17-.24-.34-.19-.41-.16a.56.56,0,0,0-.28.57A.54.54,0,0,0,225.79,199.66Z" transform="translate(-3.4 -17.45)"/><path class="cls-10" d="M226.18,194.37s.8-.29,1.13,1.06c.58,2.33,1,6.13,2.38,8,1,1.37,1.61.81,1.61.81a6,6,0,0,0-.16-2.69c-.42-1.35.12-6.2-1.45-8s-4.33-.64-4.33-.64a2.54,2.54,0,0,0-2.64,0c-1.3.87-1.67,4.77-.34,6.51,0,0-.07-1.47.51-2S223.8,193.64,226.18,194.37Z" transform="translate(-3.4 -17.45)"/><path class="cls-4" d="M216,175.19c-.5,1.76.73,2.56-.18,3.77a1,1,0,0,1-1.42.14,11.87,11.87,0,0,0-1.89-2.73c-.5-.54-.14-.55-.14-.55l-.15-.12c-.38-.32-.7-.48-.35-.6s1.51.69,1.51.69c-1.32-1.61-1.82-1.45-1.47-1.61s1.8,1,1.84,1c-.63-1.11-1.19-1.47-.83-1.51s1.72,1.75,2.21,2.41l.18.25C215.61,174.87,216,175.19,216,175.19Z" transform="translate(-3.4 -17.45)"/><path class="cls-11" d="M215.11,176.09l.18.25a1.33,1.33,0,0,0-.2,1.23A1.21,1.21,0,0,1,215.11,176.09Z" transform="translate(-3.4 -17.45)"/><path class="cls-11" d="M213.48,176.73c-.12-.12-.81-.85-1.13-.91l-.15-.12C212.48,175.45,213.35,176.56,213.48,176.73Z" transform="translate(-3.4 -17.45)"/><path class="cls-4" d="M215.8,179s-.18,11.67-.74,14c0,0,1.94,7.33,4.83,10,0,0,.45,2-2,5.9,0,0-4.86-9.56-5.64-15l2.18-14.71Z" transform="translate(-3.4 -17.45)"/><path class="cls-19" d="M222.19,203.85c.24,1,.38,4.36,3.31,6.1s6.07-.81,6.92-3.59c0,0,.36-.59,1.52.84,0,0,6.09,3.25,6.88,4.94s.31,8.13-2.13,8.23-5.38-2.89-6.15-.93-5.31,8.95-14.7,3.33a6.44,6.44,0,0,1-1.18-3.07c0-1.45-.6-11-.6-11s-3.47-1.11-2.6-10.09c0,0,2.39,1.45,2.33-3.34,0,0,2-1,2.62,3a8.68,8.68,0,0,0,2.86,4.67S221.81,202.38,222.19,203.85Z" transform="translate(-3.4 -17.45)"/><path class="cls-4" d="M242.21,215.48c2.07-1,6.63-5.09,8.26-7.49l-1-1s-5.37,4-7.43,4.72-3.15,2-2.9,3.62S241.77,215.68,242.21,215.48Z" transform="translate(-3.4 -17.45)"/><path class="cls-4" d="M252.17,204.62c-1,1.48-2.32.85-2.68,2.37a1.22,1.22,0,0,0,.73,1.35,10,10,0,0,1,3.12.08c.69.13.49-.19.49-.19l.18.06c.45.15.76.34.65,0s-1.4-.93-1.4-.93c2,.23,2.13.76,2.05.36-.11-.56-1.78-1-1.83-1,1.19-.08,1.79.2,1.61-.14s-2.3-.51-3.08-.55l-.28,0C252.62,204.76,252.17,204.62,252.17,204.62Z" transform="translate(-3.4 -17.45)"/><path class="cls-11" d="M252,205.93l-.28,0a1.24,1.24,0,0,1-.79.9A1,1,0,0,0,252,205.93Z" transform="translate(-3.4 -17.45)"/><path class="cls-11" d="M252.5,207.75a3.65,3.65,0,0,1,1.33.48l.18.06C254,207.89,252.7,207.77,252.5,207.75Z" transform="translate(-3.4 -17.45)"/><path class="cls-4" d="M193.75,231a30.26,30.26,0,0,1,3.93-8.75l3.94.72,0-.08.32.07H202l4.07.89a44.76,44.76,0,0,1,2.92,8.66c1.16,5.07-2.32,17.88-2.32,17.88s2,6-2.58,21.67H202s.8-19.51.49-21.67A115.48,115.48,0,0,1,202,236.5a2.52,2.52,0,0,1-.78.06h0a114.07,114.07,0,0,1-.86,13.9c-.38,2.15-.18,21.7-.18,21.7l-2.14-.08c-4.06-15.83-1.91-21.77-1.91-21.77S192.43,236.06,193.75,231Z" transform="translate(-3.4 -17.45)"/><path class="cls-2" d="M212.1,207.26c-.14-2.66-7.7-1.49-7.7-1.49s-4.9-3.77-6.41-2.56c-.54.43-.78,3-.88,6a4.15,4.15,0,0,0-.05,4.29c0,4.54.21,8.86.21,8.86a9.28,9.28,0,0,0,8.84,1.79s1.81-4.21,3.44-8.49a4.27,4.27,0,0,0,1.24-3.39A19.78,19.78,0,0,0,212.1,207.26Z" transform="translate(-3.4 -17.45)"/><path class="cls-14" d="M211.15,193.72a5.88,5.88,0,0,0-9.63-.93c-2.29,3.24-1.07,10.79-1.07,10.79s5.28-4.83,8.44,1.78C208.89,205.36,213.6,198.31,211.15,193.72Z" transform="translate(-3.4 -17.45)"/><path class="cls-8" d="M197.11,274.07c.13-1-.2-1.67,0-2.14.36-.73.74.19.74.19,0-1.11,1.72-1.11,1.89-.6.05.13.1.26.15.37.11-.26.29-.52.52-.37.9.59-.22,2.13.6,3.25a4.61,4.61,0,0,1,.4,3.59h-5C195.84,275.33,197,275.05,197.11,274.07Z" transform="translate(-3.4 -17.45)"/><path class="cls-15" d="M200.22,273.71a2.85,2.85,0,0,0-2.77.22l.31-.62a2.56,2.56,0,0,1,2.31-.19Z" transform="translate(-3.4 -17.45)"/><path class="cls-15" d="M200.42,274.75a4.11,4.11,0,0,0-3.26.26l.29-.66a3.82,3.82,0,0,1,2.77-.18Z" transform="translate(-3.4 -17.45)"/><path class="cls-8" d="M205.14,274.07c-.13-1,.2-1.67,0-2.14-.36-.73-.74.19-.74.19,0-1.11-1.73-1.11-1.9-.6a2,2,0,0,1-.15.37c-.1-.26-.28-.52-.51-.37-.91.59.22,2.13-.61,3.25a4.66,4.66,0,0,0-.4,3.59h5C206.41,275.33,205.27,275.05,205.14,274.07Z" transform="translate(-3.4 -17.45)"/><path class="cls-15" d="M202,273.71a2.84,2.84,0,0,1,2.76.22l-.31-.62a2.53,2.53,0,0,0-2.3-.19Z" transform="translate(-3.4 -17.45)"/><path class="cls-15" d="M201.83,274.75a4.13,4.13,0,0,1,3.27.26l-.3-.66a3.79,3.79,0,0,0-2.76-.18Z" transform="translate(-3.4 -17.45)"/><path class="cls-11" d="M204,199.82a13.81,13.81,0,0,1-.85,5.49s.89,1.82,3.3.72a9.25,9.25,0,0,1,1.19-5.41C208.75,198.66,204,199.82,204,199.82Z" transform="translate(-3.4 -17.45)"/><path class="cls-4" d="M209.37,198.46s1.15-.86,1.06.4c-.11,1.47-1.39,1.8-1.55,1.3S209.37,198.46,209.37,198.46Z" transform="translate(-3.4 -17.45)"/><path class="cls-4" d="M202.6,197.15s-.79-1.25-1.11,0c-.39,1.41.7,2.23,1,1.82S202.6,197.15,202.6,197.15Z" transform="translate(-3.4 -17.45)"/><path class="cls-4" d="M205.21,203c2.15.43,3.62-.86,4.4-5.47.4-2.38-.45-4.06-2.85-4.55s-3.66.76-4.06,3.14C201.86,201.06,203,202.53,205.21,203Z" transform="translate(-3.4 -17.45)"/><path class="cls-12" d="M203.13,197.9a.52.52,0,0,0,.33.61.45.45,0,0,0,.61-.23.5.5,0,0,0-.33-.6A.44.44,0,0,0,203.13,197.9Z" transform="translate(-3.4 -17.45)"/><path class="cls-12" d="M207.51,198.93a.49.49,0,0,0,.45.5.46.46,0,0,0,.55-.37.48.48,0,0,0-.45-.5A.46.46,0,0,0,207.51,198.93Z" transform="translate(-3.4 -17.45)"/><path class="cls-14" d="M204.46,195.68a.12.12,0,0,0,.14,0,1.11,1.11,0,0,1,.88-.16.12.12,0,0,0,.13-.09.13.13,0,0,0-.09-.15,1.38,1.38,0,0,0-1.05.2.12.12,0,0,0,0,.17S204.46,195.67,204.46,195.68Z" transform="translate(-3.4 -17.45)"/><path class="cls-14" d="M207.65,196l.06,0a1.26,1.26,0,0,1,.77.5.1.1,0,0,0,.15,0,.12.12,0,0,0,0-.16,1.4,1.4,0,0,0-.92-.6.1.1,0,0,0-.12.1A.14.14,0,0,0,207.65,196Z" transform="translate(-3.4 -17.45)"/><path class="cls-13" d="M204.49,197c-.05.3,0,.56.17.59s.31-.19.36-.48,0-.55-.18-.58S204.54,196.7,204.49,197Z" transform="translate(-3.4 -17.45)"/><path class="cls-13" d="M207.41,197.64c0,.29,0,.55.18.58s.3-.18.35-.47,0-.55-.17-.58S207.46,197.35,207.41,197.64Z" transform="translate(-3.4 -17.45)"/><path class="cls-13" d="M206.6,200.36a4.14,4.14,0,0,1-2-.6s.2,1.16.95,1.21A1.09,1.09,0,0,0,206.6,200.36Z" transform="translate(-3.4 -17.45)"/><path class="cls-13" d="M205.23,197s-.07-.77-.34-.77-.56.58-.56.58l-.35-.3.37.13s.31-.6.57-.55S205.23,197,205.23,197Z" transform="translate(-3.4 -17.45)"/><path class="cls-13" d="M207.3,197.51s.31-.68.56-.58.34.76.34.76l.42-.14-.39,0s-.09-.69-.34-.74S207.3,197.51,207.3,197.51Z" transform="translate(-3.4 -17.45)"/><path class="cls-12" d="M205.72,198.93l.14.1.11-.23a.32.32,0,0,1-.19-.33.3.3,0,0,1,.2-.26s.08,0,.11.11l.21-.1c-.1-.27-.28-.28-.35-.27a.54.54,0,0,0-.4.48A.55.55,0,0,0,205.72,198.93Z" transform="translate(-3.4 -17.45)"/><path class="cls-14" d="M202.46,198a6.52,6.52,0,0,1,.73-5.19c1.61-2.34,6-.61,6.77,1.2s-.76,5.44-.76,5.44,1.21-4.83-1.22-5.63a3.62,3.62,0,0,1-2.19,2.07,6.15,6.15,0,0,1-3,.72Z" transform="translate(-3.4 -17.45)"/><path class="cls-11" d="M210.14,205.71s2.75.06,9.49,7.5c.94,1-.13,4.27-2.92,2.28-3.08-2.2-5.12-4.48-5.77-3.64C210.94,211.85,209.34,207.59,210.14,205.71Z" transform="translate(-3.4 -17.45)"/><path class="cls-4" d="M220,212.79c0-2.48-1.78-8.68-3.19-11.24l-1.21.62s1.35,7,1.17,9.34.51,4,2,4.32S220,213.31,220,212.79Z" transform="translate(-3.4 -17.45)"/><path class="cls-4" d="M214.64,198.54c.87,1.59-.15,2.69,1,3.63.71.58,1.41-.24,1.41-.24a12.69,12.69,0,0,1,1.25-3.14c.37-.66,0-.57,0-.57l.12-.16c.3-.4.57-.65.2-.68s-1.31,1.07-1.31,1.07c.93-1.9,1.45-1.88,1.08-1.95s-1.54,1.42-1.57,1.47c.38-1.25.84-1.75.48-1.69s-1.29,2.14-1.63,2.92l-.12.28C214.94,198.14,214.64,198.54,214.64,198.54Z" transform="translate(-3.4 -17.45)"/><path class="cls-11" d="M215.68,199.2l-.12.28a1.29,1.29,0,0,1,.46,1.15A1.2,1.2,0,0,0,215.68,199.2Z" transform="translate(-3.4 -17.45)"/><path class="cls-11" d="M217.41,199.39c.09-.15.6-1,.9-1.17l.12-.16C218.1,197.89,217.5,199.19,217.41,199.39Z" transform="translate(-3.4 -17.45)"/><path class="cls-11" d="M198.92,203s-2.72-.63-10.71,5.14c-1.11.8-.67,4.21,2.44,2.88,3.43-1.45,6-3.24,6.48-2.27C197.13,208.72,199.35,205,198.92,203Z" transform="translate(-3.4 -17.45)"/><path class="cls-4" d="M187.9,207.6c.48-2.41,3.37-8.09,5.22-10.28l1.07.88s-2.62,6.53-2.89,8.88-1.23,3.77-2.72,3.79S187.8,208.11,187.9,207.6Z" transform="translate(-3.4 -17.45)"/><path class="cls-4" d="M195.83,194.88c-1.14,1.36-.35,2.66-1.64,3.32-.81.41-1.34-.55-1.34-.55a13.14,13.14,0,0,0-.63-3.35c-.24-.73.08-.57.08-.57l-.08-.18c-.22-.46-.44-.77-.08-.71s1.09,1.34,1.09,1.34c-.56-2.07-1.07-2.16-.69-2.15s1.24,1.74,1.26,1.79c-.14-1.3-.5-1.9-.16-1.76s.87,2.39,1.05,3.22c0,.19.06.31.06.31C195.62,194.41,195.83,194.88,195.83,194.88Z" transform="translate(-3.4 -17.45)"/><path class="cls-11" d="M194.69,195.28c0,.19.06.31.06.31a1.23,1.23,0,0,0-.66,1A1.17,1.17,0,0,1,194.69,195.28Z" transform="translate(-3.4 -17.45)"/><path class="cls-11" d="M193,195.09a4.5,4.5,0,0,0-.67-1.36l-.08-.18C192.57,193.46,192.92,194.87,193,195.09Z" transform="translate(-3.4 -17.45)"/><path class="cls-14" d="M197.24,221.52s-9.21,13.86-6.32,28.54c0,0,3.11,3.18,5.56,2.07s5,2.9,7.15,1.62,4.11-2.21,5.63-1.53,4.06-2.16,4.06-2.16-1.12-16.23-6.72-26.95A8.94,8.94,0,0,1,197.24,221.52Z" transform="translate(-3.4 -17.45)"/><path class="cls-21" d="M201.05,274.77a4.88,4.88,0,0,1,.6,3.59h-.85A11.75,11.75,0,0,1,201.05,274.77Z" transform="translate(-3.4 -17.45)"/><path class="cls-4" d="M171.16,237.11A80.3,80.3,0,0,0,177,250.73s-.71,8.26,11,23.58l1.61-1s-6-15.4-7-20-.56-10.66-3.7-20.18Z" transform="translate(-3.4 -17.45)"/><path class="cls-2" d="M178.27,225.39l-5.52-2.46c-1,3.36-3.43,5.79-3.24,11.06a13.43,13.43,0,0,0,1.65,5.29c6.51-.26,8.72-3.25,8.72-3.25l-1-5.05A34.42,34.42,0,0,1,178.27,225.39Z" transform="translate(-3.4 -17.45)"/><path class="cls-4" d="M165.2,233.21a83.55,83.55,0,0,0,1.31,15s-3.17,7.53,3.17,26.25l1.81-.32s-1-16.72-.51-21.39,2.91-8.76,2.65-20.38Z" transform="translate(-3.4 -17.45)"/><path class="cls-2" d="M178.26,225.39l-2.18,4.06-.53,1-1.12,2.1-.73,5.62,0,.26,0,.12c-5.59-.71-8.57,1.21-8.57,1.21l-.05-.53,0-.17,0-.1c-.52-1.67-1.25-6.2-.39-9.28,1.42-5,4-4.57,5.89-7.38Z" transform="translate(-3.4 -17.45)"/><path class="cls-7" d="M168.57,272.68a6.64,6.64,0,0,1,.49,2.92c-.13.71-.82,1.62-.27,2.76h4.36a2.54,2.54,0,0,0-.52-2.47c-.57-.66-1-3.72-1-3.72a.4.4,0,0,0-.36.51s0-1.44-1.08-1.25a1.2,1.2,0,0,0-1,1.51A.43.43,0,0,0,168.57,272.68Z" transform="translate(-3.4 -17.45)"/><path class="cls-7" d="M194.71,278.36h-7.32a5.78,5.78,0,0,1,.11-2.28c.47-.83-1.14-2.65-1.14-2.65s1-1.34,1.84-.58c0,0-.08-1.68,1-1.66,0,0,1,2.84,2.17,3.85a.27.27,0,0,0,.08.07c.87.69,2.43.86,3,1.8A1.85,1.85,0,0,1,194.71,278.36Z" transform="translate(-3.4 -17.45)"/><path d="M174,238.26l-.07.25-.27-.09a10.44,10.44,0,0,0-8.64.8l0-.17,0-.1a9.47,9.47,0,0,1,2.26-.95,38.64,38.64,0,0,1,0-7.32c.4-3.91,3.88-6.27,3.92-6.29l.12.22a9.86,9.86,0,0,0-3.46,4.53c3.23,0,4.52-4.49,4.53-4.54l.22.08s-1.36,4.71-4.8,4.71h0a7,7,0,0,0-.26,1.32,38.09,38.09,0,0,0,0,7.23,11.56,11.56,0,0,1,6.23.22Z" transform="translate(-3.4 -17.45)"/><path d="M176.37,226.54a17.72,17.72,0,0,1-1.78,6.16l.2.13a18.29,18.29,0,0,0,1.82-6.26Z" transform="translate(-3.4 -17.45)"/><path class="cls-7" d="M186.38,225s-.54,2.8-1.13,3-.07-1.45-.07-1.45-4-1.78-5.67-1.91S180.18,221.06,186.38,225Z" transform="translate(-3.4 -17.45)"/><path class="cls-7" d="M185.68,225.49s-4.24-2.13-7.17-2,4.07-10.56,5.82-9.45S186.46,224.12,185.68,225.49Z" transform="translate(-3.4 -17.45)"/><path class="cls-7" d="M175.17,204.9s.42-1.17,2.52-1.38,3.95,2.19,3.55,3.61S175.17,204.9,175.17,204.9Z" transform="translate(-3.4 -17.45)"/><path class="cls-8" d="M178.51,194.75s-.15-3-2.69-3.45-4.55.22-3.66,4.22.31,5.59-1.35,5.77-1.55-2-1.55-2a2.47,2.47,0,0,0,1.47,2.7s-1.92.17-1.23,1.49,2.81,1.11,3.65,0c0,0,.06.9,1.1.58a.69.69,0,0,1-.38-.75c0-.6,2.91.41,3.82-3.32s-.91-4.34-.91-4.34Z" transform="translate(-3.4 -17.45)"/><path class="cls-4" d="M183.33,206.58c-1.53-.08-1.6,1.61-.81,3.25s8.32,9.09,9.48,7.69c.45-.54-.84-3-.84-3a61.42,61.42,0,0,1-4.94-5.53C184.94,207.36,184.14,206.62,183.33,206.58Z" transform="translate(-3.4 -17.45)"/><path class="cls-4" d="M193,214.83c.43-2.43-.19-8.89-1.11-11.71l-1.3.34s.07,7.14-.53,9.42-.21,4,1.15,4.66S192.93,215.34,193,214.83Z" transform="translate(-3.4 -17.45)"/><path class="cls-4" d="M189.11,201.56c1.4,1,.91,2.5,2.31,2.8a.79.79,0,0,0,.69-.14,1.2,1.2,0,0,0,.42-1.13,14.74,14.74,0,0,1,0-3c.08-.77-.2-.52-.2-.52a1.55,1.55,0,0,1,0-.21c.11-.5.26-.85-.08-.7s-.77,1.58-.77,1.58c.1-2.16.58-2.38.21-2.27s-.83,2-.84,2.07c-.15-1.3.08-2-.23-1.76s-.33,2.55-.32,3.41V202C189.22,201.05,189.11,201.56,189.11,201.56Z" transform="translate(-3.4 -17.45)"/><path class="cls-11" d="M190.31,201.66V202a1.18,1.18,0,0,1,.86.82A1.11,1.11,0,0,0,190.31,201.66Z" transform="translate(-3.4 -17.45)"/><path class="cls-11" d="M191.94,201a4.48,4.48,0,0,1,.36-1.48,1.55,1.55,0,0,1,0-.21C192,199.34,191.94,200.8,191.94,201Z" transform="translate(-3.4 -17.45)"/><path class="cls-7" d="M181.07,206.47a5.08,5.08,0,0,1,4.65.73,14.49,14.49,0,0,1,4.09,4.35s0-5,.79-5.84a4.31,4.31,0,0,0,2.15,1.49s3,6.94,1.1,11.25-7.67,0-7.67,0Z" transform="translate(-3.4 -17.45)"/><path class="cls-5" d="M170.48,222.29s1.53-4.43.75-6.95c-1.34-4.31-.61-8,.8-9,2.27-1.74,7,.25,7,.25s4.63-.54,5.1,1,1.58,7.8-.63,11.14-5.26,8.51-5.26,8.51S171.72,226.55,170.48,222.29Z" transform="translate(-3.4 -17.45)"/><path class="cls-7" d="M173.15,225s-.64,2.39-1.45,2.24-4.33-2.23-4.34-2.58a3.33,3.33,0,0,1,.5-1.11s-.19-1.83.23-2S173.15,225,173.15,225Z" transform="translate(-3.4 -17.45)"/><path class="cls-19" d="M180.58,205.71a47.61,47.61,0,0,1,4.6,20.84s2.19-.64,2.61-5-1-12.66-2.93-14.84A4.5,4.5,0,0,0,180.58,205.71Z" transform="translate(-3.4 -17.45)"/><path class="cls-19" d="M176.5,205.33s3.6,14.15-3.35,19.65a7.79,7.79,0,0,1-5-2.69c-2.09-2.51.74-16,.74-16S172.59,203.6,176.5,205.33Z" transform="translate(-3.4 -17.45)"/><path class="cls-7" d="M177.24,209.76s0-4.25-.46-5.37-1.61.51-1.61.51A15.13,15.13,0,0,0,177.24,209.76Z" transform="translate(-3.4 -17.45)"/><path class="cls-7" d="M182.14,209.36s.44-4.19-.88-4.93-1.34,1.88-1.34,1.88S181.08,206.18,182.14,209.36Z" transform="translate(-3.4 -17.45)"/><path class="cls-11" d="M178.35,200.77a13.85,13.85,0,0,1-.66,5.52s1.39,2.25,2.72.77a15.67,15.67,0,0,1,1.61-5.65C183,199.4,178.35,200.77,178.35,200.77Z" transform="translate(-3.4 -17.45)"/><path class="cls-4" d="M176.22,200.87s-1.17-.82-1,.44c.15,1.45,1.45,1.74,1.59,1.23S176.22,200.87,176.22,200.87Z" transform="translate(-3.4 -17.45)"/><path class="cls-4" d="M183,199.29s.74-1.29,1.11-.09c.43,1.39-.63,2.25-1,1.86S183,199.29,183,199.29Z" transform="translate(-3.4 -17.45)"/><path class="cls-4" d="M180.53,205.22c-2.13.52-3.64-.71-4.57-5.29-.49-2.36.31-4.07,2.69-4.66s3.68.61,4.17,3C183.82,203.17,182.72,204.68,180.53,205.22Z" transform="translate(-3.4 -17.45)"/><path class="cls-12" d="M182.44,200.05a.5.5,0,0,1-.31.62.45.45,0,0,1-.62-.19.52.52,0,0,1,.31-.62A.44.44,0,0,1,182.44,200.05Z" transform="translate(-3.4 -17.45)"/><path class="cls-12" d="M178.1,201.26a.5.5,0,0,1-.44.52.46.46,0,0,1-.56-.35.51.51,0,0,1,.44-.53A.48.48,0,0,1,178.1,201.26Z" transform="translate(-3.4 -17.45)"/><path class="cls-8" d="M181,197.92l-.06,0a1.07,1.07,0,0,0-.88-.12.11.11,0,0,1-.13-.09.13.13,0,0,1,.07-.15,1.36,1.36,0,0,1,1.06.16.13.13,0,0,1,0,.17A.11.11,0,0,1,181,197.92Z" transform="translate(-3.4 -17.45)"/><path class="cls-8" d="M177,198.9h-.06a.14.14,0,0,1,0-.17,1.39,1.39,0,0,1,.89-.63.11.11,0,0,1,.13.09.13.13,0,0,1-.08.14,1.26,1.26,0,0,0-.76.53A.11.11,0,0,1,177,198.9Z" transform="translate(-3.4 -17.45)"/><path class="cls-13" d="M181.06,199.2c.06.29,0,.56-.16.59s-.32-.17-.37-.46,0-.55.15-.59S181,198.91,181.06,199.2Z" transform="translate(-3.4 -17.45)"/><path class="cls-13" d="M178.1,199.93c.06.29,0,.55-.16.59s-.31-.17-.37-.46,0-.56.16-.59S178,199.64,178.1,199.93Z" transform="translate(-3.4 -17.45)"/><path class="cls-13" d="M179.14,202.58a3.52,3.52,0,0,0,2-.68s.23,1.75-.85,1.9C179.58,203.91,179.14,202.58,179.14,202.58Z" transform="translate(-3.4 -17.45)"/><path class="cls-13" d="M180.31,199.23s.05-.76.32-.77.58.55.58.55l.33-.31-.36.15s-.33-.59-.58-.53S180.31,199.23,180.31,199.23Z" transform="translate(-3.4 -17.45)"/><path class="cls-13" d="M178.27,199.83s-.34-.67-.59-.55-.31.77-.31.77l-.43-.13.39,0s.07-.68.32-.75S178.27,199.83,178.27,199.83Z" transform="translate(-3.4 -17.45)"/><path class="cls-12" d="M179.75,201.29l-.11-.22a.31.31,0,0,0,.17-.34.33.33,0,0,0-.2-.26s-.08,0-.11.12l-.22-.09c.09-.27.27-.29.35-.28a.54.54,0,0,1,.41.46A.56.56,0,0,1,179.75,201.29Z" transform="translate(-3.4 -17.45)"/><path class="cls-13" d="M176.39,201.69a16.16,16.16,0,0,1-.36-2.4,3.61,3.61,0,0,1,2.27-3.74,4.16,4.16,0,0,1,1.7-.19,2.66,2.66,0,0,1,2.18,1.74,18,18,0,0,1,.95,3.13,8.63,8.63,0,0,0,0-3.46c-.35-2.1-1.91-3.85-5.55-3C174.49,194.52,173.15,198.64,176.39,201.69Z" transform="translate(-3.4 -17.45)"/><path class="cls-13" d="M180.92,194.84s-.39,3.25-4.42,3.66c0,0,2.44-.95,2.44-2.83,0,0-1,2.41-3.29,2.13C175.65,197.8,175.43,193.91,180.92,194.84Z" transform="translate(-3.4 -17.45)"/><path class="cls-4" d="M168.66,207.35c2,.65,3.29,4.13,2.88,4.53s-9.67,2.37-9.67,2.37l5.64,8.93-1,1.53s-8.79-8.54-8.74-11.47S168.66,207.35,168.66,207.35Z" transform="translate(-3.4 -17.45)"/><path class="cls-4" d="M167.53,222.92a17.92,17.92,0,0,1,2,.36c.77.21,1.8.42,1.83.6s-1.7,0-1.7,0,1.41.64,1.44.88-1.8-.18-1.8-.18,1.16.78,1.09,1-1.48-.31-1.48-.31a5.08,5.08,0,0,0,.53,1.09s-.27.17-.83-.52-1.46-.46-2.16-1.07S166.89,222.83,167.53,222.92Z" transform="translate(-3.4 -17.45)"/><path class="cls-7" d="M168.87,206.31s3.45.44,3.6,6-7.55,3.79-7.55,3.79a6.69,6.69,0,0,1,1.3,5s-2.09,0-2,1.14c0,0-3.23.22-6.38-4.59S159.1,207.51,168.87,206.31Z" transform="translate(-3.4 -17.45)"/><path class="cls-7" d="M186.34,211.66c.23.82,0,1.61-.39,1.75s-1-.39-1.22-1.21,0-1.6.39-1.75S186.11,210.84,186.34,211.66Z" transform="translate(-3.4 -17.45)"/><ellipse class="cls-7" cx="175.17" cy="212.57" rx="1.7" ry="1.28" transform="translate(-45.84 363.99) rotate(-88.32)"/><path class="cls-19" d="M164.92,210.37a1.43,1.43,0,0,1-1.79-1,1.56,1.56,0,0,1,1.23-1.74,1.4,1.4,0,0,1,1.78,1A1.56,1.56,0,0,1,164.92,210.37Z" transform="translate(-3.4 -17.45)"/><path class="cls-19" d="M169,276.6s1.19-1.7,3.62-.34c0,0,.1,1.19-1,1S169.74,277.9,169,276.6Z" transform="translate(-3.4 -17.45)"/><path class="cls-19" d="M194.5,276.91c-1.55.82-4.77-1.13-4.77-1.13a3,3,0,0,0,1.73-.67C192.33,275.8,193.89,276,194.5,276.91Z" transform="translate(-3.4 -17.45)"/><polygon class="cls-22" points="0.51 176 0 175.5 60.71 114.86 61.22 115.37 0.51 176"/><polygon class="cls-22" points="8.99 176 8.48 175.5 69.19 114.86 69.7 115.37 8.99 176"/><polygon class="cls-22" points="17.47 176 16.96 175.5 77.67 114.86 78.18 115.37 17.47 176"/><polygon class="cls-22" points="25.95 176 25.44 175.5 86.15 114.86 86.66 115.37 25.95 176"/><polygon class="cls-22" points="34.43 176 33.92 175.5 94.63 114.86 95.14 115.37 34.43 176"/><polygon class="cls-22" points="42.91 176 42.4 175.5 103.11 114.86 103.62 115.37 42.91 176"/><polygon class="cls-22" points="51.39 176 50.88 175.5 111.59 114.86 112.1 115.37 51.39 176"/></g></g></svg>